<?xml version="1.0" standalone="no"?>
<!DOCTYPE svg PUBLIC "-//W3C//DTD SVG 1.1//EN" "http://www.w3.org/Graphics/SVG/1.1/DTD/svg11.dtd" >
<svg xmlns="http://www.w3.org/2000/svg" xmlns:xlink="http://www.w3.org/1999/xlink" version="1.1">
<metadata>
Created by FontForge 20200314 at Thu Nov 20 23:37:09 2014
 By Unknown
Copyright (c) 2014 by Mika Melvas / Mahti Type Studio. All rights reserved.
</metadata>
<defs>
<font id="Ahkio-Bold" horiz-adv-x="481" >
  <font-face 
    font-family="Ahkio-Bold"
    font-weight="400"
    font-stretch="normal"
    units-per-em="1000"
    panose-1="0 0 0 0 0 0 0 0 0 0"
    ascent="800"
    descent="-200"
    x-height="510"
    cap-height="674"
    bbox="-76 -230 1229 929"
    underline-thickness="50"
    underline-position="-100"
    unicode-range="U+000D-FB03"
  />
<missing-glyph horiz-adv-x="220" 
 />
    <glyph glyph-name=".notdef" horiz-adv-x="220" 
 />
    <glyph glyph-name=".null" horiz-adv-x="0" 
 />
    <glyph glyph-name="nonmarkingreturn" horiz-adv-x="333" 
 />
    <glyph glyph-name="NULL" horiz-adv-x="0" 
 />
    <glyph glyph-name="NULL" horiz-adv-x="0" 
 />
    <glyph glyph-name="CR" unicode="&#xd;" horiz-adv-x="180" 
 />
    <glyph glyph-name="space" unicode=" " horiz-adv-x="142" 
 />
    <glyph glyph-name="exclam" unicode="!" horiz-adv-x="231" 
d="M186 227q-3 -17 -20 -17q-13 0 -57 14t-59 20q-16 7 -16 24v2q12 89 39 211.5t50 179.5q7 15 23 15q11 0 55 -12t73 -24q12 -3 12 -19l-1 -7q-63 -179 -99 -387zM74 183q46 0 73 -26t27 -64q0 -42 -25 -69t-67 -27t-62.5 25t-20.5 65q0 50 43 85q13 11 32 11z" />
    <glyph glyph-name="quotedbl" unicode="&#x22;" horiz-adv-x="346" 
d="M190 462q-5 -16 -18 -16q-15 0 -75 24q-16 6 -16 28q5 40 21.5 106t30.5 101q5 14 23 14q8 0 37 -9t45 -17q12 -7 12 -19q0 -2 -2 -8q-25 -66 -58 -204zM349 462q-5 -16 -18 -16q-15 0 -75 24q-16 6 -16 28q5 40 21.5 106t30.5 101q5 14 23 14q8 0 37 -9t45 -17
q12 -7 12 -19q0 -2 -2 -8q-25 -66 -58 -204z" />
    <glyph glyph-name="numbersign" unicode="#" horiz-adv-x="540" 
d="M547 438q-1 -8 -7.5 -14t-14.5 -6q-4 0 -16 -0.5t-21 -0.5q-19 0 -22 -16l-9 -45v-4q0 -14 12 -14q19 0 25 -1q17 -1 19 -22q0 -5 0.5 -18t0.5 -20t-0.5 -20t-0.5 -17q0 -8 -6.5 -14t-14.5 -6q-4 0 -19 -0.5t-26 -0.5q-20 0 -23 -19q-8 -50 -15 -110q-2 -17 -18 -17
q-12 0 -42.5 9t-42.5 16q-13 6 -13 27l7 70v4q0 15 -15 15l-37 -2q-18 -1 -20 -19q-9 -49 -15 -103q-2 -16 -18 -16q-11 0 -41 9t-42 15q-15 8 -15 27q1 11 4 39t3 31q0 13 -13 13q-15 -1 -18 -1q-20 0 -23 19q-2 15 -5 70q0 21 19 24l45 7q14 1 17 17q1 6 3 17.5t3.5 20.5
t1.5 11q0 13 -12 13q-3 0 -10 -0.5t-9 -0.5q-18 0 -20 19q-4 27 -4 71q0 21 19 24q5 1 23.5 2.5t28.5 3.5q13 1 18 19q19 83 33 116q5 15 22 15q8 0 40.5 -9.5t49.5 -16.5q11 -5 11 -20l-1 -7l-18 -68q-1 -6 -1 -8q0 -10 11 -10q3 0 16 0.5t15 0.5q16 0 19 16q14 63 32 107
q5 15 22 15q29 0 90 -26q11 -5 11 -20l-1 -7q-2 -9 -8.5 -31t-9.5 -35q-2 -7 -2 -10q0 -11 14 -11h16q18 -1 18 -22v-75zM305 339q16 0 19 17l7 42q0 14 -13 14q-4 0 -16 -0.5t-16 -0.5q-13 -1 -18 -17q-9 -42 -9 -44q0 -12 12 -12q5 0 17 0.5t17 0.5z" />
    <glyph glyph-name="dollar" unicode="$" horiz-adv-x="405" 
d="M208 444q0 -6 3.5 -10.5t12 -10t18 -10.5t26 -14.5t31.5 -18.5q46 -29 67 -55.5t21 -64.5q0 -54 -42.5 -114t-92.5 -69q-17 -5 -21 -19q-10 -48 -11 -61q-5 -16 -19 -16q-21 0 -64 18q-15 6 -15 22q0 3 7 51v4q0 14 -15 21q-45 16 -67 35q-11 9 -11 21q0 4 2 10
q22 60 35 88q5 10 14 10q5 0 11 -4q26 -17 63.5 -30.5t59.5 -13.5q24 0 24 17q0 3 -0.5 5t-2.5 5t-4 5t-5.5 5t-6.5 5.5t-9.5 6t-10.5 6.5t-12.5 8t-14.5 9q-61 38 -86.5 69t-25.5 84q0 52 43 111t105 59q9 0 12.5 4t5.5 15q5 21 13 48q5 16 19 16q8 0 35.5 -6t38.5 -11
q13 -6 13 -17l-2 -9l-10 -40q-2 -7 -2 -9q0 -11 14 -15q37 -14 54 -24q11 -6 11 -20l-1 -7l-32 -89q-5 -11 -17 -11q-3 0 -7 2q-65 30 -117 32q-35 0 -35 -23z" />
    <glyph glyph-name="percent" unicode="%" horiz-adv-x="685" 
d="M194 12q-6 -9 -18 -9q-2 0 -11 3q-26 18 -40 32q-7 7 -7 15t5 16q30 48 200.5 292.5t209.5 303.5q7 9 18 9q4 0 8 -2q35 -21 61 -46q6 -6 6 -14q0 -6 -7 -15q-258 -316 -425 -585zM208 433q23 0 39 40.5t16 80.5t-20 40q-21 0 -38 -40.5t-18 -79.5q0 -41 21 -41zM228 351
q-20 0 -41.5 5t-47 17.5t-41.5 40.5t-16 68q0 33 13 75.5t45 80t74 37.5q28 0 60.5 -11t62 -42.5t29.5 -76.5q0 -22 -7.5 -52.5t-22 -63.5t-43.5 -55.5t-65 -22.5zM497 82q22 0 39 40.5t17 80.5q0 41 -20 41q-21 0 -39 -42t-18 -81t21 -39zM518 0q-15 0 -31.5 2.5t-38 11
t-37.5 22.5t-27.5 39t-11.5 57q0 38 13 80t45 77.5t75 35.5q19 0 43 -7t49 -21t42 -41t17 -61q0 -23 -7 -53.5t-22 -63.5t-43.5 -55.5t-65.5 -22.5z" />
    <glyph glyph-name="ampersand" unicode="&#x26;" horiz-adv-x="503" 
d="M348 350q15 -2 15 -17q0 -28 -9 -79q-4 -16 -20 -16q-1 0 -17 0.5t-24 0.5q-30 0 -48.5 -2t-33.5 -11.5t-15 -26.5q0 -21 18.5 -33.5t46.5 -12.5q33 0 74 10.5t69 26.5q4 3 8 3q12 0 17 -12q16 -57 21 -105q0 -18 -13 -27q-55 -33 -143 -46q-20 -2 -22 -22
q-1 -3 -8.5 -46t-9.5 -49q-2 -17 -21 -17q-61 10 -87 18q-15 4 -15 23q1 10 5.5 41.5t5.5 41.5q0 13 -14 20q-118 58 -118 166q0 49 27 80t72 54q7 4 7 8t-5 9q-44 38 -44 93q0 49 24 104.5t71 97t101 43.5q12 0 15 16q1 4 20 91q6 16 23 16q58 -10 95 -22q13 -6 13 -19
q0 -8 -12 -55t-12 -51q0 -9 10 -15q49 -24 80.5 -55.5t31.5 -66.5q0 -17 -10.5 -51t-19.5 -49q-9 -14 -27 -16q-32 -6 -96 -6q-25 0 -27 21q0 2 6 33t6 52q0 41 -35 41q-29 0 -53 -44t-24 -78q0 -60 101 -60z" />
    <glyph glyph-name="quotesingle" unicode="'" horiz-adv-x="185" 
d="M190 462q-5 -16 -18 -16q-15 0 -75 24q-16 6 -16 28q5 40 21.5 106t30.5 101q5 14 23 14q8 0 37 -9t45 -17q12 -7 12 -19q0 -2 -2 -8q-25 -66 -58 -204z" />
    <glyph glyph-name="parenleft" unicode="(" horiz-adv-x="261" 
d="M198 5q1 -4 1 -5q0 -13 -12 -13q-15 0 -53 9.5t-60 19.5q-20 8 -27 29q-16 54 -16 139q0 146 44 306t105 218q11 11 31 11q39 0 108 -40q8 -5 8 -13q0 -5 -6 -13q-54 -63 -95.5 -211.5t-41.5 -294.5q0 -79 14 -142z" />
    <glyph glyph-name="parenright" unicode=")" horiz-adv-x="274" 
d="M119 701q-1 4 -1 5q0 13 12 13q15 0 53 -9.5t60 -19.5q20 -8 27 -29q16 -54 16 -139q0 -146 -44 -306t-105 -218q-11 -11 -31 -11q-39 0 -108 40q-8 5 -8 13q0 5 6 13q54 63 95.5 211.5t41.5 294.5q0 79 -14 142z" />
    <glyph glyph-name="asterisk" unicode="*" horiz-adv-x="375" 
d="M358 432q-4 -4 -10 -4t-10 4q-37 39 -61 59q-3 3 -5 3q-4 0 -6 -8q-8 -39 -11 -78q-2 -14 -15 -14q-3 1 -53 13q-13 5 -13 24q0 2 10 63q0 6 -4 6q-2 0 -6 -2l-49 -30q-4 -2 -7 -2q-7 0 -10 6q-15 24 -24 55q-1 3 -1 5q0 10 9 15q44 19 71 32q6 3 6 7q0 5 -5 8
q-4 3 -13.5 9t-21 14t-13.5 9q-7 5 -7 12l5 13q21 39 29 50q5 7 10 7l10 -4q17 -19 43 -41q3 -3 7 -3q5 0 6 8q10 43 20 75q5 12 16 12q21 0 61 -16q8 -5 8 -14l-1 -7q-16 -56 -16 -62q0 -5 3 -5l5 2q38 22 59 37q4 2 7 2q8 0 12 -7q11 -21 21 -61q0 -10 -11 -16
q-2 -1 -79 -35q-6 -3 -6 -9q0 -4 3 -7q12 -12 69 -60q5 -5 5 -12q0 -4 -2 -8q-11 -17 -35 -45z" />
    <glyph glyph-name="plus" unicode="+" horiz-adv-x="459" 
d="M412 381q20 -3 20 -24q0 -51 -6 -107q-1 -8 -7.5 -14t-14.5 -6q-9 0 -46 0.5t-62 0.5q-19 0 -22 -19q-18 -112 -19 -125q-2 -16 -17 -16q-11 0 -45 10t-50 17q-16 6 -16 24q0 17 5 56t5 41q0 14 -16 14h-59q-8 0 -14.5 6t-7.5 14q-1 9 -1 34q0 41 3 67q1 8 7.5 15t13.5 8
q9 1 40 2.5t49 3.5q16 2 19 20q7 32 36 115q7 15 22 15q8 0 46 -8t55 -14q13 -3 13 -19l-1 -6q-18 -52 -25 -81q-1 -5 -1 -7q0 -14 13 -14q80 -3 83 -3z" />
    <glyph glyph-name="comma" unicode="," horiz-adv-x="194" 
d="M146 139q16 -6 16 -23q0 -23 -27.5 -94t-47.5 -102q-9 -13 -23 -13q-13 0 -39 7t-35 11q-13 7 -13 18q0 6 2 12q26 87 32 193q2 18 18 18q15 0 56.5 -9t60.5 -18z" />
    <glyph glyph-name="hyphen" unicode="-" horiz-adv-x="368" 
d="M39 332q0 8 6.5 14.5t14.5 7.5q61 9 168 9q58 0 95 -5q8 -2 14.5 -9t6.5 -15q0 -45 -9 -108q-4 -18 -24 -18q-25 0 -125.5 1t-128.5 1q-8 0 -14.5 6t-6.5 13q-1 8 -1 27q0 36 4 76z" />
    <glyph glyph-name="period" unicode="." horiz-adv-x="207" 
d="M67 183q46 0 73 -26t27 -64q0 -42 -25 -69t-67 -27t-62.5 25t-20.5 65q0 50 43 85q13 11 32 11z" />
    <glyph glyph-name="slash" unicode="/" horiz-adv-x="384" 
d="M101 -6q-5 -12 -17 -12q-3 0 -7 2q-43 21 -73 49q-9 9 -9 21q0 6 2 12q35 115 151.5 351.5t172.5 307.5q7 10 21 10q15 0 48.5 -24.5t48.5 -40.5q6 -8 6 -15q0 -6 -5 -16q-50 -73 -158.5 -275t-180.5 -370z" />
    <glyph glyph-name="zero" unicode="0" horiz-adv-x="525" 
d="M324 529q-42 0 -82 -101t-40 -193q0 -88 41 -88q27 0 55 49.5t45 122t17 137.5q0 73 -36 73zM264 -1q-37 0 -99 25t-95 72q-36 51 -36 163q0 57 16 125t45.5 134.5t82.5 111t118 44.5q40 0 107.5 -32.5t95.5 -79.5q30 -49 30 -143q-1 -64 -17.5 -134.5t-47.5 -136
t-83.5 -107.5t-116.5 -42z" />
    <glyph glyph-name="one" unicode="1" horiz-adv-x="282" 
d="M167 659q7 13 22 13q33 0 126 -35q12 -3 12 -18l-1 -5q-26 -82 -62.5 -260.5t-53.5 -339.5q-3 -14 -17 -14q-16 0 -57 11t-63 20q-16 7 -16 26q0 37 9.5 112t19.5 136t10 62q0 12 -12 18l-27 13q-11 5 -11 16q0 6 3 11q43 91 118 234z" />
    <glyph glyph-name="two" unicode="2" horiz-adv-x="471" 
d="M257 676q47 0 102.5 -27.5t96.5 -76.5t41 -101q0 -69 -67.5 -153t-155.5 -142q-5 -3 -5 -6q0 -2 4 -2q2 0 21 0.5t44.5 1t42.5 0.5q21 0 25 -20q6 -28 15 -114q0 -16 -18 -18q-229 -14 -337 -19q-22 0 -28 14q-9 20 -20.5 61t-11.5 53q0 14 14 23q114 70 212.5 183.5
t98.5 163.5q0 28 -30 28q-24 0 -57.5 -28.5t-64.5 -75.5q-7 -10 -14 -10l-12 4q-57 37 -81 65q-9 9 -9 22q0 4 2 10q19 52 73 107.5t119 56.5z" />
    <glyph glyph-name="three" unicode="3" horiz-adv-x="459" 
d="M386 359q-8 -5 -8 -8q0 -2 7 -9q20 -17 31 -28t21.5 -32t10.5 -45q0 -81 -60 -159.5t-150 -78.5q-42 0 -97 20t-88 53q-20 20 -33 58.5t-13 61.5q0 20 15 27q13 6 52.5 19.5t47.5 13.5q17 0 19 -13q27 -93 68 -93q28 0 47 31t19 64q0 47 -41 47q-5 0 -52 -11
q-14 0 -19 15q-6 16 -14 48.5t-8 40.5q0 15 16 19q40 11 61.5 18t49 18.5t40 24.5t12.5 28q0 22 -36 22q-29 0 -71.5 -12.5t-74.5 -32.5q-4 -4 -12 -4t-14 10q-33 87 -33 117q0 15 11 22q108 63 215 63q78 0 131 -64t53 -130q0 -69 -103 -121z" />
    <glyph glyph-name="four" unicode="4" horiz-adv-x="498" 
d="M445 307h11q14 0 16 -19q10 -68 11 -110q0 -18 -16 -20l-43 -2q-17 -1 -21 -20q-11 -59 -17 -120q-2 -16 -17 -16q-17 0 -57 12t-61 21q-16 6 -16 26q0 9 1.5 36t1.5 32q0 13 -14 13q-11 0 -76.5 -6t-71.5 -6q-15 0 -23 13q-9 17 -23 59t-14 59q0 16 8 27
q38 53 137 200.5t118 173.5q7 10 19 10q16 0 30 -10q7 -5 10 -5q5 0 10 8q6 9 18 9q10 0 56 -13t71 -22q12 -5 12 -18l-2 -9q-31 -91 -68 -286q-1 -5 -1 -7q0 -10 11 -10zM184 303q-2 -3 -2 -7q0 -8 10 -8q6 1 16 2.5t19 2.5t18 1q16 1 19 18q26 136 26 143q0 4 -2 4l-5 -5
q-11 -19 -48.5 -76.5t-50.5 -74.5z" />
    <glyph glyph-name="five" unicode="5" horiz-adv-x="457" 
d="M23 218q11 5 52.5 15t49.5 10q16 0 20 -13q8 -29 13.5 -44t16.5 -27.5t27 -12.5q28 0 50 39.5t22 81.5q0 55 -39 55q-13 0 -38 -20t-31 -20q-8 0 -15 3q-54 22 -91 59q-10 10 -10 26q0 6 10 44.5t23.5 89t18.5 75.5q2 10 2 29q0 35 23 40q79 19 257 19q49 0 64 -2
q8 -1 14.5 -7.5t7.5 -14.5q6 -46 1 -115q0 -7 -5.5 -12t-13.5 -6q-91 -7 -184 -7q-15 -1 -21 -15q-21 -59 -21 -65q0 -8 8 -8q1 0 24 14.5t41 14.5q36 0 82.5 -34t56.5 -71q11 -35 11 -68q0 -109 -63.5 -191t-150.5 -82q-43 0 -98 19.5t-88 54.5q-21 20 -31.5 57.5
t-10.5 62.5q0 18 16 26z" />
    <glyph glyph-name="six" unicode="6" horiz-adv-x="485" 
d="M483 440q-5 -8 -15 -8q-11 0 -53.5 10t-55.5 15q-12 4 -12 16q0 1 2 14.5t2 21.5q0 29 -24 29q-27 0 -58 -45t-39 -89q0 -6 3 -6q2 0 4 2q44 31 79 31q26 0 72 -27.5t64 -53.5q23 -32 23 -83q0 -58 -21 -116.5t-71 -104.5t-118 -46q-48 0 -106.5 26t-87.5 67
q-37 53 -37 174q0 54 16 120t46 132t83 110.5t118 44.5q33 0 103 -31t96 -71q11 -17 11 -41q0 -43 -24 -91zM271 318q-31 0 -51.5 -38t-20.5 -81q0 -61 39 -61q29 0 48.5 40t19.5 86q0 54 -35 54z" />
    <glyph glyph-name="seven" unicode="7" horiz-adv-x="460" 
d="M482 646q23 -106 23 -122q0 -12 -11 -25q-58 -69 -156 -212.5t-167 -276.5q-6 -10 -17 -10q-7 0 -14 4q-65 40 -99 86q-6 10 -6 18q0 7 4 15q73 151 229 368q4 5 4 8q0 6 -11 6q-62 -3 -140 -6q-19 0 -23 18q-6 50 -6 112q0 19 18 23q101 19 274 19q49 0 75 -4
q19 -4 23 -21z" />
    <glyph glyph-name="eight" unicode="8" horiz-adv-x="507" 
d="M429 345q-6 -5 -6 -10q0 -4 6 -10q61 -57 61 -114q0 -76 -72.5 -144.5t-182.5 -68.5q-76 0 -149.5 57t-73.5 131q0 48 27.5 94.5t72.5 76.5q8 4 8 12q0 5 -5 10q-38 41 -38 98q0 77 66 137.5t166 60.5q63 0 138.5 -63.5t75.5 -128.5q0 -36 -25 -73t-69 -65zM308 543
q-29 0 -49.5 -28t-21.5 -55q2 -41 39 -41q30 0 51.5 25.5t21.5 57.5q0 17 -10.5 29t-30.5 12zM315 239q0 43 -42 43q-36 0 -64 -31.5t-28 -65.5q0 -18 12 -30t35 -12q36 0 61.5 31t25.5 65z" />
    <glyph glyph-name="nine" unicode="9" horiz-adv-x="491" 
d="M478 535q19 -39 19 -109q0 -63 -15 -133.5t-44.5 -138t-81.5 -111.5t-117 -44q-41 0 -98 21.5t-81 49.5q-17 18 -28.5 50t-11.5 60q0 19 15 27q11 5 53.5 13t51.5 8q16 0 19 -13q20 -74 57 -74q23 0 48 38t41 95q1 2 1 3q0 3 -2 3t-5 -3q-40 -35 -88 -35q-23 0 -69.5 23
t-64.5 50q-23 35 -23 103q0 38 11.5 80t34.5 82.5t64 66.5t93 26q53 0 124.5 -39t96.5 -99zM257 357q30 0 51 41t21 84q0 62 -37 62q-29 0 -49 -43t-20 -90q0 -54 34 -54z" />
    <glyph glyph-name="colon" unicode=":" horiz-adv-x="228" 
d="M74 183q46 0 73 -26t27 -64q0 -42 -25 -69t-67 -27t-62.5 25t-20.5 65q0 50 43 85q13 11 32 11zM130 521q46 0 73 -26t27 -64q0 -42 -25 -69t-67 -27t-62.5 25t-20.5 65q0 50 43 85q13 11 32 11z" />
    <glyph glyph-name="semicolon" unicode=";" horiz-adv-x="221" 
d="M130 521q46 0 73 -26t27 -64q0 -42 -25 -69t-67 -27t-62.5 25t-20.5 65q0 50 43 85q13 11 32 11zM153 139q16 -6 16 -23q0 -23 -27.5 -94t-47.5 -102q-9 -13 -23 -13q-13 0 -39 7t-35 11q-13 7 -13 18q0 6 2 12q26 87 32 193q2 18 18 18q15 0 56.5 -9t60.5 -18z" />
    <glyph glyph-name="less" unicode="&#x3c;" horiz-adv-x="431" 
d="M408 511q24 -79 24 -112q0 -17 -17 -23l-192 -71q-9 -3 -9 -8t7 -8l143 -77q14 -7 14 -19q0 -9 -12.5 -43.5t-21.5 -51.5q-6 -10 -21 -10l-12 2q-41 15 -130 60.5t-138 74.5q-15 9 -15 25q0 27 22 128q5 26 31 38q51 23 168.5 66t138.5 43q15 0 20 -14z" />
    <glyph glyph-name="equal" unicode="=" horiz-adv-x="436" 
d="M71 431q1 8 9.5 15t17.5 8q76 9 205 9q70 0 99 -4q19 -4 21 -24q0 -35 -7 -80q-4 -18 -25 -18q-31 0 -147.5 1t-148.5 1q-10 0 -17.5 5.5t-8.5 13.5q-1 10 -1 37q0 13 3 36zM40 271q2 8 10 15.5t17 8.5q67 8 205 8q72 0 99 -5q20 -4 21 -24q0 -35 -7 -79q-3 -18 -25 -18
q-31 0 -147.5 0.5t-148.5 0.5q-10 0 -17.5 5.5t-8.5 13.5q-1 11 -1 28q0 22 3 46z" />
    <glyph glyph-name="greater" unicode="&#x3e;" horiz-adv-x="427" 
d="M34 102q-24 79 -24 112q0 17 17 23l192 71q9 3 9 8q0 4 -7 8l-143 77q-14 7 -14 19q0 9 12.5 43.5t21.5 51.5q6 10 21 10l12 -2q41 -15 130 -60.5t138 -74.5q15 -9 15 -25q0 -27 -22 -128q-5 -26 -31 -38q-51 -23 -168.5 -66t-138.5 -43q-15 0 -20 14z" />
    <glyph glyph-name="question" unicode="?" horiz-adv-x="451" 
d="M256 202q-8 -10 -18 -10q-3 0 -9 2q-60 33 -94 78q-7 9 -7 20q0 7 4 15q14 26 60 59.5t83.5 62.5t37.5 48q0 13 -8 21.5t-22 8.5q-23 0 -57.5 -18t-59.5 -50q-6 -8 -15 -8q-7 0 -11 4q-41 35 -75 92q-5 8 -5 18q0 9 5 17q28 40 81.5 77t120.5 37q84 0 148 -73.5
t64 -161.5q0 -47 -26 -82t-59.5 -53.5t-75 -46.5t-62.5 -57zM138 183q46 0 73 -26t27 -64q0 -42 -25 -69t-67 -27t-62.5 25t-20.5 65q0 50 43 85q13 11 32 11z" />
    <glyph glyph-name="at" unicode="@" horiz-adv-x="846" 
d="M841 404q-3 -125 -83.5 -212.5t-163.5 -87.5q-25 0 -56.5 21.5t-54.5 54.5q-5 6 -9 6q-6 0 -9 -6q-42 -69 -83 -69q-42 0 -83 42.5t-41 94.5q0 103 49 179.5t128 76.5q32 0 89 -20t95 -45q11 -6 11 -19l-2 -10q-39 -130 -39 -163q0 -28 16 -28q38 0 61.5 63.5t23.5 125.5
q0 83 -58.5 144t-149.5 61q-121 0 -204 -111.5t-83 -255.5q0 -107 54.5 -174t165.5 -67q89 0 157 41q5 3 9 3q11 0 15 -10q6 -14 18 -53t12 -50q0 -15 -11 -24q-30 -24 -82 -41.5t-102 -17.5q-63 0 -131 28.5t-125.5 78.5t-95 125.5t-37.5 160.5q0 126 47.5 240.5t137.5 188
t201 73.5q61 0 133.5 -29t134.5 -75t103.5 -110.5t41.5 -129.5zM396 264q0 -32 13 -32q8 0 38 24q12 9 15 28q2 13 6 37t7.5 41.5t3.5 18.5q0 7 -4.5 11.5t-10.5 4.5q-31 0 -49 -44.5t-19 -88.5z" />
    <glyph glyph-name="A" unicode="A" horiz-adv-x="538" 
d="M470 637q16 -8 19 -26q10 -65 10 -282q0 -221 -11 -312q-2 -16 -23 -16q-18 1 -65.5 7.5t-59.5 10.5q-16 5 -16 23l4 100q0 14 -16 14q-5 0 -25 -1t-45.5 -2t-37.5 -1q-15 -1 -23 -19q-9 -21 -24.5 -65.5t-17.5 -49.5q-5 -12 -18 -12q-14 0 -54.5 16t-55.5 27
q-13 7 -13 22l1 9q3 9 12 35.5t13 41.5q2 6 2 12q0 11 -6 42.5t-6 37.5q0 14 13 20q7 2 13 3.5t8 1.5q15 3 25 20q10 21 49 108t73 156t54 93q10 10 19 10q8 0 27 -4t24 -4q9 0 12 13q2 13 12 13q14 0 60 -15.5t67 -26.5zM246 312q-2 -4 -2 -7q0 -9 13 -9q2 0 28 1t30 1
q8 0 12 4t6 14q1 28 1 97v78q0 11 -4 11q-2 0 -5 -6q-13 -28 -41 -94.5t-38 -89.5z" />
    <glyph glyph-name="B" unicode="B" horiz-adv-x="527" 
d="M300 681q86 0 166 -66t80 -125q0 -100 -110 -158q-8 -3 -8 -10q0 -6 6 -10q31 -24 51.5 -57t20.5 -61q0 -75 -80 -133t-186 -60q-74 0 -89 5q-30 11 -68.5 50t-57.5 68q-7 11 -7 21q0 38 23.5 168.5t47.5 228.5q3 12 3 20q0 7 -0.5 27.5t-0.5 25.5q0 13 14 19
q33 17 93 32t102 15zM204 269q-17 -79 -17 -103q0 -13 16 -13q40 1 83.5 22t43.5 59q0 30 -21.5 41t-45.5 11q-20 0 -39 -1q-17 0 -20 -16zM261 533q-12 -35 -29 -124q0 -10 12 -10q44 0 89.5 28t45.5 69q0 31 -26 43.5t-60 12.5q-25 0 -32 -19z" />
    <glyph glyph-name="C" unicode="C" horiz-adv-x="506" 
d="M361 386q-14 0 -14 12q0 1 8 37t8 54q0 45 -26 45q-41 0 -85 -86t-44 -174q0 -55 21 -82t54 -27q52 0 131 52q5 4 13 4q12 0 15 -10q22 -61 30 -93q2 -8 2 -11q0 -12 -9 -21q-93 -87 -176 -87q-52 0 -113 27.5t-99 73.5q-44 52 -44 165q0 95 33.5 188.5t98.5 158
t143 64.5q30 0 83 -21t99 -59t46 -76q0 -48 -30 -115q-6 -15 -24 -16q-38 -3 -121 -3z" />
    <glyph glyph-name="D" unicode="D" horiz-adv-x="563" 
d="M205 1q-28 0 -46 9q-22 11 -62 46t-66 65q-7 7 -7 22q1 65 26.5 201t42.5 201q2 10 2 17q0 6 -0.5 26.5t-0.5 24.5q0 17 13 22q103 44 178 44q109 0 196 -96t87 -208q0 -144 -108 -255.5t-255 -118.5zM206 173q79 0 138 76t59 175q0 48 -31.5 77.5t-75.5 29.5
q-29 0 -34 -20q-51 -214 -67 -326v-2q0 -10 11 -10z" />
    <glyph glyph-name="E" unicode="E" horiz-adv-x="456" 
d="M202 247q-3 -8 -7.5 -35t-4.5 -32q0 -13 11 -13q3 0 71 5t87 5q20 0 28 -19q8 -20 20 -64.5t12 -54.5q0 -15 -16 -17q-256 -22 -281 -22q-17 0 -30 11q-10 10 -20.5 25.5t-26.5 43t-20 33.5q-6 9 -6 21q1 66 30 219t44 204q3 14 3 23q0 4 -0.5 26.5t-0.5 30.5q0 15 19 21
q38 8 123.5 14.5t159.5 6.5q50 0 68 -2q21 -2 24 -20q5 -30 8 -114q0 -17 -18 -19l-206 -11q-14 -1 -20 -15q-2 -5 -6.5 -23.5t-7.5 -33.5t-3 -16q0 -13 14 -13q8 0 62 3t62 3q19 0 25 -20q14 -68 14 -106q0 -17 -20 -17q-78 -4 -168 -12q-17 -1 -23 -16z" />
    <glyph glyph-name="F" unicode="F" horiz-adv-x="446" 
d="M488 538q0 -8 -6 -14t-14 -6q-179 -11 -186 -11q-17 0 -20 -16q0 -1 -6 -25.5t-11 -46t-5 -25.5q0 -11 13 -11q1 0 56.5 2t68.5 2q18 0 22 -21q8 -56 10 -111q0 -17 -21 -19q-2 0 -163 -9q-20 -2 -24 -20q-15 -75 -26 -191q-4 -15 -17 -15q-18 0 -60.5 11.5t-63.5 20.5
q-16 6 -18 27q1 81 28 239.5t58 271.5q2 7 2 16q0 3 -1.5 25t-1.5 26q0 17 20 21q94 22 247 22q60 0 89 -5q20 -3 23 -22q4 -22 7 -116z" />
    <glyph glyph-name="G" unicode="G" horiz-adv-x="540" 
d="M293 -2q-59 0 -124 33t-92 67q-44 56 -44 159q0 70 19.5 143t53.5 135.5t86 102t112 39.5q26 0 65 -10t79.5 -28t69.5 -49t29 -67q0 -22 -22 -84q-6 -15 -24 -17q-25 -1 -115 -1q-19 0 -19 22q0 1 2.5 22t2.5 37t-7.5 27t-21.5 11q-49 0 -92 -90t-43 -190q0 -55 20 -82
t49 -27q28 0 53 23.5t25 48.5q0 7 -11 7q-9 0 -19.5 -1t-16.5 -1q-20 0 -24 20q-8 43 -8 87q0 18 20 21q51 7 129 7q34 0 44 -1q20 -2 25 -20q7 -22 17.5 -72.5t10.5 -61.5q0 -14 -4 -23q-10 -28 -27 -57t-44 -60t-67.5 -50.5t-86.5 -19.5z" />
    <glyph glyph-name="H" unicode="H" horiz-adv-x="535" 
d="M425 660q6 15 21 15q9 0 62.5 -15t68.5 -21q13 -5 13 -18l-1 -6q-27 -79 -64 -257t-56 -340q-1 -15 -17 -15q-17 0 -64.5 13t-60.5 19q-16 7 -17 27q0 14 5.5 72.5t5.5 59.5q0 12 -12 12q-33 0 -87 -4q-17 -2 -20 -18q-12 -71 -23 -166q-2 -16 -20 -16q-17 0 -62.5 13
t-60.5 20q-15 6 -16 27q1 36 12 132q0 1 0.5 3.5t0.5 4.5q0 8 -9.5 52t-9.5 50q0 19 21 24t23 20q40 222 76 312q6 14 24 14q14 0 62.5 -13.5t66.5 -21.5q13 -5 13 -18l-1 -6q-21 -55 -62 -242q-1 -5 -1 -8q0 -13 15 -13q54 2 79 2q17 0 21 18q44 218 74 288z" />
    <glyph glyph-name="I" unicode="I" horiz-adv-x="234" 
d="M168 18q-2 -15 -17 -15q-19 0 -63.5 12t-59.5 19q-15 6 -15 27q1 106 41 317.5t71 281.5q5 14 21 14q24 0 129 -35q14 -5 14 -19l-1 -5q-27 -79 -64 -257t-56 -340z" />
    <glyph glyph-name="J" unicode="J" horiz-adv-x="454" 
d="M141 289q16 0 18 -17q10 -129 33 -129q18 0 35 37.5t31.5 108t24 123.5t21.5 133t13 88l3 19q2 15 19 15q8 0 65 -8.5t70 -12.5q14 -4 14 -22q0 -33 -25 -186.5t-54 -246.5q-29 -95 -77 -144t-101 -49q-24 0 -53.5 4.5t-73.5 24t-65 52.5q-14 21 -25 67.5t-11 81.5v10
q2 17 17 23q10 4 61 15.5t60 12.5z" />
    <glyph glyph-name="K" unicode="K" horiz-adv-x="525" 
d="M572 572q5 -7 5 -12q0 -8 -7 -15q-18 -18 -88 -96.5t-108 -119.5q-5 -7 -5 -14q0 -6 3 -12q73 -141 124 -190q8 -6 8 -14q0 -7 -6 -12q-24 -21 -61 -46.5t-62 -35.5q-9 -3 -14 -3q-10 0 -20 8q-50 47 -105 221q-4 17 -15 17h-4q-12 0 -15 -17q-23 -133 -31 -214
q-1 -15 -17 -15q-11 0 -59 12.5t-64 19.5q-18 8 -18 27q0 89 41.5 308.5t71.5 290.5q4 13 21 13q9 0 58.5 -12.5t72.5 -21.5q14 -5 14 -19l-1 -5q-18 -50 -56 -211q-1 -5 -1 -6q0 -10 8 -10q10 0 21 14q36 49 99.5 143t79.5 115q6 9 17 9q5 0 10 -3q57 -39 103 -94z" />
    <glyph glyph-name="L" unicode="L" horiz-adv-x="418" 
d="M347 183q20 0 27 -18q5 -13 15.5 -63.5t10.5 -59.5q0 -15 -18 -17q-253 -23 -256 -23q-16 0 -26 10q-41 47 -70 104q-8 16 -8 31q0 61 34.5 239.5t69.5 273.5q6 14 22 14q14 0 60 -12t72 -22q12 -5 12 -20l-1 -6q-48 -141 -95 -420q-1 -5 -1 -6q0 -14 14 -14
q5 0 68.5 4.5t69.5 4.5z" />
    <glyph glyph-name="M" unicode="M" horiz-adv-x="665" 
d="M171 18q-1 -15 -16 -15q-17 0 -66.5 13.5t-60.5 18.5q-13 7 -15 26q4 105 47.5 316t74.5 281q7 14 21 14q31 0 87.5 -12.5t91.5 -27.5q17 -8 17 -28q0 -23 -0.5 -70t-2 -104.5t-1.5 -79.5q0 -8 2 -8l5 7q5 13 27 73.5t32.5 88.5t29.5 73.5t35 77.5q9 15 25 15
q30 0 99.5 -17.5t99.5 -31.5q14 -6 14 -20l-1 -6q-28 -80 -64 -251.5t-56 -332.5q-2 -15 -16 -15q-10 0 -61 13.5t-65 18.5q-15 6 -17 26q0 35 12.5 115t26.5 151t14 76q0 4 -2 4q-3 0 -6 -6q-12 -36 -44.5 -139t-50.5 -154q-7 -16 -22 -16q-13 0 -50 11t-57 21
q-15 7 -17 29q-5 63 -5 179q0 49 1 60q0 7 -4 7l-4 -7q-27 -113 -58 -374z" />
    <glyph glyph-name="N" unicode="N" horiz-adv-x="535" 
d="M427 660q4 13 22 13q14 0 63 -12.5t65 -19.5q13 -7 13 -20l-1 -6q-28 -88 -66 -263.5t-55 -333.5q-2 -16 -19 -16q-21 0 -80.5 11t-82.5 21q-16 7 -22 26q-6 16 -12 62t-9.5 88t-8.5 98.5t-6 67.5q0 7 -4 7q-3 0 -4 -7q-33 -183 -52 -357q-2 -17 -19 -17q-13 0 -57 12
t-62 20q-17 7 -17 28q4 103 45.5 314t70.5 283q6 15 23 15t78 -11t87 -21q19 -9 21 -27q2 -27 5 -82.5t5.5 -117.5t3.5 -80q0 -8 4 -8q2 0 4 8q31 231 67 325z" />
    <glyph glyph-name="O" unicode="O" horiz-adv-x="569" 
d="M343 531q-50 0 -92.5 -88t-42.5 -182q0 -112 63 -112q52 0 91 89t40 194q0 44 -16 71.5t-43 27.5zM291 -1q-57 0 -123 31.5t-93 71.5q-42 59 -42 167q0 40 9.5 90.5t31.5 106.5t52.5 102t78.5 76.5t104 30.5q42 0 122 -36t107 -78q36 -58 36 -156q0 -57 -17 -123.5
t-49 -131.5t-89 -108t-128 -43z" />
    <glyph glyph-name="P" unicode="P" horiz-adv-x="528" 
d="M112 640q94 37 186 37q95 0 173.5 -81.5t78.5 -167.5q-1 -99 -86 -180t-174 -81q-22 0 -73 22q-6 3 -9 3q-9 0 -11 -13q-16 -108 -22 -161q-2 -16 -17 -16q-12 0 -60 13t-64 19q-17 6 -19 27q1 75 26 220t56 264q2 11 2 37l-2 32q0 19 15 26zM224 325q-1 -4 -1 -7
q0 -10 10 -10q51 0 100 52t49 104q0 33 -22 51t-57 18q-31 0 -37 -19z" />
    <glyph glyph-name="Q" unicode="Q" horiz-adv-x="569" 
d="M291 -1q-57 0 -123 31.5t-93 71.5q-42 59 -42 167q0 40 10 90.5t32 106.5t53.5 102t79.5 76.5t104 30.5q42 0 120.5 -35.5t105.5 -78.5q36 -58 36 -156q0 -68 -23 -149.5t-67 -144.5q-4 -6 -4 -13q0 -3 2 -7t4 -7l2 -2q11 -13 36 -44t30 -37q7 -9 7 -17q0 -10 -9 -18
q-17 -17 -49.5 -38.5t-55.5 -29.5q-7 -3 -13 -3q-13 0 -23 16q-36 52 -54 84q-6 9 -15 9q-2 0 -21.5 -2.5t-29.5 -2.5zM346 235q16 9 23 21q31 80 33 176q0 44 -16 71.5t-43 27.5q-50 0 -92.5 -88t-42.5 -182q0 -112 61 -112q8 0 8 8q0 5 -4.5 16.5t-4.5 16.5q0 6 4 9z" />
    <glyph glyph-name="R" unicode="R" horiz-adv-x="535" 
d="M402 251q-11 -5 -11 -14q0 -3 3 -8q53 -82 95 -120q6 -6 6 -14q0 -7 -6 -13q-66 -58 -116 -77q-6 -2 -10 -2q-12 0 -22 8q-37 31 -65 88.5t-42 110.5q-6 18 -15 18q-12 0 -15 -14q-21 -124 -29 -196q-3 -16 -17 -16t-60 12.5t-64 20.5q-16 7 -18 26q1 77 26.5 225.5
t56.5 268.5q4 16 4 25q0 3 -0.5 18.5t-0.5 21.5q0 15 15 21q95 36 187 36q91 0 170.5 -76.5t79.5 -148.5q0 -67 -42.5 -120.5t-109.5 -80.5zM290 531q-19 0 -24 -17q-34 -144 -34 -152q0 -12 13 -12q52 0 91 38.5t39 76.5q0 34 -24 50t-61 16z" />
    <glyph glyph-name="S" unicode="S" horiz-adv-x="491" 
d="M465 193q0 -78 -63.5 -137.5t-148.5 -59.5q-39 0 -97.5 18t-86.5 42q-45 37 -58 123q-1 7 -1 11q0 17 16 27q73 28 111 28q14 0 20 -14q32 -83 85 -83t53 30q0 16 -17.5 29t-54.5 31q-36 18 -57 31t-50 36.5t-43.5 55t-14.5 69.5q0 53 27.5 109.5t77 95.5t103.5 39
q42 0 100 -19t106.5 -57.5t48.5 -82.5q0 -43 -31 -105q-8 -16 -25 -17q-31 -5 -109 -5q-25 0 -25 15q0 1 7.5 36t7.5 53q0 42 -29 42t-54 -33t-25 -61q0 -8 2 -15t7.5 -13.5t9.5 -11t13.5 -10.5t14 -9t16.5 -9.5t16 -8.5q10 -6 32.5 -18t32 -17.5t26.5 -17.5t24.5 -21.5
t16.5 -24t12.5 -32t3.5 -39.5z" />
    <glyph glyph-name="T" unicode="T" horiz-adv-x="473" 
d="M503 671q19 -4 21 -22q2 -28 2 -60q0 -41 -2 -77q-2 -16 -22 -18l-98 -5q-20 -1 -23 -18q-55 -218 -81 -453q-2 -15 -17 -15q-11 0 -63.5 13t-65.5 19q-16 6 -16 26q8 163 64 405q1 5 1 6q0 10 -14 10l-37 -2q-36 -1 -39 -1q-20 0 -22 18q-7 52 -7 134q0 20 21 23
q45 7 142.5 14t176.5 7q50 0 79 -4z" />
    <glyph glyph-name="U" unicode="U" horiz-adv-x="527" 
d="M532 631q20 -8 20 -25v-16q0 -54 -8.5 -125t-29 -154t-50 -151t-77 -114t-103.5 -46q-51 0 -117.5 26.5t-96.5 66.5q-34 47 -34 133q0 113 31.5 240t61.5 185q11 18 28 18q14 0 55 -11t65 -21q13 -5 13 -18l-2 -8q-30 -85 -57 -209.5t-27 -180.5q0 -32 11 -51t30 -19
q27 0 45.5 35t37.5 104q42 154 67 356q3 16 18 16q11 0 56.5 -12.5t62.5 -18.5z" />
    <glyph glyph-name="V" unicode="V" horiz-adv-x="521" 
d="M88 108q-11 124 -7 304t20 245q4 16 20 16q19 0 65.5 -10.5t65.5 -20.5q17 -8 17 -27l-1 -11q-21 -152 -18 -409q0 -6 3 -6l5 5q98 311 159 464q5 13 18 13q15 0 67.5 -23.5t66.5 -35.5q11 -9 11 -20l-1 -8q-36 -103 -120 -307.5t-117 -264.5q-6 -13 -25 -13
q-36 0 -106 27t-106 52q-14 10 -17 30z" />
    <glyph glyph-name="W" unicode="W" horiz-adv-x="743" 
d="M370 103q-1 18 -1 71q0 25 2 99q0 9 -3 9q-2 0 -5 -9q-10 -36 -27 -100.5t-28.5 -104t-20.5 -56.5q-7 -13 -25 -13q-35 0 -94 26t-86 49q-15 13 -17 30q-4 58 -4 97q0 117 14 256t28 200q4 16 20 16q21 0 67 -8t64 -18q17 -9 17 -27l-1 -11q-39 -282 -45 -414q0 -6 3 -6
l5 5q103 358 142 454q5 13 18 13q48 0 120 -37q19 -10 19 -24l-1 -11q-36 -259 -42 -394q0 -6 3 -6l5 5q107 370 145 464q5 13 18 13q15 0 65.5 -23.5t64.5 -35.5q11 -9 11 -20l-1 -8q-21 -57 -68 -193.5t-83.5 -238.5t-53.5 -140q-7 -13 -25 -13q-37 0 -93.5 21.5
t-89.5 47.5q-13 10 -17 35z" />
    <glyph glyph-name="X" unicode="X" horiz-adv-x="553" 
d="M102 7q-6 -6 -15 -6q-7 0 -12 4q-46 43 -79 100q-3 5 -3 12q0 10 9 19q55 66 163 183q8 8 8 14q0 5 -5 15q-22 45 -49.5 130t-27.5 107q0 16 13 23q69 42 129 63q3 1 6 1q11 0 14 -13q1 -5 10.5 -42t19.5 -70.5t23 -66.5q3 -6 8 -6q4 0 10 6l155 185q7 7 16 7q8 0 13 -4
q20 -17 49.5 -51t44.5 -58q4 -6 4 -12q0 -7 -9 -16q-31 -27 -64.5 -60.5t-76 -78t-59.5 -62.5q-9 -9 -9 -18q0 -4 3 -10q64 -125 116 -182q7 -7 7 -16q0 -6 -5 -13q-48 -53 -105 -86q-6 -3 -13 -3q-9 0 -19 8q-35 33 -107 165q-3 7 -11 7q-6 0 -11 -6z" />
    <glyph glyph-name="Y" unicode="Y" horiz-adv-x="521" 
d="M425 659q5 13 18 13q15 0 66 -26t68 -40q10 -9 10 -20q0 -4 -2 -10q-47 -132 -143 -302.5t-176 -264.5q-7 -9 -20 -9q-4 0 -10 2q-69 26 -123 62q-6 4 -6 13l6 14q66 83 95 125q3 4 3 8q0 8 -12 12q-23 9 -26 11q-16 6 -22 25q-46 153 -62 360q0 18 18 23q25 6 72.5 11.5
t66.5 5.5q15 0 17 -18q5 -148 28 -273q1 -9 5 -9q3 0 6 6q67 133 123 281z" />
    <glyph glyph-name="Z" unicode="Z" horiz-adv-x="479" 
d="M442 670h24q20 0 26 -17q10 -22 19.5 -66t9.5 -64q0 -16 -12 -26q-15 -13 -37 -35.5t-55.5 -60t-55.5 -62t-67.5 -76t-60.5 -68.5q-3 -5 -3 -7q0 -6 7 -6q1 0 61 2t73 2q22 0 28 -17q6 -19 14 -66.5t8 -60.5q0 -17 -19 -17q-41 -1 -182.5 -11t-146.5 -10q-20 0 -27 15
q-49 113 -49 141q0 12 6 23q138 191 261 316q3 3 3 7q0 5 -9 5q-15 0 -70.5 -2.5t-63.5 -2.5q-23 0 -27 19q-9 56 -9 99q0 20 16 23q49 8 159.5 15.5t178.5 7.5z" />
    <glyph glyph-name="bracketleft" unicode="[" horiz-adv-x="298" 
d="M349 609q-4 -19 -23 -21q-34 0 -54 -2q-18 -1 -21 -19q-92 -400 -92 -428q0 -17 15 -17q23 1 62 1q8 0 13.5 -5.5t5.5 -13.5q0 -26 -10 -91q-1 -10 -8 -16t-15 -6q-3 0 -55.5 -4.5t-73.5 -4.5q-22 0 -32 14q-44 60 -52 77q-6 12 -6 27l1 10q11 85 54.5 288t68.5 302
q5 19 24 21q36 3 105 3q58 0 89 -3q17 -2 17 -19q0 -33 -13 -93z" />
    <glyph glyph-name="backslash" unicode="\" horiz-adv-x="474" 
d="M437 65q1 -4 1 -8q0 -16 -10 -22q-18 -11 -56.5 -26.5t-47.5 -15.5q-17 0 -23 15q-55 116 -124.5 354.5t-69.5 291.5q0 17 11 25q14 10 59 27t61 17q14 0 16 -17q16 -91 68.5 -281t114.5 -360z" />
    <glyph glyph-name="bracketright" unicode="]" horiz-adv-x="316" 
d="M6 97q4 19 23 21q34 0 54 2q18 1 21 19q92 400 92 428q0 17 -15 17q-23 -1 -62 -1q-7 0 -13 5.5t-6 13.5q0 26 10 91q1 10 8 16t15 6q3 0 55.5 4.5t73.5 4.5q22 0 32 -14q44 -60 52 -77q6 -12 6 -27l-1 -10q-11 -85 -54.5 -288t-68.5 -302q-5 -19 -24 -21q-36 -3 -105 -3
q-57 0 -89 3q-17 2 -17 19q0 33 13 93z" />
    <glyph glyph-name="asciicircum" unicode="^" horiz-adv-x="433" 
d="M431 339q0 -20 -18 -22q-52 -2 -96 -2q-7 0 -13 6.5t-8 15.5q-8 60 -23 208q-1 9 -5 9l-6 -6l-121 -195q-6 -9 -17 -9q-12 0 -35 20.5t-33 35.5q-6 9 -6 20q0 8 3 14q21 47 88.5 161t104.5 167q10 14 27 14q10 0 52 -15.5t55 -22.5q22 -10 25 -39q17 -155 26 -360z" />
    <glyph glyph-name="underscore" unicode="_" horiz-adv-x="384" 
d="M-28 -58q2 8 8.5 14.5t14.5 7.5q79 9 248 9q88 0 121 -4q8 -1 14.5 -8.5t6.5 -14.5v-11q0 -43 -5 -76q-3 -16 -24 -16h-361q-8 0 -14.5 5.5t-7.5 13.5q-2 24 -2 47q0 6 0.5 17t0.5 16z" />
    <glyph glyph-name="grave" unicode="`" horiz-adv-x="264" 
d="M310 628q11 -9 11 -19q0 -5 -4 -11q-26 -43 -32 -51q-8 -10 -20 -10q-4 0 -10 2q-32 14 -77.5 45t-67.5 54q-8 8 -8 19q0 6 4 14q24 42 54 78q4 5 12 5q10 0 15 -7q35 -43 123 -119z" />
    <glyph glyph-name="a" unicode="a" 
d="M308 25q-20 6 -24 27l-3 33q0 8 -4 8q-3 0 -6 -6q-51 -87 -99 -87q-54 0 -105.5 55.5t-51.5 125.5q0 49 12 103.5t36.5 108t70 88.5t103.5 35q40 0 112 -27.5t124 -61.5q12 -8 12 -21l-1 -8q-51 -185 -56 -379q-2 -17 -17 -17q-21 0 -103 23zM258 193q9 9 11 20
q3 21 8 44.5t11 51.5t9 43v5q0 21 -24 21q-38 0 -62.5 -62.5t-24.5 -115.5q0 -42 14 -42q21 0 58 35z" />
    <glyph glyph-name="b" unicode="b" horiz-adv-x="475" 
d="M15 131q12 123 50.5 306.5t65.5 247.5q5 15 21 15q11 0 63.5 -15.5t66.5 -21.5q13 -5 13 -19l-1 -6q-19 -56 -47 -174q-1 -5 -1 -6q0 -5 4 -5q3 0 6 5q46 58 83 58q48 0 89.5 -65.5t41.5 -118.5q0 -136 -70 -234t-184 -98q-38 0 -95 28.5t-96 60.5q-11 9 -11 28zM185 158
q0 -19 24 -19q36 0 64 67t29 120q0 42 -13 42q-16 0 -43.5 -20t-32.5 -40q-6 -22 -17 -80.5t-11 -69.5z" />
    <glyph glyph-name="c" unicode="c" horiz-adv-x="422" 
d="M279 271q-16 2 -16 17q0 2 6.5 32.5t6.5 42.5q0 27 -14 27q-23 0 -50 -62.5t-27 -112.5q0 -32 11 -46.5t36 -14.5q28 0 67.5 14t41.5 14q12 0 17 -12q6 -12 15 -42t9 -38q0 -19 -11 -30q-20 -21 -60.5 -40.5t-76.5 -19.5q-49 0 -101.5 24t-84.5 68q-31 41 -31 124
q0 66 25 134.5t72.5 117.5t103.5 49q13 0 45.5 -9.5t70 -26t65.5 -44.5t28 -58q0 -37 -29 -87q-8 -19 -27 -19q-28 -2 -92 -2z" />
    <glyph glyph-name="d" unicode="d" horiz-adv-x="486" 
d="M384 685q7 15 23 15q8 0 60.5 -15.5t68.5 -21.5q13 -5 13 -18l-1 -7q-29 -81 -69 -264t-62 -355q-2 -16 -17 -16q-10 0 -45.5 9.5t-51.5 15.5q-18 8 -19 27q0 3 -0.5 12.5t-0.5 11.5q0 11 -6 11q-3 0 -7 -5q-54 -85 -97 -85q-54 0 -106 56t-52 126q0 132 60 233t148 101
q33 0 85 -26q4 -2 7 -2q9 0 12 12q35 136 57 185zM260 193q9 9 11 20q3 21 8 44.5t11 51.5t9 43v5q0 21 -24 21q-38 0 -62.5 -62.5t-24.5 -115.5q0 -42 14 -42q21 0 58 35z" />
    <glyph glyph-name="e" unicode="e" horiz-adv-x="431" 
d="M185 192q0 -18 12 -30.5t35 -12.5q28 0 68.5 13t42.5 13q12 0 17 -12q6 -12 14 -40.5t8 -36.5q0 -15 -11 -26q-20 -21 -62 -40.5t-78 -19.5q-45 0 -98 24t-85 68q-31 41 -31 124q0 58 22.5 126t70 121.5t104.5 53.5q42 0 104 -28.5t85 -53.5q31 -34 31 -72
q0 -67 -53.5 -115t-135.5 -48q-9 0 -27 1.5t-20 1.5q-13 0 -13 -11zM268 402q-19 0 -42 -42.5t-23 -60.5q0 -12 10 -12q29 0 51 28.5t22 58.5q0 28 -18 28z" />
    <glyph glyph-name="f" unicode="f" horiz-adv-x="336" 
d="M366 563q-13 5 -29 5q-19 0 -32.5 -13.5t-13.5 -31.5q0 -12 14 -12h35q17 -1 17 -24q-2 -57 -9 -106q-2 -18 -22 -18h-52q-18 0 -21 -15q-34 -187 -56 -329q-4 -18 -22 -18q-15 0 -62 12.5t-62 18.5t-15 27l1 12q16 114 44 278q1 6 1 7q0 11 -12 11h-9q-14 0 -16 16v27
q0 45 2 75q2 21 24 21q2 0 7.5 0.5t7.5 0.5q19 0 22 17q18 95 61 147.5t131 52.5q54 0 102 -23q12 -7 12 -21q0 -5 -24 -105q-3 -13 -18 -13z" />
    <glyph glyph-name="g" unicode="g" horiz-adv-x="477" 
d="M15 191q0 48 13 102t38 105t70 84.5t102 33.5q37 0 114.5 -29t120.5 -57q10 -7 10 -23l-1 -8q-15 -62 -71 -374q-5 -28 -18 -59t-37 -66.5t-66 -58.5t-94 -23q-30 0 -71 14t-64 31q-12 8 -12 23l1 7q11 46 21 76q5 12 15 12l6 -1q44 -18 72 -18q47 1 72.5 34.5t25.5 74.5
q0 9 -3 9t-7 -6q-46 -63 -84 -63q-54 0 -103.5 55t-49.5 125zM257 193q9 9 11 20q3 21 8 44.5t11 51.5t9 43v5q0 21 -24 21q-38 0 -62.5 -62.5t-24.5 -115.5q0 -42 14 -42q21 0 58 35z" />
    <glyph glyph-name="h" unicode="h" horiz-adv-x="480" 
d="M243 425q58 89 113 89q33 0 77 -43t44 -80q0 -32 -24 -160.5t-45 -211.5q-5 -17 -22 -17q-14 0 -59.5 15.5t-67.5 26.5q-12 7 -12 22l1 8q47 191 47 258q0 24 -8 24t-26.5 -11t-36.5 -30q-13 -13 -17 -32q-31 -159 -43 -264q-2 -16 -18 -16t-61.5 13t-59.5 20
q-16 7 -16 28q3 110 46.5 327.5t75.5 293.5q6 15 22 15q18 0 129 -37q13 -4 13 -16l-2 -9q-33 -103 -57 -210q-1 -5 -1 -6q0 -3 2 -3q1 0 6 6z" />
    <glyph glyph-name="i" unicode="i" horiz-adv-x="229" 
d="M172 733q53 0 85 -26t32 -65q0 -43 -31 -71t-82 -28q-43 0 -65.5 26t-22.5 67q0 46 48 86q14 11 36 11zM164 18q-3 -17 -19 -17q-13 0 -59.5 12.5t-63.5 19.5q-16 7 -16 28q5 83 29 226t44 206q5 17 25 17q12 0 64 -12t64 -18q13 -6 13 -19l-1 -6q-62 -272 -80 -437z" />
    <glyph glyph-name="j" unicode="j" horiz-adv-x="229" 
d="M55 -176q-11 -7 -21 -7l-14 3q-51 23 -92 59q-4 4 -4 10q0 4 2 7.5t4 5.5l1 1q46 36 63 111q9 41 41 234t43 247q3 17 21 17q45 0 125 -20q16 -4 16 -22l-1 -10q-9 -70 -36 -227t-40 -211q-32 -143 -108 -198zM170 733q53 0 85 -26t32 -65q0 -43 -31 -71t-82 -28
q-43 0 -65.5 26t-22.5 67q0 46 48 86q14 11 36 11z" />
    <glyph glyph-name="k" unicode="k" horiz-adv-x="475" 
d="M347 262q-8 -6 -8 -15q0 -5 3 -9q46 -76 95 -127q7 -7 7 -15q0 -7 -5 -12q-56 -53 -121 -80q-6 -2 -13 -2q-13 0 -22 9q-19 19 -39 63t-32 85q-5 20 -14 20q-10 0 -14 -20q-14 -91 -19 -140q-3 -16 -19 -16t-59.5 12.5t-60.5 20.5q-16 7 -16 28q2 110 45.5 328t76.5 293
q6 15 22 15q9 0 60 -15.5t69 -21.5q13 -4 13 -19l-1 -6q-41 -124 -78 -307q-1 -5 -1 -7q0 -8 5 -8t17 15l127 168q6 8 16 8q7 0 11 -3q48 -30 94 -88q4 -5 4 -12q0 -9 -8 -17z" />
    <glyph glyph-name="l" unicode="l" horiz-adv-x="231" 
d="M163 19q-2 -16 -18 -16q-13 0 -58 13t-62 20q-16 6 -16 28q0 94 44.5 319.5t76.5 301.5q5 15 21 15q11 0 63.5 -15.5t66.5 -21.5q13 -5 13 -19l-1 -6q-29 -87 -69 -269t-61 -350z" />
    <glyph glyph-name="m" unicode="m" horiz-adv-x="718" 
d="M476 425q58 89 107 89q36 0 83.5 -43t47.5 -80q0 -33 -24 -162t-45 -211q-4 -16 -21 -16q-19 0 -63 16t-63 27q-13 8 -13 23l1 8q48 199 48 259q0 24 -8 24q-24 0 -54 -34q-10 -12 -14 -32q-34 -195 -56 -275q-5 -16 -21 -16q-19 0 -67 16.5t-61 25.5q-12 7 -12 21l1 8
q47 191 47 262q0 24 -8 24q-6 0 -22 -9.5t-30 -23.5q-8 -8 -14 -31q-10 -50 -29 -151t-24 -126q-5 -16 -21 -16q-15 0 -62.5 14.5t-61.5 22.5t-14 25l1 11q10 51 71 426q2 17 19 17q15 0 59 -8.5t61 -13.5q18 -5 19 -28l1 -21q0 -9 4 -9q2 0 7 6q52 70 97 70
q26 0 61.5 -27.5t54.5 -60.5q5 -8 9 -8q5 0 9 7z" />
    <glyph glyph-name="n" unicode="n" horiz-adv-x="482" 
d="M243 431q56 83 108 83q37 0 82.5 -43t45.5 -80q0 -36 -23.5 -162.5t-44.5 -210.5q-6 -17 -23 -17q-18 0 -64 16.5t-61 26.5q-13 9 -13 22l1 8q46 202 46 258q0 24 -8 24q-7 0 -26.5 -11.5t-33.5 -26.5q-12 -12 -16 -32q-45 -230 -53 -268q-5 -16 -20 -16q-17 0 -63 14.5
t-61 22.5q-13 7 -13 25l1 8q29 146 68 429q3 17 22 17q14 0 58.5 -8.5t59.5 -13.5q17 -6 18 -28l2 -33q0 -9 4 -9z" />
    <glyph glyph-name="o" unicode="o" horiz-adv-x="468" 
d="M214 135q32 0 56.5 68.5t24.5 126.5t-29 58q-28 0 -55 -72t-28 -129q0 -52 31 -52zM461 305q0 -37 -11 -84t-33.5 -99t-67 -87t-102.5 -35q-44 0 -107.5 24t-94.5 69q-28 41 -28 118q0 41 13 91.5t36.5 99.5t65 82t90.5 33q28 0 93.5 -24t101.5 -57q44 -41 44 -131z" />
    <glyph glyph-name="p" unicode="p" horiz-adv-x="479" 
d="M71 458q92 61 200 61q52 0 128 -74.5t76 -130.5q0 -123 -68 -218t-158 -95q-33 0 -68 30q-5 4 -10 4q-8 0 -10 -11q-4 -30 -13 -88.5t-13 -85.5q-2 -17 -18 -17q-18 0 -58 12.5t-62 22.5q-15 7 -15 25l1 11q25 235 76 468q3 12 3 21q0 5 -2 21.5t-2 19.5q0 15 13 24z
M206 142q39 0 68.5 53.5t29.5 106.5q0 32 -15 52t-39 20q-16 0 -20 -18q-21 -81 -40 -184q-2 -10 -2 -12q0 -18 18 -18z" />
    <glyph glyph-name="q" unicode="q" horiz-adv-x="474" 
d="M15 184q0 135 62 233.5t163 98.5q39 0 111 -27.5t119 -60.5q13 -9 13 -19l-2 -11q-61 -259 -91 -558q-2 -16 -18 -16q-12 0 -59.5 11t-62.5 16q-17 7 -17 27t6.5 66t12.5 84t6 39q0 5 -3 5t-6 -5q-45 -67 -83 -67q-54 0 -102.5 56.5t-48.5 127.5zM257 193q9 9 11 20
q3 21 8 44.5t11 51.5t9 43v5q0 21 -24 21q-38 0 -62.5 -62.5t-24.5 -115.5q0 -42 14 -42q21 0 58 35z" />
    <glyph glyph-name="r" unicode="r" horiz-adv-x="352" 
d="M341 510q18 0 20 -18v-20q0 -61 -5 -134q0 -16 -19 -21q-98 -22 -109 -25q-16 -4 -22 -26q-36 -187 -46 -247q-5 -17 -19 -17q-17 0 -64.5 13.5t-62.5 22.5q-12 8 -12 22l1 9l70 432q3 17 21 17q14 0 58 -8.5t60 -14.5q16 -5 18 -25l3 -30q1 -9 4 -9l7 5q22 32 49.5 53
t47.5 21z" />
    <glyph glyph-name="s" unicode="s" horiz-adv-x="417" 
d="M26 317q0 34 17 77.5t58.5 83t96.5 39.5q14 0 48.5 -9t75 -24.5t71 -42.5t30.5 -57q0 -34 -27 -73q-10 -15 -27 -15q-22 -2 -95 -2q-15 2 -15 16l5 24q6 25 6 39q0 21 -16 21q-20 0 -38 -29t-18 -49t30 -34.5t66 -24t66 -32.5t30 -58q0 -70 -54.5 -118.5t-126.5 -48.5
q-51 0 -104.5 15.5t-87.5 40.5q-12 8 -12 26q0 6 8 36.5t14 45.5q7 15 17 15q4 0 16 -6q82 -43 125 -43q41 0 42 19q0 11 -31.5 22t-69 22.5t-69 43.5t-31.5 80z" />
    <glyph glyph-name="t" unicode="t" horiz-adv-x="341" 
d="M355 381q-5 -19 -25 -19h-60q-18 0 -23 -18q-22 -103 -22 -133q0 -29 11.5 -46t37.5 -29q10 -6 10 -19l-2 -9q-21 -51 -60 -95q-11 -11 -24 -11l-8 1q-66 19 -102.5 68.5t-36.5 109.5q0 54 23 165q1 5 1 7q0 11 -10 11h-6q-16 0 -18 20q-1 10 -1 36q0 30 2 64q2 18 24 21
q2 0 7.5 0.5t13 1.5t11.5 1q11 1 17 20q25 101 44 141q7 15 22 15t59.5 -12.5t66.5 -22.5q12 -5 12 -19l-1 -8q-15 -46 -26 -90q-1 -5 -1 -7q0 -11 11 -14h39q19 -1 21 -24v-10q0 -56 -7 -96z" />
    <glyph glyph-name="u" unicode="u" 
d="M481 474q12 -4 12 -21l-1 -6q-31 -107 -49.5 -230t-20.5 -198q0 -7 -5 -12.5t-13 -5.5q-36 0 -96 22q-20 7 -23 29l-5 39q-2 9 -5 9t-6 -6q-52 -95 -108 -95q-45 0 -94.5 50.5t-49.5 104.5q0 84 22 181.5t45 155.5q5 16 21 16q13 0 62 -18t63 -27q9 -6 9 -19l-1 -9
q-16 -51 -34.5 -132t-18.5 -117q0 -20 7 -20q18 0 47 27.5t35 54.5q17 130 57 246q6 17 23 17q11 0 58.5 -13t68.5 -23z" />
    <glyph glyph-name="v" unicode="v" horiz-adv-x="444" 
d="M314 494q3 15 18 15t58 -22.5t61 -37.5q14 -13 14 -24l-1 -7q-18 -78 -80 -217t-106 -189q-11 -11 -30 -11q-29 0 -95 26t-92 49q-13 12 -15 32q-1 23 -1 87q0 167 6 299q0 8 6 13.5t14 5.5q22 0 67 -5t63 -9t18 -25q-10 -97 -22 -307q0 -7 3 -7t5 6q60 152 109 328z" />
    <glyph glyph-name="w" unicode="w" horiz-adv-x="666" 
d="M536 496q2 16 18 16q14 0 59.5 -24t59.5 -36q12 -10 12 -23q0 -45 -58 -195.5t-113 -220.5q-10 -12 -28 -12q-25 0 -78.5 23.5t-84.5 48.5q-13 12 -16 33q0 5 -2 22.5t-3.5 37t-1.5 32.5q0 8 -2 8q-4 0 -5 -7q-38 -142 -61 -183q-7 -14 -24 -14q-22 0 -76 24.5t-74 42.5
q-13 12 -13 33q0 149 10 395q2 18 21 18q74 -2 129 -16q17 -5 17 -19q0 -4 -13 -154.5t-13 -158.5q0 -4 1 -4l4 7q15 38 99 327q5 18 26 18q58 -4 110 -18q15 -5 15 -21q0 -2 -4.5 -69.5t-8.5 -142.5t-4 -94q0 -6 2 -6l3 4q41 102 97 328z" />
    <glyph glyph-name="x" unicode="x" horiz-adv-x="460" 
d="M79 14q-7 -7 -14 -7t-11 6q-31 40 -57 96q-2 6 -2 11q0 12 8 20q13 13 51 50.5t54 53.5q6 8 6 15q0 6 -3 12q-44 79 -63 141q-1 4 -1 8q0 14 12 23q52 39 120 69q6 2 9 2q12 0 15 -12q15 -66 46 -117q4 -7 7 -7l8 5l118 117q8 6 15 6q9 0 14 -7q29 -35 62 -99q3 -6 3 -11
q0 -10 -10 -17q-52 -40 -132 -111q-8 -6 -8 -13l3 -9q35 -67 87 -113q7 -6 7 -14l-4 -11q-19 -24 -51.5 -54t-54.5 -42q-9 -5 -16 -5q-9 0 -19 7q-12 9 -36.5 41.5t-43.5 66.5q-4 9 -14 9q-5 0 -10 -5z" />
    <glyph glyph-name="y" unicode="y" 
d="M335 496q7 14 21 14t62 -16t63 -26q11 -8 11 -21l-1 -7q-24 -92 -83 -412q-4 -22 -11.5 -46t-24.5 -54.5t-39.5 -54t-58 -39.5t-78.5 -16q-63 0 -136 46q-13 7 -13 24l2 12q15 55 19 68q5 15 16 15l8 -2q46 -18 77 -18q32 0 55 23t30.5 47t7.5 42q0 9 -2 9l-5 -6
q-48 -65 -93 -65q-44 0 -94.5 49.5t-50.5 102.5q0 82 22 176.5t45 149.5q5 16 23 16q8 0 59.5 -19t63.5 -27q9 -6 9 -20l-1 -8q-16 -49 -34 -132t-18 -119q0 -19 7 -19q16 0 37.5 18.5t36.5 42.5q6 10 7 18q24 161 61 254z" />
    <glyph glyph-name="z" unicode="z" horiz-adv-x="401" 
d="M392 491q7 -29 13 -76t6 -60q0 -17 -15 -29q-103 -80 -179 -147q-5 -5 -5 -8q0 -5 9 -5q5 0 45 0.5t49 0.5q19 0 26 -20q14 -58 14 -118q0 -8 -6 -13t-15 -5h-29q-45 0 -103 -2.5t-99 -5t-44 -2.5q-19 0 -26 16q-11 24 -22 68.5t-11 61.5q0 16 11 27q23 27 75 77.5
t103 93.5q5 5 5 7q0 4 -7 4q-3 0 -23.5 -1t-46 -2.5t-33.5 -1.5q-18 0 -22 20q-9 56 -9 102q0 8 6.5 15t14.5 8q92 14 292 14q20 0 26 -19z" />
    <glyph glyph-name="braceleft" unicode="{" horiz-adv-x="301" 
d="M360 737q15 -3 15 -20q0 -22 -15 -87q-5 -20 -25 -20q-28 -1 -38 -9t-15 -29q-1 -4 -13 -60t-16 -72q-19 -73 -66 -89q-8 -3 -8 -7q0 -2 5 -7q30 -28 30 -70q0 -23 -12 -85t-12 -67q0 -23 26 -23h19q14 0 14 -17q0 -9 -5.5 -46.5t-7.5 -42.5q-6 -21 -27 -21
q-1 0 -30.5 -1t-38.5 -1q-33 0 -69 38.5t-36 82.5q0 24 13 118.5t13 96.5q0 20 -19 50q-5 8 -5 16q0 11 11 22q55 60 60 83q9 36 15 67.5t8 44.5l2 14q17 84 56 117.5t97 33.5q26 0 74 -10z" />
    <glyph glyph-name="bar" unicode="|" horiz-adv-x="263" 
d="M143 -100q-4 -16 -17 -16q-12 0 -47 11.5t-51 20.5q-14 8 -14 27v4q11 160 68 449t91 377q7 15 25 15q12 0 48.5 -8.5t56.5 -15.5q12 -5 12 -20l-1 -7q-31 -95 -85 -350t-86 -487z" />
    <glyph glyph-name="braceright" unicode="}" horiz-adv-x="321" 
d="M0 -27q-15 3 -15 20q0 22 15 87q5 20 25 20q28 1 38 9t15 29q1 4 13 60t16 72q19 73 66 89q8 3 8 7q0 2 -5 7q-30 28 -30 70q0 23 12 85t12 67q0 23 -26 23h-19q-14 0 -14 17q0 9 5.5 46.5t7.5 42.5q6 21 27 21q1 0 30.5 1t38.5 1q33 0 69 -38.5t36 -82.5
q0 -24 -13 -118.5t-13 -96.5q0 -20 19 -50q5 -8 5 -16q0 -11 -11 -22q-55 -60 -60 -83q-9 -36 -15 -67.5t-8 -44.5l-2 -14q-17 -84 -56 -117.5t-97 -33.5q-26 0 -74 10z" />
    <glyph glyph-name="asciitilde" unicode="~" horiz-adv-x="388" 
d="M325 385q6 3 10 3q8 0 12 -10l22 -76q1 -7 1 -10q0 -17 -7 -25q-45 -53 -96 -53q-26 0 -67.5 14.5t-66.5 14.5q-32 0 -60 -18q-5 -3 -9 -3q-10 0 -13 11l-19 79q-1 6 -1 9q0 14 8 25q45 50 97 50q25 0 64.5 -14.5t65.5 -14.5q30 0 59 18z" />
    <glyph glyph-name="exclamdown" unicode="&#xa1;" horiz-adv-x="240" 
d="M121 -179q-2 -17 -18 -17q-10 0 -56.5 10.5t-66.5 18.5q-16 7 -16 28q8 88 31.5 221t41.5 191q8 17 25 17q15 0 56.5 -11t64.5 -21q12 -4 12 -23v-5q-60 -291 -74 -409zM131 516q120 -6 120 -89q0 -44 -33 -72.5t-81 -28.5q-41 0 -61 26t-20 66q0 47 42 87q11 11 33 11z
" />
    <glyph glyph-name="cent" unicode="&#xa2;" horiz-adv-x="390" 
d="M369 367q-11 -18 -28 -19q-22 -1 -72 -1q-18 2 -18 19q0 3 4 24.5t4 35.5q0 26 -14 26q-20 0 -38 -50t-18 -91q0 -52 37 -52q34 0 95 26q4 2 7 2q9 0 12 -12q13 -55 13 -71q0 -18 -12 -28q-38 -33 -89 -49q-17 -5 -21 -20q-5 -27 -11 -68q-3 -16 -20 -16q-14 0 -68 17
q-16 5 -16 21q0 15 10 65q1 6 1 8q0 12 -10 19q-74 62 -74 149q0 93 46 176t114 83q10 0 15 19q14 53 16 60q5 16 20 16q23 0 75 -19q11 -3 11 -18l-1 -8q-2 -9 -7.5 -31t-6.5 -27q-1 -6 -1 -9q0 -11 13 -18q52 -33 52 -84q0 -28 -20 -75z" />
    <glyph glyph-name="sterling" unicode="&#xa3;" horiz-adv-x="429" 
d="M91 372q1 61 17.5 119t55 102t90.5 44q22 0 63.5 -13.5t81 -42t39.5 -60.5q0 -39 -22 -85q-7 -18 -26 -19q-19 -2 -66 -2q-17 0 -17 20q0 6 3 30t3 36q0 27 -12 27q-20 0 -37.5 -52.5t-17.5 -87.5q0 -16 17 -16h50q19 0 19 -21v-60q-1 -8 -7.5 -14t-14.5 -7t-33 -1.5
t-36 -0.5q-14 0 -20 -16l-11 -29q-2 -8 -2 -9q0 -5 8 -5q5 0 53 2t63 2q22 0 27 -21q13 -55 13 -87q0 -15 -18 -17q-15 -1 -80.5 -5.5t-124 -8.5t-62.5 -4q-19 0 -26 15q-8 17 -17.5 47t-9.5 41t11 23q32 35 32 53q0 12 -9 12q-11 0 -13 18q-1 8 -1 28q0 21 1 29q1 16 18 18
q17 4 18 18z" />
    <glyph glyph-name="currency" unicode="&#xa4;" horiz-adv-x="449" 
d="M283 161q-17 -7 -37 -7q-47 0 -86 21q-4 2 -9 2q-8 0 -14 -6q-9 -9 -23 -24.5t-19 -20.5q-7 -5 -13 -5q-7 0 -11 4q-27 27 -37 41q-4 5 -4 12t5 14q24 26 41 48q7 9 7 16l-2 10q-8 27 -8 59q2 58 29 106q3 9 3 11q0 7 -5 14l-27 33q-4 6 -4 13q0 5 4 11q20 23 50 49
q3 3 8 3q9 0 14 -7l24 -34q5 -9 15 -9l9 2q15 5 39 5q49 0 84 -21q6 -3 9 -3q7 0 14 7q9 10 46 43q6 5 13 5q6 0 11 -5q41 -50 41 -61q0 -8 -7 -15l-43 -47q-7 -7 -7 -15l2 -10q7 -28 7 -52q0 -52 -29 -105q-4 -8 -4 -13q0 -3 5 -13l28 -41q4 -5 4 -13l-4 -12
q-9 -12 -45 -42q-4 -2 -8 -2q-9 0 -14 6q-3 5 -13 18t-15 22q-7 10 -16 10zM224 262q26 0 42 31.5t17 69.5q-2 53 -29 53q-26 0 -43 -34t-17 -71q0 -49 30 -49z" />
    <glyph glyph-name="yen" unicode="&#xa5;" horiz-adv-x="444" 
d="M345 332q-3 -4 -3 -9q0 -9 11 -10h22q14 0 16 -23q1 -8 1 -28q0 -22 -2 -44q-4 -20 -23 -20q-13 1 -62 1q-15 0 -18 -17l-15 -97q-1 -7 -6 -12t-11 -5q-16 0 -52.5 9.5t-49.5 16.5q-18 9 -18 29q0 9 4.5 37t4.5 32q0 11 -16 11h-25q-17 0 -21 20q-2 36 -2 66q0 19 19 22
l44 4q12 1 12 13l-1 6q-55 225 -55 257q0 16 14 21q64 19 107 19q17 0 19 -18q1 -11 5 -50t7.5 -77t7.5 -65q1 -9 4 -9l6 7q16 28 52.5 99t53.5 101q7 10 18 10q12 0 41 -23t46 -43q7 -7 7 -17q0 -8 -5 -15q-75 -114 -137 -199z" />
    <glyph glyph-name="brokenbar" unicode="&#xa6;" horiz-adv-x="256" 
d="M198 261v4q0 17 -14 22q-75 25 -104 25q-17 0 -21 -16q-49 -263 -49 -352q0 -20 16 -27q15 -8 50.5 -17.5t48.5 -9.5q15 0 18 17q30 234 55 354zM221 378q-3 -17 -21 -17q-32 0 -106 22q-13 5 -13 23v4q54 282 84 362q7 15 22 15q13 0 49.5 -8.5t57.5 -15.5q12 -5 12 -19
l-1 -6q-32 -98 -84 -360z" />
    <glyph glyph-name="section" unicode="&#xa7;" horiz-adv-x="454" 
d="M436 268q0 -68 -63 -114q-8 -5 -8 -9t6 -11q23 -31 23 -70q0 -71 -53 -123t-131 -52q-32 0 -84.5 17t-83.5 42q-18 14 -29 32.5t-15.5 33t-8.5 38.5q-1 8 -1 11q0 17 14 23q20 8 52.5 13t43.5 5q17 0 20 -13q7 -23 11.5 -34.5t19.5 -23t37 -11.5q25 0 42 11.5t17 25.5
q0 10 -11.5 20.5t-25 17.5t-37.5 18q-32 15 -49 24.5t-41.5 28.5t-36 44.5t-11.5 58.5q0 54 58 112q8 8 8 14q0 3 -4 11q-22 35 -22 67q0 76 54 149t127 73q37 0 90 -18t97.5 -52.5t44.5 -72.5q0 -40 -27 -94q-6 -16 -22 -17q-30 -5 -93 -5q-20 0 -22 20q0 2 7 31t7 50
q0 37 -33 37q-25 0 -46.5 -36t-21.5 -63q0 -35 59 -64q34 -16 52 -26t43 -28.5t36 -40.5t11 -50zM180 278q0 -19 16 -33t48 -31q10 -6 17 -6q3 0 6 1.5l5 2.5l1 2q16 18 16 35q0 13 -12.5 24t-41.5 29q-5 3 -29 17q-4 2 -7 2q-7 0 -11 -8q-8 -16 -8 -35z" />
    <glyph glyph-name="dieresis" unicode="&#xa8;" horiz-adv-x="387" 
d="M174 719q37 0 60 -21t23 -51q0 -38 -21 -64.5t-65 -26.5q-35 0 -52 21t-17 52q0 48 38 79q13 11 34 11zM360 719q37 0 60 -21t23 -51q0 -38 -21 -64.5t-65 -26.5q-35 0 -52 21t-17 52q0 48 38 79q13 11 34 11z" />
    <glyph glyph-name="copyright" unicode="&#xa9;" horiz-adv-x="749" 
d="M407 -20q-95 0 -174 38.5t-130 118.5t-51 189q0 73 22.5 144.5t63 129.5t104.5 94t139 36q63 0 125.5 -24t115 -68t85.5 -114t33 -153q0 -96 -38 -184t-116 -147.5t-179 -59.5zM373 95q60 0 108 27t76 71t42.5 93t14.5 98q0 104 -55.5 167t-143.5 63q-76 0 -132 -47
t-80.5 -112.5t-24.5 -135.5q0 -102 51 -163t144 -61zM240 315q0 81 42 152t106 71q15 0 37 -4.5t48 -15t44 -31.5t18 -49q0 -27 -17 -61q-9 -16 -27 -19q-14 -2 -48 -2q-16 0 -16 16q0 4 3 23.5t3 28.5q0 19 -10 19q-19 0 -37.5 -42t-18.5 -72q0 -47 39 -47q14 0 43.5 9
t32.5 9q11 0 14 -11q5 -18 5 -48q0 -23 -12 -32q-57 -45 -104 -45q-62 0 -103.5 43t-41.5 108z" />
    <glyph glyph-name="ordfeminine" unicode="&#xaa;" horiz-adv-x="393" 
d="M286 367q-16 4 -18 18l-3 15q-1 6 -5 6l-5 -4q-33 -52 -63 -52q-40 0 -76.5 38t-36.5 90q0 96 43.5 165.5t113.5 69.5q29 0 81.5 -19t86.5 -41q7 -4 7 -18l-1 -6q-34 -131 -39 -263q0 -13 -13 -13q-30 0 -72 14zM59 293q3 16 18 18q58 7 177 7q56 0 85 -3q6 -1 11 -6
t5 -12q0 -36 -6 -78q-2 -15 -19 -15h-257q-14 0 -16 14q-1 8 -1 29q0 28 3 46zM211 457q15 0 38 27q6 6 8 16q1 6 6 31l9.5 47.5t4.5 23.5q0 4 -8 8.5t-12 4.5q-25 0 -40 -45t-15 -83q0 -30 9 -30z" />
    <glyph glyph-name="guillemotleft" unicode="&#xab;" horiz-adv-x="435" 
d="M30 300q-5 7 -5 15q0 9 6 16l136 164q6 7 15 7l12 -5l54 -49q6 -6 6 -15q0 -7 -5 -14l-76 -92q-6 -7 -6 -15l2 -10l41 -98q2 -6 2 -9q0 -12 -10 -17l-50 -25q-4 -2 -9 -2q-13 0 -19 9zM218 300q-5 7 -5 15q0 9 6 16l136 164q6 7 15 7l12 -5l54 -49q6 -6 6 -15
q0 -7 -5 -14l-76 -92q-6 -7 -6 -15l2 -10l41 -98q2 -6 2 -9q0 -12 -10 -17l-50 -25q-4 -2 -9 -2q-13 0 -19 9z" />
    <glyph glyph-name="uni00AD" unicode="&#xad;" horiz-adv-x="385" 
d="M43 332q0 8 7 14.5t15 7.5q61 9 167 9q58 0 95 -5q8 -2 14.5 -9t6.5 -15q0 -45 -9 -108q-4 -18 -24 -18q-25 0 -125 1t-128 1q-8 0 -15 6t-7 13q-1 8 -1 27q0 36 4 76z" />
    <glyph glyph-name="registered" unicode="&#xae;" horiz-adv-x="749" 
d="M302 525q55 20 121 20q53 0 93 -44t40 -93q0 -61 -74 -97q-8 -5 -8 -9q0 -2 2 -6q26 -44 40 -59q5 -4 5 -10q0 -4 -3 -7q-13 -14 -38.5 -30t-40.5 -16q-11 0 -15 6q-23 25 -48 99q-5 8 -8 8q-7 0 -8 -7q-9 -39 -16 -95q-2 -12 -13 -12q-8 0 -34.5 7.5t-34.5 12.5
q-9 6 -9 21q9 105 39 235q2 10 2 18q0 9 -1.5 26t-1.5 20q0 9 11 12zM377 369q0 -10 6 -10q23 0 47 21.5t24 39.5t-12 27t-29 9q-16 0 -19 -13q-1 -3 -5 -20t-7.5 -33t-4.5 -21zM407 -20q-95 0 -174 38.5t-130 118.5t-51 189q0 73 22.5 144.5t63 129.5t104.5 94t139 36
q63 0 125.5 -24t115 -68t85.5 -114t33 -153q0 -96 -38 -184t-116 -147.5t-179 -59.5zM373 95q60 0 108 27t76 71t42.5 93t14.5 98q0 104 -55.5 167t-143.5 63q-76 0 -132 -47t-80.5 -112.5t-24.5 -135.5q0 -102 51 -163t144 -61z" />
    <glyph glyph-name="degree" unicode="&#xb0;" horiz-adv-x="370" 
d="M228 464q26 0 40.5 29.5t14.5 65.5q0 49 -24 49q-25 0 -40.5 -31t-15.5 -67q0 -46 25 -46zM251 357q-17 0 -36.5 4t-43.5 15.5t-42.5 28.5t-31.5 47.5t-13 69.5q0 72 42.5 132t107.5 60q55 0 111.5 -46t56.5 -124q0 -64 -40 -125.5t-111 -61.5z" />
    <glyph glyph-name="plusminus" unicode="&#xb1;" horiz-adv-x="469" 
d="M441 506q18 -2 18 -22q0 -58 -5 -108q-1 -8 -8 -13.5t-15 -5.5t-43.5 0.5t-59.5 0.5q-18 0 -21 -19q-13 -79 -20 -128q-2 -17 -19 -17q-13 0 -50.5 9t-47.5 16q-14 9 -14 32q1 13 3 35.5t4 39t2 17.5q0 16 -15 16h-58q-8 0 -15 6t-8 14q-1 10 -1 34q0 41 3 67q2 21 23 23
l85 5q18 1 22 19q22 92 33 118q7 16 24 16q41 0 99 -21q11 -5 11 -19l-1 -8q-5 -15 -21 -84q-1 -4 -1 -6q0 -13 15 -13q70 -2 81 -4zM19 112q1 8 8 14.5t15 7.5q77 11 228 11q69 0 109 -5q21 -4 21 -24v-12q0 -50 -5 -88q-1 -7 -9.5 -12.5t-16.5 -5.5q-30 0 -163.5 1
t-166.5 1q-8 0 -15 6t-7 13q0 4 -0.5 15.5t-0.5 17.5q0 36 3 60z" />
    <glyph glyph-name="twosuperior" unicode="&#xb2;" horiz-adv-x="353" 
d="M257 418q-7 -5 -7 -6q0 -3 9 -3q2 0 23.5 0.5t28.5 0.5q16 0 20 -18q6 -28 6 -76q0 -8 -5.5 -14t-13.5 -6l-220 -10q-22 0 -28 16q-7 17 -13 48t-6 41q0 16 17 25q55 27 123 80.5t68 94.5q0 16 -12 16q-25 0 -58 -48q-6 -9 -18 -9l-9 2q-45 28 -55 35q-11 8 -11 21
q0 4 2 10q16 35 49.5 65t67.5 30l25 -3q55 -13 101.5 -47t46.5 -87q0 -74 -131 -158z" />
    <glyph glyph-name="threesuperior" unicode="&#xb3;" horiz-adv-x="325" 
d="M176 399q15 0 24.5 9t9.5 23q0 36 -28 36q-1 0 -10.5 -1t-11.5 -1q-15 0 -18 9q-13 33 -13 50q0 13 10 15q53 11 77 20t24 23q0 21 -26 21q-41 0 -80 -25l-3 -1l-3 -1q-7 0 -10 8q-24 56 -24 84q0 10 8 15q19 11 58 21t78 10q58 0 95 -43t37 -84q0 -11 -4 -21t-7.5 -16
t-14 -13.5l-14 -10t-17 -9.5t-14.5 -7q-7 -5 -7 -8q0 -4 6 -8q2 -1 8.5 -6.5t9.5 -8t8.5 -8.5t8.5 -11.5t5 -13.5t2 -17q0 -53 -37 -99t-94 -46q-27 0 -69.5 9.5t-62.5 28.5q-37 33 -37 91q0 15 9 19q6 3 38.5 8.5t39.5 5.5t12 -11q11 -36 37 -36z" />
    <glyph glyph-name="acute" unicode="&#xb4;" horiz-adv-x="257" 
d="M113 653q99 65 133 97q8 8 17 8q8 0 13 -7q29 -41 44 -87q2 -6 2 -11q0 -14 -10 -21q-26 -20 -75.5 -44.5t-81.5 -33.5q-5 -1 -7 -1q-15 0 -22 12q-9 17 -24 57q-1 3 -1 8q0 14 12 23z" />
    <glyph glyph-name="mu" unicode="&#xb5;" horiz-adv-x="491" 
d="M490 474q13 -4 13 -20l-1 -7q-32 -106 -50.5 -228t-21.5 -200q-2 -18 -17 -18q-18 0 -59 11.5t-61 21.5q-8 3 -10 17l-5 33q-2 9 -5 9t-6 -7q-31 -51 -62 -67q-16 -9 -36 -11q-18 -2 -20 -19q-19 -127 -20 -139q-2 -18 -18 -18q-15 0 -55 12.5t-58 22.5q-17 9 -17 30
q13 157 43 327.5t62 265.5q5 14 21 14q12 0 56.5 -15t67.5 -26q12 -6 12 -20l-2 -9q-16 -46 -34.5 -131t-18.5 -123q0 -21 7 -21q31 0 74 63q7 14 7 20q22 148 58 251q5 16 23 16q16 0 63 -12.5t70 -22.5z" />
    <glyph glyph-name="paragraph" unicode="&#xb6;" horiz-adv-x="590" 
d="M526 676q7 14 21 14q8 0 30.5 -6.5t35.5 -12.5q11 -5 11 -20l-1 -8q-29 -89 -73 -296.5t-65 -389.5q-3 -17 -18 -17q-22 0 -58 18q-17 8 -17 29q2 110 51 359.5t83 329.5zM457 654q11 -8 11 -19l-4 -18q-32 -110 -71 -299.5t-57 -360.5q-3 -17 -18 -17q-24 0 -60 17
q-16 8 -16 30q1 28 9 90t15.5 113t7.5 56q0 16 -15 18q-76 11 -123 63.5t-47 130.5q0 96 52.5 176t117.5 80q58 0 113 -19t85 -41z" />
    <glyph glyph-name="periodcentered" unicode="&#xb7;" horiz-adv-x="234" 
d="M116 420q46 0 73 -26t27 -64q0 -42 -25 -69t-67 -27t-62.5 25t-20.5 65q0 50 43 85q13 11 32 11z" />
    <glyph glyph-name="cedilla" unicode="&#xb8;" horiz-adv-x="147" 
d="M20 32h59q23 -22 44 -55t21 -58q0 -35 -56.5 -72t-98.5 -37q-17 0 -24 16q-21 47 -21 65q0 13 14 17q79 21 79 59q0 26 -17 65z" />
    <glyph glyph-name="onesuperior" unicode="&#xb9;" horiz-adv-x="216" 
d="M146 697q8 14 24 14q8 0 39 -6t46 -11q12 -4 12 -20l-1 -7q-50 -163 -76 -360q-1 -7 -6.5 -12.5t-12.5 -5.5q-10 0 -39.5 7t-42.5 13q-14 6 -14 27v4q0 18 13 93t13 77q0 11 -17 22q-10 6 -10 19q0 6 2 12q21 50 70 134z" />
    <glyph glyph-name="ordmasculine" unicode="&#xba;" horiz-adv-x="367" 
d="M240 349q-21 0 -44 6t-50 21t-44.5 47t-17.5 77q0 40 13.5 86.5t47 86.5t78.5 40q54 0 111.5 -41.5t57.5 -111.5q0 -36 -13.5 -81.5t-50.5 -87.5t-88 -42zM219 449q21 0 38.5 44.5t17.5 83.5t-21 39q-19 0 -37.5 -46.5t-18.5 -85.5q0 -35 21 -35zM49 293q3 16 18 18
q58 7 177 7q56 0 85 -3q6 -1 11 -6t5 -12q0 -36 -6 -78q-2 -15 -19 -15h-257q-14 0 -16 14q-1 8 -1 29q0 28 3 46z" />
    <glyph glyph-name="guillemotright" unicode="&#xbb;" horiz-adv-x="437" 
d="M427 353q5 -7 5 -15t-6 -16l-136 -164q-6 -7 -15 -7l-12 5l-54 49q-6 6 -6 15q0 7 5 14l76 92q6 8 6 15l-2 10l-41 98q-2 6 -2 9q0 12 10 17l50 25q4 2 9 2q13 0 19 -9zM239 353q5 -7 5 -15t-6 -16l-136 -164q-6 -7 -15 -7l-12 5l-54 49q-6 6 -6 15q0 7 5 14l76 92
q6 8 6 15l-2 10l-41 98q-2 6 -2 9q0 12 10 17l50 25q4 2 9 2q13 0 19 -9z" />
    <glyph glyph-name="onequarter" unicode="&#xbc;" horiz-adv-x="742" 
d="M668 215l-1 -8q0 -11 8 -11q12 0 14 -17q5 -40 5 -64q0 -18 -17 -20h-16q-15 -1 -19 -21l-7 -57q-1 -7 -6.5 -12t-12.5 -5q-42 0 -86 20q-11 6 -11 24v27q0 13 -15 13q-4 0 -43 -3.5t-47 -3.5q-15 0 -23 14q-14 34 -14 68q0 17 10 31l154 220q8 10 19 10q5 0 14.5 -5
t13.5 -5t7 5q5 7 16 7q29 0 85 -18q12 -3 12 -18l-1 -8q-24 -88 -39 -163zM155 75q47 130 162.5 345t167.5 278q10 12 20 12q7 0 17 -6q40 -27 59 -47q6 -6 6 -16q0 -8 -5 -15q-55 -76 -160.5 -261.5t-178.5 -352.5q-5 -12 -17 -12q-22 0 -65 43q-9 9 -9 19zM485 200
q-3 -5 -3 -8q0 -6 9 -6q13 0 33 2q15 3 18 20q2 11 7 33t8.5 37t3.5 16q0 4 -2 4q-3 0 -7 -6zM161 696q8 14 24 14q8 0 39 -6t46 -11q12 -5 12 -20l-1 -7q-50 -163 -76 -360q-1 -7 -6.5 -12.5t-12.5 -5.5q-10 0 -39.5 7t-42.5 13q-14 6 -14 27v4q0 18 13 93t13 77
q0 11 -17 22q-10 6 -10 19q0 6 2 12q21 50 70 134z" />
    <glyph glyph-name="onehalf" unicode="&#xbd;" horiz-adv-x="781" 
d="M161 696q8 14 24 14q8 0 39 -6t46 -11q12 -5 12 -20l-1 -7q-50 -163 -76 -360q-1 -7 -6.5 -12.5t-12.5 -5.5q-10 0 -39.5 7t-42.5 13q-14 6 -14 27v4q0 18 13 93t13 77q0 11 -17 22q-10 6 -10 19q0 6 2 12q21 50 70 134zM155 75q47 130 162.5 345t167.5 278q10 12 20 12
q7 0 17 -6q40 -27 59 -47q6 -6 6 -16q0 -8 -5 -15q-55 -76 -160.5 -261.5t-178.5 -352.5q-5 -12 -17 -12q-22 0 -65 43q-9 9 -9 19zM622 132q-7 -5 -7 -6q0 -3 9 -3q2 0 23.5 0.5t28.5 0.5q16 0 20 -18q6 -29 6 -76q0 -8 -5.5 -14t-13.5 -6l-220 -10q-22 0 -28 16
q-7 17 -13 48t-6 41q0 16 17 25q55 27 123 80.5t68 94.5q0 16 -12 16q-25 0 -58 -48q-6 -9 -18 -9l-9 2q-45 28 -55 35q-11 8 -11 21q0 4 2 10q16 35 49.5 65t67.5 30l25 -3q55 -13 101.5 -47t46.5 -87q0 -74 -131 -158z" />
    <glyph glyph-name="threequarters" unicode="&#xbe;" horiz-adv-x="830" 
d="M756 215l-1 -8q0 -11 8 -11q12 0 14 -17q5 -40 5 -64q0 -18 -17 -20h-16q-15 -1 -19 -21l-7 -57q-1 -7 -6.5 -12t-12.5 -5q-42 0 -86 20q-11 6 -11 24v27q0 13 -15 13q-4 0 -43 -3.5t-47 -3.5q-15 0 -23 14q-14 34 -14 68q0 17 10 31l154 220q8 10 19 10q5 0 14.5 -5
t13.5 -5t7 5q5 7 16 7q29 0 85 -18q12 -3 12 -18l-1 -8q-24 -88 -39 -163zM243 75q47 130 162.5 345t167.5 278q10 12 20 12q7 0 17 -6q40 -27 59 -47q6 -6 6 -16q0 -8 -5 -15q-55 -76 -160.5 -261.5t-178.5 -352.5q-5 -12 -17 -12q-22 0 -65 43q-9 9 -9 19zM573 200
q-3 -5 -3 -8q0 -6 9 -6q13 0 33 2q15 3 18 20q2 11 7 33t8.5 37t3.5 16q0 4 -2 4q-3 0 -7 -6zM184 399q15 0 24.5 9t9.5 23q0 36 -28 36q-1 0 -10.5 -1t-11.5 -1q-15 0 -18 9q-13 33 -13 50q0 13 10 15q53 11 77 20t24 23q0 21 -26 21q-41 0 -80 -25l-3 -1l-3 -1q-7 0 -10 8
q-24 56 -24 84q0 10 8 15q19 11 58 21t78 10q58 0 95 -43t37 -84q0 -11 -4 -21t-7.5 -16t-14 -13.5l-14 -10t-17 -9.5t-14.5 -7q-7 -5 -7 -8q0 -4 6 -8q2 -1 8.5 -6.5t9.5 -8t8.5 -8.5t8.5 -11.5t5 -13.5t2 -17q0 -53 -37 -99t-94 -46q-27 0 -69.5 9.5t-62.5 28.5
q-37 33 -37 91q0 15 9 19q6 3 38.5 8.5t39.5 5.5t12 -11q11 -36 37 -36z" />
    <glyph glyph-name="questiondown" unicode="&#xbf;" horiz-adv-x="408" 
d="M210 287q8 10 18 10q3 0 9 -2q60 -33 94 -78q7 -9 7 -20q0 -7 -4 -15q-14 -26 -60 -63.5t-83.5 -70t-37.5 -52.5q0 -13 8 -21.5t22 -8.5q23 0 57.5 18t59.5 50q6 8 15 8q7 0 11 -4q41 -35 75 -92q5 -8 5 -18q0 -9 -5 -17q-28 -39 -83 -76.5t-122 -37.5q-84 9 -146 82.5
t-62 160.5q0 38 16 68t43 51.5t55.5 39t59 40.5t48.5 48zM324 316q-51 4 -75.5 31t-24.5 68q0 44 26 72t70 28t65.5 -26t21.5 -67q0 -55 -46 -95q-14 -11 -37 -11z" />
    <glyph glyph-name="Agrave" unicode="&#xc0;" horiz-adv-x="538" 
d="M470 637q16 -8 19 -26q10 -65 10 -282q0 -221 -11 -312q-2 -16 -23 -16q-18 1 -65.5 7.5t-59.5 10.5q-16 5 -16 23l4 100q0 14 -16 14q-5 0 -25 -1t-45.5 -2t-37.5 -1q-15 -1 -23 -19q-9 -21 -24.5 -65.5t-17.5 -49.5q-5 -12 -18 -12q-14 0 -54.5 16t-55.5 27
q-13 7 -13 22l1 9q3 9 12 35.5t13 41.5q2 6 2 12q0 11 -6 42.5t-6 37.5q0 14 13 20q7 2 13 3.5t8 1.5q15 3 25 20q10 21 49 108t73 156t54 93q10 10 19 10q8 0 27 -4t24 -4q9 0 12 13q2 13 12 13q14 0 60 -15.5t67 -26.5zM246 312q-2 -4 -2 -7q0 -9 13 -9q2 0 28 1t30 1
q8 0 12 4t6 14q1 28 1 97v78q0 11 -4 11q-2 0 -5 -6q-13 -28 -41 -94.5t-38 -89.5zM493 778q11 -9 11 -19q0 -5 -4 -11q-26 -43 -32 -51q-8 -10 -20 -10q-4 0 -10 2q-32 14 -77.5 45t-67.5 54q-8 8 -8 19q0 6 4 14q24 42 54 78q4 5 12 5q10 0 15 -7q35 -43 123 -119z" />
    <glyph glyph-name="Aacute" unicode="&#xc1;" horiz-adv-x="538" 
d="M470 637q16 -8 19 -26q10 -65 10 -282q0 -221 -11 -312q-2 -16 -23 -16q-18 1 -65.5 7.5t-59.5 10.5q-16 5 -16 23l4 100q0 14 -16 14q-5 0 -25 -1t-45.5 -2t-37.5 -1q-15 -1 -23 -19q-9 -21 -24.5 -65.5t-17.5 -49.5q-5 -12 -18 -12q-14 0 -54.5 16t-55.5 27
q-13 7 -13 22l1 9q3 9 12 35.5t13 41.5q2 6 2 12q0 11 -6 42.5t-6 37.5q0 14 13 20q7 2 13 3.5t8 1.5q15 3 25 20q10 21 49 108t73 156t54 93q10 10 19 10q8 0 27 -4t24 -4q9 0 12 13q2 13 12 13q14 0 60 -15.5t67 -26.5zM246 312q-2 -4 -2 -7q0 -9 13 -9q2 0 28 1t30 1
q8 0 12 4t6 14q1 28 1 97v78q0 11 -4 11q-2 0 -5 -6q-13 -28 -41 -94.5t-38 -89.5zM284 801q99 65 133 97q8 8 17 8q8 0 13 -7q29 -41 44 -87q2 -6 2 -11q0 -14 -10 -21q-26 -20 -75.5 -44.5t-81.5 -33.5q-5 -1 -7 -1q-15 0 -22 12q-9 17 -24 57q-1 3 -1 8q0 14 12 23z" />
    <glyph glyph-name="Acircumflex" unicode="&#xc2;" horiz-adv-x="538" 
d="M378 746q-6 6 -12 6t-13 -5l-65 -50q-5 -4 -13 -4q-10 0 -16 8q-5 8 -28 48q-3 4 -3 10q0 13 10 21q68 63 132 107q6 4 13 4q10 0 17 -7q26 -23 107 -114q7 -7 7 -17q0 -7 -5 -14q-4 -5 -19 -23.5t-22 -26.5q-5 -5 -14 -5l-14 5q-46 41 -62 57zM470 637q16 -8 19 -26
q10 -65 10 -282q0 -221 -11 -312q-2 -16 -23 -16q-18 1 -65.5 7.5t-59.5 10.5q-16 5 -16 23l4 100q0 14 -16 14q-5 0 -25 -1t-45.5 -2t-37.5 -1q-15 -1 -23 -19q-9 -21 -24.5 -65.5t-17.5 -49.5q-5 -12 -18 -12q-14 0 -54.5 16t-55.5 27q-13 7 -13 22l1 9q3 9 12 35.5
t13 41.5q2 6 2 12q0 11 -6 42.5t-6 37.5q0 14 13 20q7 2 13 3.5t8 1.5q15 3 25 20q10 21 49 108t73 156t54 93q10 10 19 10q8 0 27 -4t24 -4q9 0 12 13q2 13 12 13q14 0 60 -15.5t67 -26.5zM246 312q-2 -4 -2 -7q0 -9 13 -9q2 0 28 1t30 1q8 0 12 4t6 14q1 28 1 97v78
q0 11 -4 11q-2 0 -5 -6q-13 -28 -41 -94.5t-38 -89.5z" />
    <glyph glyph-name="Atilde" unicode="&#xc3;" horiz-adv-x="538" 
d="M447 697q-25 0 -66 21t-62 21q-28 0 -53 -25q-5 -5 -9 -5q-5 0 -7 9l-17 62q-2 8 -2 12q0 15 7 22q45 50 85 50q24 0 60.5 -20.5t56.5 -20.5q28 0 55 27q5 4 9 4q5 0 8 -7l16 -65q2 -8 2 -12q0 -13 -6 -22q-36 -51 -77 -51zM470 637q16 -8 19 -26q10 -65 10 -282
q0 -221 -11 -312q-2 -16 -23 -16q-18 1 -65.5 7.5t-59.5 10.5q-16 5 -16 23l4 100q0 14 -16 14q-5 0 -25 -1t-45.5 -2t-37.5 -1q-15 -1 -23 -19q-9 -21 -24.5 -65.5t-17.5 -49.5q-5 -12 -18 -12q-14 0 -54.5 16t-55.5 27q-13 7 -13 22l1 9q3 9 12 35.5t13 41.5q2 6 2 12
q0 11 -6 42.5t-6 37.5q0 14 13 20q7 2 13 3.5t8 1.5q15 3 25 20q10 21 49 108t73 156t54 93q10 10 19 10q8 0 27 -4t24 -4q9 0 12 13q2 13 12 13q14 0 60 -15.5t67 -26.5zM246 312q-2 -4 -2 -7q0 -9 13 -9q2 0 28 1t30 1q8 0 12 4t6 14q1 28 1 97v78q0 11 -4 11q-2 0 -5 -6
q-13 -28 -41 -94.5t-38 -89.5z" />
    <glyph glyph-name="Adieresis" unicode="&#xc4;" horiz-adv-x="538" 
d="M470 637q16 -8 19 -26q10 -65 10 -282q0 -221 -11 -312q-2 -16 -23 -16q-18 1 -65.5 7.5t-59.5 10.5q-16 5 -16 23l4 100q0 14 -16 14q-5 0 -25 -1t-45.5 -2t-37.5 -1q-15 -1 -23 -19q-9 -21 -24.5 -65.5t-17.5 -49.5q-5 -12 -18 -12q-14 0 -54.5 16t-55.5 27
q-13 7 -13 22l1 9q3 9 12 35.5t13 41.5q2 6 2 12q0 11 -6 42.5t-6 37.5q0 14 13 20q7 2 13 3.5t8 1.5q15 3 25 20q10 21 49 108t73 156t54 93q10 10 19 10q8 0 27 -4t24 -4q9 0 12 13q2 13 12 13q14 0 60 -15.5t67 -26.5zM246 312q-2 -4 -2 -7q0 -9 13 -9q2 0 28 1t30 1
q8 0 12 4t6 14q1 28 1 97v78q0 11 -4 11q-2 0 -5 -6q-13 -28 -41 -94.5t-38 -89.5zM275 870q87 -7 87 -72q0 -38 -22 -64.5t-67 -26.5q-31 0 -48.5 20t-17.5 53q0 49 37 80q12 10 31 10zM461 870q87 -7 87 -72q0 -38 -22 -64.5t-67 -26.5q-31 0 -48.5 20t-17.5 53
q0 49 37 80q12 10 31 10z" />
    <glyph glyph-name="Aring" unicode="&#xc5;" horiz-adv-x="538" 
d="M382 773q14 0 24 14t10 34q0 28 -20 28q-15 0 -24.5 -14t-9.5 -34q0 -28 20 -28zM391 695q-18 0 -36 4.5t-37.5 15.5t-32 34t-12.5 55q0 52 31.5 88.5t79.5 36.5q44 0 81.5 -29.5t37.5 -83.5q0 -46 -29.5 -83.5t-82.5 -37.5zM470 637q16 -8 19 -26q10 -65 10 -282
q0 -221 -11 -312q-2 -16 -23 -16q-18 1 -65.5 7.5t-59.5 10.5q-16 5 -16 23l4 100q0 14 -16 14q-5 0 -25 -1t-45.5 -2t-37.5 -1q-15 -1 -23 -19q-9 -21 -24.5 -65.5t-17.5 -49.5q-5 -12 -18 -12q-14 0 -54.5 16t-55.5 27q-13 7 -13 22l1 9q3 9 12 35.5t13 41.5q2 6 2 12
q0 11 -6 42.5t-6 37.5q0 14 13 20q7 2 13 3.5t8 1.5q15 3 25 20q10 21 49 108t73 156t54 93q10 10 19 10q8 0 27 -4t24 -4q9 0 12 13q2 13 12 13q14 0 60 -15.5t67 -26.5zM246 312q-2 -4 -2 -7q0 -9 13 -9q2 0 28 1t30 1q8 0 12 4t6 14q1 28 1 97v78q0 11 -4 11q-2 0 -5 -6
q-13 -28 -41 -94.5t-38 -89.5z" />
    <glyph glyph-name="AE" unicode="&#xc6;" horiz-adv-x="768" 
d="M514 247q-3 -8 -7.5 -35t-4.5 -32q0 -13 11 -13q3 0 71 5t87 5q20 0 28 -19q8 -20 20 -64.5t12 -54.5q0 -15 -16 -17q-256 -22 -281 -22q-17 0 -30 11q-10 10 -20.5 25.5t-26.5 43t-20 33.5q-6 9 -6 21v6q-3 12 -20 12h-97q-14 -1 -22 -15l-58 -122q-6 -13 -20 -13
t-53 21t-54 35q-9 8 -9 20q0 3 2 9q2 5 11 25t15 36.5t6 26.5q0 12 -3 39.5t-3 32.5q0 16 12 20l29 6q14 2 25 20q17 28 49.5 83t52 87.5t44 72.5t43 66t31.5 40q9 9 20 9q7 0 31.5 -11t29.5 -11q7 0 9 8q0 15 19 21q37 8 125 14.5t163 6.5q50 0 68 -2q21 -2 24 -20
q5 -30 8 -114q0 -17 -18 -19l-206 -11q-14 -1 -20 -15q-2 -5 -6.5 -23.5t-7.5 -33.5t-3 -16q0 -13 14 -13q8 0 62 3t62 3q19 0 25 -20q14 -68 14 -106q0 -17 -20 -17q-78 -4 -168 -12q-17 -1 -23 -16zM334 296q13 0 19 14q18 100 37 185q0 4 -2 4l-6 -7q-81 -138 -104 -181
q-2 -4 -2 -7q0 -9 9 -9q1 0 23 0.5t26 0.5z" />
    <glyph glyph-name="Ccedilla" unicode="&#xc7;" horiz-adv-x="506" 
d="M361 386q-14 0 -14 12q0 1 8 37t8 54q0 45 -26 45q-41 0 -85 -86t-44 -174q0 -55 21 -82t54 -27q52 0 131 52q5 4 13 4q12 0 15 -10q22 -61 30 -93q2 -8 2 -11q0 -12 -9 -21q-91 -85 -171 -87q36 -50 36 -80q0 -35 -56.5 -72t-98.5 -37q-17 0 -24 16q-21 47 -21 65
q0 13 14 17q79 21 79 59q0 17 -9 44q-86 27 -137 89q-44 52 -44 165q0 95 33.5 188.5t98.5 158t143 64.5q30 0 83 -21t99 -59t46 -76q0 -48 -30 -115q-6 -15 -24 -16q-38 -3 -121 -3z" />
    <glyph glyph-name="Egrave" unicode="&#xc8;" horiz-adv-x="456" 
d="M434 797q11 -9 11 -19q0 -5 -4 -11q-26 -43 -32 -51q-8 -10 -20 -10q-4 0 -10 2q-32 14 -77.5 45t-67.5 54q-8 8 -8 19q0 6 4 14q24 42 54 78q4 5 12 5q10 0 15 -7q35 -43 123 -119zM202 247q-3 -8 -7.5 -35t-4.5 -32q0 -13 11 -13q3 0 71 5t87 5q20 0 28 -19
q8 -20 20 -64.5t12 -54.5q0 -15 -16 -17q-256 -22 -281 -22q-17 0 -30 11q-10 10 -20.5 25.5t-26.5 43t-20 33.5q-6 9 -6 21q1 66 30 219t44 204q3 14 3 23q0 4 -0.5 26.5t-0.5 30.5q0 15 19 21q38 8 123.5 14.5t159.5 6.5q50 0 68 -2q21 -2 24 -20q5 -30 8 -114
q0 -17 -18 -19l-206 -11q-14 -1 -20 -15q-2 -5 -6.5 -23.5t-7.5 -33.5t-3 -16q0 -13 14 -13q8 0 62 3t62 3q19 0 25 -20q14 -68 14 -106q0 -17 -20 -17q-78 -4 -168 -12q-17 -1 -23 -16z" />
    <glyph glyph-name="Eacute" unicode="&#xc9;" horiz-adv-x="456" 
d="M271 805q99 65 133 97q8 8 17 8q8 0 13 -7q29 -41 44 -87q2 -6 2 -11q0 -14 -10 -21q-26 -20 -75.5 -44.5t-81.5 -33.5q-5 -1 -7 -1q-15 0 -22 12q-9 17 -24 57q-1 3 -1 8q0 14 12 23zM202 247q-3 -8 -7.5 -35t-4.5 -32q0 -13 11 -13q3 0 71 5t87 5q20 0 28 -19
q8 -20 20 -64.5t12 -54.5q0 -15 -16 -17q-256 -22 -281 -22q-17 0 -30 11q-10 10 -20.5 25.5t-26.5 43t-20 33.5q-6 9 -6 21q1 66 30 219t44 204q3 14 3 23q0 4 -0.5 26.5t-0.5 30.5q0 15 19 21q38 8 123.5 14.5t159.5 6.5q50 0 68 -2q21 -2 24 -20q5 -30 8 -114
q0 -17 -18 -19l-206 -11q-14 -1 -20 -15q-2 -5 -6.5 -23.5t-7.5 -33.5t-3 -16q0 -13 14 -13q8 0 62 3t62 3q19 0 25 -20q14 -68 14 -106q0 -17 -20 -17q-78 -4 -168 -12q-17 -1 -23 -16z" />
    <glyph glyph-name="Ecircumflex" unicode="&#xca;" horiz-adv-x="456" 
d="M338 766q-6 6 -12 6t-13 -5l-65 -50q-5 -4 -13 -4q-10 0 -16 8q-5 8 -28 48q-3 5 -3 10q0 13 10 21q68 63 132 107q6 4 13 4q10 0 17 -7q26 -23 107 -114q7 -7 7 -17q0 -7 -5 -14q-4 -5 -19 -23.5t-22 -26.5q-5 -5 -14 -5l-14 5q-46 41 -62 57zM202 247q-3 -8 -7.5 -35
t-4.5 -32q0 -13 11 -13q3 0 71 5t87 5q20 0 28 -19q8 -20 20 -64.5t12 -54.5q0 -15 -16 -17q-256 -22 -281 -22q-17 0 -30 11q-10 10 -20.5 25.5t-26.5 43t-20 33.5q-6 9 -6 21q1 66 30 219t44 204q3 14 3 23q0 4 -0.5 26.5t-0.5 30.5q0 15 19 21q38 8 123.5 14.5t159.5 6.5
q50 0 68 -2q21 -2 24 -20q5 -30 8 -114q0 -17 -18 -19l-206 -11q-14 -1 -20 -15q-2 -5 -6.5 -23.5t-7.5 -33.5t-3 -16q0 -13 14 -13q8 0 62 3t62 3q19 0 25 -20q14 -68 14 -106q0 -17 -20 -17q-78 -4 -168 -12q-17 -1 -23 -16z" />
    <glyph glyph-name="Edieresis" unicode="&#xcb;" horiz-adv-x="467" 
d="M231 875q87 -7 87 -72q0 -38 -22 -64.5t-67 -26.5q-31 0 -48.5 20t-17.5 53q0 49 37 80q12 10 31 10zM417 875q87 -7 87 -72q0 -38 -22 -64.5t-67 -26.5q-31 0 -48.5 20t-17.5 53q0 49 37 80q12 10 31 10zM202 247q-3 -8 -7.5 -35t-4.5 -32q0 -13 11 -13q3 0 71 5t87 5
q20 0 28 -19q8 -20 20 -64.5t12 -54.5q0 -15 -16 -17q-256 -22 -281 -22q-17 0 -30 11q-10 10 -20.5 25.5t-26.5 43t-20 33.5q-6 9 -6 21q1 66 30 219t44 204q3 14 3 23q0 4 -0.5 26.5t-0.5 30.5q0 15 19 21q38 8 123.5 14.5t159.5 6.5q50 0 68 -2q21 -2 24 -20
q5 -30 8 -114q0 -17 -18 -19l-206 -11q-14 -1 -20 -15q-2 -5 -6.5 -23.5t-7.5 -33.5t-3 -16q0 -13 14 -13q8 0 62 3t62 3q19 0 25 -20q14 -68 14 -106q0 -17 -20 -17q-78 -4 -168 -12q-17 -1 -23 -16z" />
    <glyph glyph-name="Igrave" unicode="&#xcc;" horiz-adv-x="234" 
d="M168 18q-2 -15 -17 -15q-19 0 -63.5 12t-59.5 19q-15 6 -15 27q1 106 41 317.5t71 281.5q5 14 21 14q24 0 129 -35q14 -5 14 -19l-1 -5q-27 -79 -64 -257t-56 -340zM343 774q11 -9 11 -19q0 -5 -4 -11q-26 -43 -32 -51q-8 -10 -20 -10q-4 0 -10 2q-32 14 -77.5 45
t-67.5 54q-8 8 -8 19q0 6 4 14q24 42 54 78q4 5 12 5q10 0 15 -7q35 -43 123 -119z" />
    <glyph glyph-name="Iacute" unicode="&#xcd;" horiz-adv-x="234" 
d="M168 18q-2 -15 -17 -15q-19 0 -63.5 12t-59.5 19q-15 6 -15 27q1 106 41 317.5t71 281.5q5 14 21 14q24 0 129 -35q14 -5 14 -19l-1 -5q-27 -79 -64 -257t-56 -340zM140 794q99 65 133 97q8 8 17 8q8 0 13 -7q29 -41 44 -87q2 -6 2 -11q0 -14 -10 -21
q-26 -20 -75.5 -44.5t-81.5 -33.5q-5 -1 -7 -1q-15 0 -22 12q-9 17 -24 57q-1 3 -1 8q0 14 12 23z" />
    <glyph glyph-name="Icircumflex" unicode="&#xce;" horiz-adv-x="234" 
d="M168 18q-2 -15 -17 -15q-19 0 -63.5 12t-59.5 19q-15 6 -15 27q1 106 41 317.5t71 281.5q5 14 21 14q24 0 129 -35q14 -5 14 -19l-1 -5q-27 -79 -64 -257t-56 -340zM237 748q-7 7 -12 7q-8 0 -13 -4l-69 -46q-5 -4 -12 -4q-5 0 -9 2.5t-6 4.5l-2 3q-18 36 -24 50
q-3 7 -3 12q1 10 12 19q62 50 139 97q5 3 14 3q8 -1 15 -8q14 -14 32 -36t40.5 -51.5t26.5 -34.5q7 -9 7 -17l-7 -14q-3 -3 -19.5 -21t-24.5 -25q-6 -5 -14 -5q-3 0 -6.5 2t-5.5 4l-1 1q-44 43 -58 61z" />
    <glyph glyph-name="Idieresis" unicode="&#xcf;" horiz-adv-x="234" 
d="M168 18q-2 -15 -17 -15q-19 0 -63.5 12t-59.5 19q-15 6 -15 27q1 106 41 317.5t71 281.5q5 14 21 14q24 0 129 -35q14 -5 14 -19l-1 -5q-27 -79 -64 -257t-56 -340zM130 870q87 -7 87 -72q0 -38 -22 -64.5t-67 -26.5q-31 0 -48.5 20t-17.5 53q0 49 37 80q12 10 31 10z
M316 870q87 -7 87 -72q0 -38 -22 -64.5t-67 -26.5q-31 0 -48.5 20t-17.5 53q0 49 37 80q12 10 31 10z" />
    <glyph glyph-name="Eth" unicode="&#xd0;" horiz-adv-x="596" 
d="M238 1q-28 0 -46 9q-22 11 -62 46t-66 65q-7 7 -7 22q0 48 17 147h-23q-8 0 -14 5.5t-7 12.5q-1 10 -1 38q0 34 2 47q1 8 8 15t14 8h44q19 94 29 129q2 10 2 17q0 6 -0.5 26.5t-0.5 24.5q0 17 13 22q103 44 178 44q109 0 196 -96t87 -208q0 -144 -108 -255.5t-255 -118.5
zM239 173q79 0 138 76t59 175q0 48 -31.5 77.5t-75.5 29.5q-29 0 -34 -20q-12 -48 -22 -93h51q16 -2 16 -22v-14q0 -44 -6 -73q-3 -16 -25 -18h-63q-10 -50 -18 -106v-2q0 -10 11 -10z" />
    <glyph glyph-name="Ntilde" unicode="&#xd1;" horiz-adv-x="535" 
d="M429 700q-25 0 -66 21t-62 21q-28 0 -53 -25q-5 -5 -9 -5q-5 0 -7 9l-17 62q-2 8 -2 12q0 15 7 22q45 50 85 50q24 0 60.5 -20.5t56.5 -20.5q28 0 55 27q5 4 9 4q5 0 8 -7l16 -65q2 -8 2 -12q0 -13 -6 -22q-36 -51 -77 -51zM427 660q4 13 22 13q14 0 63 -12.5t65 -19.5
q13 -7 13 -20l-1 -6q-28 -88 -66 -263.5t-55 -333.5q-2 -16 -19 -16q-21 0 -80.5 11t-82.5 21q-16 7 -22 26q-6 16 -12 62t-9.5 88t-8.5 98.5t-6 67.5q0 7 -4 7q-3 0 -4 -7q-33 -183 -52 -357q-2 -17 -19 -17q-13 0 -57 12t-62 20q-17 7 -17 28q4 103 45.5 314t70.5 283
q6 15 23 15t78 -11t87 -21q19 -9 21 -27q2 -27 5 -82.5t5.5 -117.5t3.5 -80q0 -8 4 -8q2 0 4 8q31 231 67 325z" />
    <glyph glyph-name="Ograve" unicode="&#xd2;" horiz-adv-x="569" 
d="M493 768q11 -9 11 -19q0 -5 -4 -11q-26 -43 -32 -51q-8 -10 -20 -10q-4 0 -10 2q-32 14 -77.5 45t-67.5 54q-8 8 -8 19q0 6 4 14q24 42 54 78q4 5 12 5q10 0 15 -7q35 -43 123 -119zM343 531q-50 0 -92.5 -88t-42.5 -182q0 -112 63 -112q52 0 91 89t40 194q0 44 -16 71.5
t-43 27.5zM291 -1q-57 0 -123 31.5t-93 71.5q-42 59 -42 167q0 40 9.5 90.5t31.5 106.5t52.5 102t78.5 76.5t104 30.5q42 0 122 -36t107 -78q36 -58 36 -156q0 -57 -17 -123.5t-49 -131.5t-89 -108t-128 -43z" />
    <glyph glyph-name="Oacute" unicode="&#xd3;" horiz-adv-x="569" 
d="M317 791q99 65 133 97q8 8 17 8q8 0 13 -7q29 -41 44 -87q2 -6 2 -11q0 -14 -10 -21q-26 -20 -75.5 -44.5t-81.5 -33.5q-5 -1 -7 -1q-15 0 -22 12q-9 17 -24 57q-1 3 -1 8q0 14 12 23zM343 531q-50 0 -92.5 -88t-42.5 -182q0 -112 63 -112q52 0 91 89t40 194
q0 44 -16 71.5t-43 27.5zM291 -1q-57 0 -123 31.5t-93 71.5q-42 59 -42 167q0 40 9.5 90.5t31.5 106.5t52.5 102t78.5 76.5t104 30.5q42 0 122 -36t107 -78q36 -58 36 -156q0 -57 -17 -123.5t-49 -131.5t-89 -108t-128 -43z" />
    <glyph glyph-name="Ocircumflex" unicode="&#xd4;" horiz-adv-x="569" 
d="M403 741q-7 7 -12 7q-8 0 -13 -4l-69 -46q-5 -4 -12 -4q-5 0 -9 2.5t-6 5.5l-2 2q-18 36 -24 50q-3 8 -3 12q1 10 12 19q62 50 139 97q5 3 14 3q8 -1 15 -8q14 -14 32 -36t40.5 -51.5t26.5 -34.5q7 -9 7 -17l-7 -14q-3 -3 -19.5 -21t-24.5 -25q-6 -5 -14 -5
q-3 0 -6.5 1.5t-5.5 3.5l-1 2q-44 43 -58 61zM343 531q-50 0 -92.5 -88t-42.5 -182q0 -112 63 -112q52 0 91 89t40 194q0 44 -16 71.5t-43 27.5zM291 -1q-57 0 -123 31.5t-93 71.5q-42 59 -42 167q0 40 9.5 90.5t31.5 106.5t52.5 102t78.5 76.5t104 30.5q42 0 122 -36
t107 -78q36 -58 36 -156q0 -57 -17 -123.5t-49 -131.5t-89 -108t-128 -43z" />
    <glyph glyph-name="Otilde" unicode="&#xd5;" horiz-adv-x="569" 
d="M449 689q-25 0 -66 21t-62 21q-28 0 -53 -25q-5 -5 -9 -5q-5 0 -7 9l-17 62q-2 8 -2 12q0 15 7 22q45 50 85 50q24 0 60.5 -20.5t56.5 -20.5q28 0 55 27q5 4 9 4q5 0 8 -7l16 -65q2 -8 2 -12q0 -13 -6 -22q-36 -51 -77 -51zM343 531q-50 0 -92.5 -88t-42.5 -182
q0 -112 63 -112q52 0 91 89t40 194q0 44 -16 71.5t-43 27.5zM291 -1q-57 0 -123 31.5t-93 71.5q-42 59 -42 167q0 40 9.5 90.5t31.5 106.5t52.5 102t78.5 76.5t104 30.5q42 0 122 -36t107 -78q36 -58 36 -156q0 -57 -17 -123.5t-49 -131.5t-89 -108t-128 -43z" />
    <glyph glyph-name="Odieresis" unicode="&#xd6;" horiz-adv-x="569" 
d="M286 867q87 -7 87 -72q0 -38 -22 -64.5t-67 -26.5q-31 0 -48.5 20t-17.5 53q0 49 37 80q12 10 31 10zM472 865q87 -7 87 -72q0 -38 -22 -64.5t-67 -26.5q-31 0 -48.5 20t-17.5 53q0 49 37 80q12 10 31 10zM343 531q-50 0 -92.5 -88t-42.5 -182q0 -112 63 -112q52 0 91 89
t40 194q0 44 -16 71.5t-43 27.5zM291 -1q-57 0 -123 31.5t-93 71.5q-42 59 -42 167q0 40 9.5 90.5t31.5 106.5t52.5 102t78.5 76.5t104 30.5q42 0 122 -36t107 -78q36 -58 36 -156q0 -57 -17 -123.5t-49 -131.5t-89 -108t-128 -43z" />
    <glyph glyph-name="multiply" unicode="&#xd7;" horiz-adv-x="411" 
d="M413 422q2 -5 2 -9q0 -11 -9 -19q-79 -62 -109 -89q-7 -6 -7 -13l4 -11q35 -54 67 -96q6 -8 6 -16q0 -7 -5 -14q-33 -35 -65 -59q-5 -4 -13 -4q-10 0 -17 6q-24 22 -73 92q-5 6 -10 6q-6 0 -10 -4q-80 -70 -102 -92q-6 -6 -13 -6q-9 0 -14 7q-22 34 -31 61q-2 8 -2 12
q0 12 9 22l84 89q7 9 7 15t-3 11q-9 16 -48 91q-3 6 -3 12q0 13 9 22q39 43 85 73q4 3 9 3q10 0 17 -12q30 -66 39 -84q5 -8 9 -8q3 0 10 5q74 72 100 93q5 4 10 4q8 0 16 -9q28 -35 51 -79z" />
    <glyph glyph-name="Oslash" unicode="&#xd8;" horiz-adv-x="569" 
d="M541 560l5 -14q28 -55 28 -141q0 -57 -17 -123.5t-49 -131.5t-89 -108t-128 -43q-13 0 -43 5.5t-32 5.5q-9 0 -16 -11q-9 -14 -25 -37t-19 -28q-5 -10 -16 -10q-7 0 -13 4q-48 31 -79 69q-6 6 -6 17q0 8 5 18q4 8 13 23t13 22q4 8 4 14t-6 16q-38 59 -38 162
q0 40 9.5 90.5t31.5 106.5t52.5 102t78.5 76.5t104 30.5q29 0 87 -21q3 -1 7 -1q3 0 6.5 3t5.5 6l2 3q48 64 49 65q8 10 18 10l11 -3q19 -11 47.5 -34.5t43.5 -39.5q7 -9 7 -15q0 -7 -5 -14q-4 -6 -19 -26.5t-24 -34.5q-4 -5 -4 -13zM343 531q-50 0 -92.5 -88t-42.5 -182
q0 -112 63 -112q52 0 91 89t40 194q0 44 -16 71.5t-43 27.5z" />
    <glyph glyph-name="Ugrave" unicode="&#xd9;" horiz-adv-x="527" 
d="M458 775q11 -9 11 -19q0 -5 -4 -11q-26 -43 -32 -51q-8 -10 -20 -10q-4 0 -10 2q-32 14 -77.5 45t-67.5 54q-8 8 -8 19q0 6 4 14q24 42 54 78q4 5 12 5q10 0 15 -7q35 -43 123 -119zM532 631q20 -8 20 -25v-16q0 -54 -8.5 -125t-29 -154t-50 -151t-77 -114t-103.5 -46
q-51 0 -117.5 26.5t-96.5 66.5q-34 47 -34 133q0 113 31.5 240t61.5 185q11 18 28 18q14 0 55 -11t65 -21q13 -5 13 -18l-2 -8q-30 -85 -57 -209.5t-27 -180.5q0 -32 11 -51t30 -19q27 0 45.5 35t37.5 104q42 154 67 356q3 16 18 16q11 0 56.5 -12.5t62.5 -18.5z" />
    <glyph glyph-name="Uacute" unicode="&#xda;" horiz-adv-x="527" 
d="M273 781q99 65 133 97q8 8 17 8q8 0 13 -7q29 -41 44 -87q2 -6 2 -11q0 -14 -10 -21q-26 -20 -75.5 -44.5t-81.5 -33.5q-5 -1 -7 -1q-15 0 -22 12q-9 17 -24 57q-1 3 -1 8q0 14 12 23zM532 631q20 -8 20 -25v-16q0 -54 -8.5 -125t-29 -154t-50 -151t-77 -114t-103.5 -46
q-51 0 -117.5 26.5t-96.5 66.5q-34 47 -34 133q0 113 31.5 240t61.5 185q11 18 28 18q14 0 55 -11t65 -21q13 -5 13 -18l-2 -8q-30 -85 -57 -209.5t-27 -180.5q0 -32 11 -51t30 -19q27 0 45.5 35t37.5 104q42 154 67 356q3 16 18 16q11 0 56.5 -12.5t62.5 -18.5z" />
    <glyph glyph-name="Ucircumflex" unicode="&#xdb;" horiz-adv-x="527" 
d="M358 746q-6 6 -12 6t-13 -5l-65 -50q-5 -4 -13 -4q-10 0 -16 8q-5 8 -28 48q-3 4 -3 10q0 13 10 21q68 63 132 107q6 4 13 4q10 0 17 -7q26 -23 107 -114q7 -7 7 -17q0 -7 -5 -14q-4 -5 -19 -23.5t-22 -26.5q-5 -5 -14 -5l-14 5q-46 41 -62 57zM532 631q20 -8 20 -25v-16
q0 -54 -8.5 -125t-29 -154t-50 -151t-77 -114t-103.5 -46q-51 0 -117.5 26.5t-96.5 66.5q-34 47 -34 133q0 113 31.5 240t61.5 185q11 18 28 18q14 0 55 -11t65 -21q13 -5 13 -18l-2 -8q-30 -85 -57 -209.5t-27 -180.5q0 -32 11 -51t30 -19q27 0 45.5 35t37.5 104
q42 154 67 356q3 16 18 16q11 0 56.5 -12.5t62.5 -18.5z" />
    <glyph glyph-name="Udieresis" unicode="&#xdc;" horiz-adv-x="527" 
d="M250 864q87 -7 87 -72q0 -38 -22 -64.5t-67 -26.5q-31 0 -48.5 20t-17.5 53q0 49 37 80q12 10 31 10zM436 864q87 -7 87 -72q0 -38 -22 -64.5t-67 -26.5q-31 0 -48.5 20t-17.5 53q0 49 37 80q12 10 31 10zM532 631q20 -8 20 -25v-16q0 -54 -8.5 -125t-29 -154t-50 -151
t-77 -114t-103.5 -46q-51 0 -117.5 26.5t-96.5 66.5q-34 47 -34 133q0 113 31.5 240t61.5 185q11 18 28 18q14 0 55 -11t65 -21q13 -5 13 -18l-2 -8q-30 -85 -57 -209.5t-27 -180.5q0 -32 11 -51t30 -19q27 0 45.5 35t37.5 104q42 154 67 356q3 16 18 16q11 0 56.5 -12.5
t62.5 -18.5z" />
    <glyph glyph-name="Yacute" unicode="&#xdd;" horiz-adv-x="521" 
d="M287 783q99 65 133 97q8 8 17 8q8 0 13 -7q29 -41 44 -87q2 -6 2 -11q0 -14 -10 -21q-26 -20 -75.5 -44.5t-81.5 -33.5q-5 -1 -7 -1q-15 0 -22 12q-9 17 -24 57q-1 3 -1 8q0 14 12 23zM425 659q5 13 18 13q15 0 66 -26t68 -40q10 -9 10 -20q0 -4 -2 -10
q-47 -132 -143 -302.5t-176 -264.5q-7 -9 -20 -9q-4 0 -10 2q-69 26 -123 62q-6 4 -6 13l6 14q66 83 95 125q3 4 3 8q0 8 -12 12q-23 9 -26 11q-16 6 -22 25q-46 153 -62 360q0 18 18 23q25 6 72.5 11.5t66.5 5.5q15 0 17 -18q5 -148 28 -273q1 -9 5 -9q3 0 6 6
q67 133 123 281z" />
    <glyph glyph-name="Thorn" unicode="&#xde;" horiz-adv-x="527" 
d="M314 625q95 -19 160.5 -96.5t65.5 -159.5q0 -102 -91.5 -182.5t-183.5 -80.5q-23 0 -60 20q-3 2 -7 2q-10 0 -11 -11q-5 -28 -14 -97q-2 -17 -18 -17q-12 0 -58.5 13.5t-67.5 26.5q-14 9 -14 32q11 156 63 392q1 5 1 19t-3 46t-3 37q0 17 13 22q25 9 29 24q16 56 26 79
q7 15 23 15q13 0 59.5 -10t70.5 -20q9 -6 9 -18q0 -1 -1.5 -11t-1.5 -12q0 -11 14 -13zM211 269q-1 -4 -1 -7q0 -10 10 -10q51 0 101 52.5t50 103.5q0 33 -23 51t-58 18q-31 0 -37 -19z" />
    <glyph glyph-name="germandbls" unicode="&#xdf;" horiz-adv-x="522" 
d="M1 72q20 187 72 398q57 243 189 243q78 0 162.5 -59.5t82.5 -130.5q0 -14 -4 -27.5t-12.5 -26t-15.5 -22.5t-20 -21.5t-19.5 -17.5t-20 -17t-16.5 -13q-6 -6 -8 -14.5t4 -14.5q7 -9 37.5 -35t51 -54.5t20.5 -61.5q-1 -32 -19 -76.5t-57.5 -83.5t-86.5 -39q-65 0 -137 52
q-6 5 -9 14t0 16q14 49 33 96q5 14 19 4q29 -25 60 -25q33 0 33 24q0 11 -15 26t-33 30t-33 42t-14 59q0 35 22 68.5t44 61t22 48.5q0 37 -28 37q-35 0 -69 -116q-45 -169 -80 -417q-2 -8 -8.5 -13.5t-13.5 -4.5q-62 8 -118 41q-17 10 -15 30z" />
    <glyph glyph-name="agrave" unicode="&#xe0;" horiz-adv-x="479" 
d="M308 25q-20 6 -24 27l-3 33q0 8 -4 8q-3 0 -6 -6q-51 -87 -99 -87q-54 0 -105.5 55.5t-51.5 125.5q0 49 12 103.5t36.5 108t70 88.5t103.5 35q40 0 112 -27.5t124 -61.5q12 -8 12 -21l-1 -8q-51 -185 -56 -379q-2 -17 -17 -17q-21 0 -103 23zM258 193q9 9 11 20
q3 21 8 44.5t11 51.5t9 43v5q0 21 -24 21q-38 0 -62.5 -62.5t-24.5 -115.5q0 -42 14 -42q21 0 58 35zM416 612q11 -9 11 -19q0 -5 -4 -11q-26 -43 -32 -51q-8 -10 -20 -10q-4 0 -10 2q-32 14 -77.5 45t-67.5 54q-8 8 -8 19q0 6 4 14q24 42 54 78q4 5 12 5q10 0 15 -7
q35 -43 123 -119z" />
    <glyph glyph-name="aacute" unicode="&#xe1;" horiz-adv-x="479" 
d="M308 25q-20 6 -24 27l-3 33q0 8 -4 8q-3 0 -6 -6q-51 -87 -99 -87q-54 0 -105.5 55.5t-51.5 125.5q0 49 12 103.5t36.5 108t70 88.5t103.5 35q40 0 112 -27.5t124 -61.5q12 -8 12 -21l-1 -8q-51 -185 -56 -379q-2 -17 -17 -17q-21 0 -103 23zM258 193q9 9 11 20
q3 21 8 44.5t11 51.5t9 43v5q0 21 -24 21q-38 0 -62.5 -62.5t-24.5 -115.5q0 -42 14 -42q21 0 58 35zM242 644q99 65 133 97q8 8 17 8q8 0 13 -7q29 -41 44 -87q2 -6 2 -11q0 -14 -10 -21q-26 -20 -75.5 -44.5t-81.5 -33.5q-5 -1 -7 -1q-15 0 -22 12q-9 17 -24 57q-1 3 -1 8
q0 14 12 23z" />
    <glyph glyph-name="acircumflex" unicode="&#xe2;" horiz-adv-x="479" 
d="M308 25q-20 6 -24 27l-3 33q0 8 -4 8q-3 0 -6 -6q-51 -87 -99 -87q-54 0 -105.5 55.5t-51.5 125.5q0 49 12 103.5t36.5 108t70 88.5t103.5 35q40 0 112 -27.5t124 -61.5q12 -8 12 -21l-1 -8q-51 -185 -56 -379q-2 -17 -17 -17q-21 0 -103 23zM258 193q9 9 11 20
q3 21 8 44.5t11 51.5t9 43v5q0 21 -24 21q-38 0 -62.5 -62.5t-24.5 -115.5q0 -42 14 -42q21 0 58 35zM325 595q-6 6 -12 6t-13 -5l-65 -50q-5 -4 -13 -4q-10 0 -16 8q-5 8 -28 48q-3 4 -3 10q0 13 10 21q68 63 132 107q6 4 13 4q10 0 17 -7q26 -23 107 -114q7 -7 7 -17
q0 -7 -5 -14q-4 -5 -19 -23.5t-22 -26.5q-5 -5 -14 -5l-14 5q-46 41 -62 57z" />
    <glyph glyph-name="atilde" unicode="&#xe3;" horiz-adv-x="479" 
d="M308 25q-20 6 -24 27l-3 33q0 8 -4 8q-3 0 -6 -6q-51 -87 -99 -87q-54 0 -105.5 55.5t-51.5 125.5q0 49 12 103.5t36.5 108t70 88.5t103.5 35q40 0 112 -27.5t124 -61.5q12 -8 12 -21l-1 -8q-51 -185 -56 -379q-2 -17 -17 -17q-21 0 -103 23zM258 193q9 9 11 20
q3 21 8 44.5t11 51.5t9 43v5q0 21 -24 21q-38 0 -62.5 -62.5t-24.5 -115.5q0 -42 14 -42q21 0 58 35zM374 536q-24 0 -65 21t-63 21q-28 0 -53 -25q-5 -5 -9 -5q-6 0 -7 9l-17 62q-2 8 -2 12q0 15 7 22q45 50 85 50q24 0 60.5 -20.5t56.5 -20.5q28 0 55 27q5 4 9 4q5 0 8 -7
l16 -65q2 -8 2 -12q0 -13 -6 -22q-36 -51 -77 -51z" />
    <glyph glyph-name="adieresis" unicode="&#xe4;" 
d="M308 25q-20 6 -24 27l-3 33q0 8 -4 8q-3 0 -6 -6q-51 -87 -99 -87q-54 0 -105.5 55.5t-51.5 125.5q0 49 12 103.5t36.5 108t70 88.5t103.5 35q40 0 112 -27.5t124 -61.5q12 -8 12 -21l-1 -8q-51 -185 -56 -379q-2 -17 -17 -17q-21 0 -103 23zM258 193q9 9 11 20
q3 21 8 44.5t11 51.5t9 43v5q0 21 -24 21q-38 0 -62.5 -62.5t-24.5 -115.5q0 -42 14 -42q21 0 58 35zM212 705q87 -7 87 -72q0 -38 -22 -64.5t-67 -26.5q-31 0 -48.5 20t-17.5 53q0 49 37 80q12 10 31 10zM398 705q87 -7 87 -72q0 -38 -22 -64.5t-67 -26.5q-31 0 -48.5 20
t-17.5 53q0 49 37 80q12 10 31 10z" />
    <glyph glyph-name="aring" unicode="&#xe5;" horiz-adv-x="479" 
d="M308 25q-20 6 -24 27l-3 33q0 8 -4 8q-3 0 -6 -6q-51 -87 -99 -87q-54 0 -105.5 55.5t-51.5 125.5q0 49 12 103.5t36.5 108t70 88.5t103.5 35q40 0 112 -27.5t124 -61.5q12 -8 12 -21l-1 -8q-51 -185 -56 -379q-2 -17 -17 -17q-21 0 -103 23zM258 193q9 9 11 20
q3 21 8 44.5t11 51.5t9 43v5q0 21 -24 21q-38 0 -62.5 -62.5t-24.5 -115.5q0 -42 14 -42q21 0 58 35zM315 608q14 0 24 14t10 34q0 28 -20 28q-15 0 -24.5 -14t-9.5 -34q0 -28 20 -28zM324 530q-18 0 -36 4.5t-37.5 15.5t-32 34t-12.5 55q0 52 31.5 88.5t79.5 36.5
q44 0 81.5 -29.5t37.5 -83.5q0 -45 -29.5 -83t-82.5 -38z" />
    <glyph glyph-name="ae" unicode="&#xe6;" horiz-adv-x="679" 
d="M433 192q0 -18 12 -30.5t35 -12.5q28 0 68.5 13t42.5 13q12 0 17 -12q6 -12 14 -40.5t8 -36.5q0 -15 -11 -26q-20 -21 -62 -40.5t-78 -19.5q-45 0 -98.5 24.5t-85.5 68.5q-26 -46 -58.5 -69.5t-56.5 -23.5q-55 0 -110 54.5t-55 129.5q0 88 23.5 162t73.5 122t118 48
q23 0 61 -14t69 -35q47 50 102 50q42 0 104 -28.5t85 -53.5q31 -34 31 -72q0 -67 -53.5 -115t-135.5 -48q-9 0 -27 1.5t-20 1.5q-13 0 -13 -11zM197 150q10 0 32.5 12.5t35.5 27.5v26q0 71 32 149q-15 15 -29 15q-36 0 -61 -66.5t-25 -121.5q0 -42 15 -42zM516 402
q-19 0 -42 -42.5t-23 -60.5q0 -12 10 -12q29 0 51 28.5t22 58.5q0 28 -18 28z" />
    <glyph glyph-name="ccedilla" unicode="&#xe7;" horiz-adv-x="426" 
d="M279 271q-16 2 -16 17q0 2 6.5 32.5t6.5 42.5q0 27 -14 27q-23 0 -50 -62.5t-27 -112.5q0 -32 11 -46.5t36 -14.5q28 0 67.5 14t41.5 14q12 0 17 -12q6 -12 15 -42t9 -38q0 -19 -11 -30q-20 -21 -60 -40.5t-76 -19.5q36 -50 36 -80q0 -35 -56.5 -72t-98.5 -37
q-17 0 -24 16q-21 47 -21 65q0 14 14 17q79 21 79 59q0 19 -9 46q-70 26 -107 78q-31 41 -31 124q0 66 25 134.5t72.5 117.5t103.5 49q13 0 45.5 -9.5t70 -26t65.5 -44.5t28 -58q0 -37 -29 -87q-8 -19 -27 -19q-28 -2 -92 -2z" />
    <glyph glyph-name="egrave" unicode="&#xe8;" horiz-adv-x="431" 
d="M386 610q11 -9 11 -19q0 -5 -4 -11q-26 -43 -32 -51q-8 -10 -20 -10q-4 0 -10 2q-32 14 -77.5 45t-67.5 54q-8 8 -8 19q0 6 4 14q24 42 54 78q4 5 12 5q10 0 15 -7q35 -43 123 -119zM185 192q0 -18 12 -30.5t35 -12.5q28 0 68.5 13t42.5 13q12 0 17 -12q6 -12 14 -40.5
t8 -36.5q0 -15 -11 -26q-20 -21 -62 -40.5t-78 -19.5q-45 0 -98 24t-85 68q-31 41 -31 124q0 58 22.5 126t70 121.5t104.5 53.5q42 0 104 -28.5t85 -53.5q31 -34 31 -72q0 -67 -53.5 -115t-135.5 -48q-9 0 -27 1.5t-20 1.5q-13 0 -13 -11zM268 402q-19 0 -42 -42.5
t-23 -60.5q0 -12 10 -12q29 0 51 28.5t22 58.5q0 28 -18 28z" />
    <glyph glyph-name="eacute" unicode="&#xe9;" horiz-adv-x="431" 
d="M202 638q99 65 133 97q8 8 17 8q8 0 13 -7q29 -41 44 -87q2 -6 2 -11q0 -14 -10 -21q-26 -20 -75.5 -44.5t-81.5 -33.5q-5 -1 -7 -1q-15 0 -22 12q-9 17 -24 57q-1 3 -1 8q0 14 12 23zM185 192q0 -18 12 -30.5t35 -12.5q28 0 68.5 13t42.5 13q12 0 17 -12q6 -12 14 -40.5
t8 -36.5q0 -15 -11 -26q-20 -21 -62 -40.5t-78 -19.5q-45 0 -98 24t-85 68q-31 41 -31 124q0 58 22.5 126t70 121.5t104.5 53.5q42 0 104 -28.5t85 -53.5q31 -34 31 -72q0 -67 -53.5 -115t-135.5 -48q-9 0 -27 1.5t-20 1.5q-13 0 -13 -11zM268 402q-19 0 -42 -42.5
t-23 -60.5q0 -12 10 -12q29 0 51 28.5t22 58.5q0 28 -18 28z" />
    <glyph glyph-name="ecircumflex" unicode="&#xea;" horiz-adv-x="431" 
d="M299 587q-6 6 -12 6t-13 -5l-66 -49q-6 -3 -13 -3q-10 0 -15 8t-28 48q-2 4 -2 11q0 12 10 20q23 21 64.5 54t69.5 51q6 4 13 4t17 -8q12 -10 105 -115q6 -6 6 -17q0 -7 -5 -14q-2 -2 -18 -22t-24 -28q-5 -5 -14 -5q-8 0 -14 6q-45 42 -61 58zM185 192q0 -18 12 -30.5
t35 -12.5q28 0 68.5 13t42.5 13q12 0 17 -12q6 -12 14 -40.5t8 -36.5q0 -15 -11 -26q-20 -21 -62 -40.5t-78 -19.5q-45 0 -98 24t-85 68q-31 41 -31 124q0 58 22.5 126t70 121.5t104.5 53.5q42 0 104 -28.5t85 -53.5q31 -34 31 -72q0 -67 -53.5 -115t-135.5 -48
q-9 0 -27 1.5t-20 1.5q-13 0 -13 -11zM268 402q-19 0 -42 -42.5t-23 -60.5q0 -12 10 -12q29 0 51 28.5t22 58.5q0 28 -18 28z" />
    <glyph glyph-name="edieresis" unicode="&#xeb;" horiz-adv-x="431" 
d="M182 700q87 -7 87 -72q0 -38 -22 -64.5t-67 -26.5q-31 0 -48.5 20t-17.5 53q0 49 37 80q12 10 31 10zM368 700q87 -7 87 -72q0 -38 -22 -64.5t-67 -26.5q-31 0 -48.5 20t-17.5 53q0 49 37 80q12 10 31 10zM185 192q0 -18 12 -30.5t35 -12.5q28 0 68.5 13t42.5 13
q12 0 17 -12q6 -12 14 -40.5t8 -36.5q0 -15 -11 -26q-20 -21 -62 -40.5t-78 -19.5q-45 0 -98 24t-85 68q-31 41 -31 124q0 58 22.5 126t70 121.5t104.5 53.5q42 0 104 -28.5t85 -53.5q31 -34 31 -72q0 -67 -53.5 -115t-135.5 -48q-9 0 -27 1.5t-20 1.5q-13 0 -13 -11z
M268 402q-19 0 -42 -42.5t-23 -60.5q0 -12 10 -12q29 0 51 28.5t22 58.5q0 28 -18 28z" />
    <glyph glyph-name="igrave" unicode="&#xec;" horiz-adv-x="229" 
d="M164 18q-3 -17 -19 -17q-13 0 -59.5 12.5t-63.5 19.5q-16 7 -16 28q5 83 29 226t44 206q5 17 38 14.5t65 -11t50 -16.5q13 -6 13 -19l-1 -6q-62 -272 -80 -437zM290 614q11 -9 11 -19q0 -5 -4 -11q-26 -43 -32 -51q-8 -10 -20 -10q-4 0 -10 2q-32 14 -77.5 45t-67.5 54
q-8 8 -8 19q0 6 4 14q24 42 54 78q4 5 12 5q10 0 15 -7q35 -43 123 -119z" />
    <glyph glyph-name="iacute" unicode="&#xed;" horiz-adv-x="229" 
d="M164 18q-3 -17 -19 -17q-13 0 -59.5 12.5t-63.5 19.5q-16 7 -16 28q5 83 29 226t44 206q5 17 25 17q12 0 64 -12t64 -18q13 -6 13 -19l-1 -6q-62 -272 -80 -437zM92 641q99 65 133 97q8 8 17 8q8 0 13 -7q29 -41 44 -87q2 -6 2 -11q0 -14 -10 -21q-26 -20 -75.5 -44.5
t-81.5 -33.5q-5 -1 -7 -1q-15 0 -22 12q-9 17 -24 57q-1 3 -1 8q0 14 12 23z" />
    <glyph glyph-name="icircumflex" unicode="&#xee;" horiz-adv-x="229" 
d="M164 18q-3 -17 -19 -17q-13 0 -59.5 12.5t-63.5 19.5q-16 7 -16 28q5 83 29 226t44 206q5 17 25 17q12 0 64 -12t64 -18q13 -6 13 -19l-1 -6q-62 -272 -80 -437zM192 596q-7 7 -12 7q-8 0 -13 -4l-69 -46q-5 -4 -12 -4q-5 0 -9 2.5t-6 4.5l-2 3q-18 36 -24 50q-3 7 -3 12
q1 10 12 19q62 50 139 97q5 3 14 3q8 -1 15 -8q14 -14 32 -36t40.5 -51.5t26.5 -34.5q7 -9 7 -17l-7 -14q-3 -3 -19.5 -21t-24.5 -25q-6 -5 -14 -5q-3 0 -6.5 2t-4.5 4l-2 1q-44 43 -58 61z" />
    <glyph glyph-name="idieresis" unicode="&#xef;" horiz-adv-x="229" 
d="M164 18q-3 -17 -19 -17q-13 0 -59.5 12.5t-63.5 19.5q-16 7 -16 28q5 83 29 226t44 206q5 17 25 17q12 0 64 -12t64 -18q13 -6 13 -19l-1 -6q-62 -272 -80 -437zM74 707q87 -7 87 -72q0 -38 -22 -64.5t-67 -26.5q-31 0 -48.5 20t-17.5 53q0 49 37 80q12 10 31 10z
M260 707q87 -7 87 -72q0 -38 -22 -64.5t-67 -26.5q-31 0 -48.5 20t-17.5 53q0 49 37 80q12 10 31 10z" />
    <glyph glyph-name="eth" unicode="&#xf0;" horiz-adv-x="469" 
d="M474 673q1 -5 1 -8q0 -13 -11 -18l-17 -8q-12 -6 -12 -17l2 -9q31 -90 31 -201q0 -100 -24 -192t-75.5 -156t-119.5 -64q-21 0 -47 5t-59.5 20.5t-60.5 38.5t-45.5 63.5t-18.5 91.5q0 61 21.5 130t66.5 123t99 54q40 0 76 -31q4 -4 7 -4q4 0 4 7q0 14 -9 48q-3 11 -11 11
l-4 -1l-18 -7q-3 -1 -8 -1q-12 0 -17 12l-21 56q-2 6 -2 8q0 11 13 17l15 7q10 4 10 12q0 3 -11 25q-3 5 -3 11q0 8 10 13l102 39q6 2 9 2q11 0 17 -10q11 -19 24 -19q6 0 13 3l29 13q6 2 8 2q13 0 16 -12zM184 194q0 -54 27 -54q25 0 50 57t34 147q-1 15 -10 30t-18 15
q-26 0 -54 -70t-29 -125z" />
    <glyph glyph-name="ntilde" unicode="&#xf1;" horiz-adv-x="482" 
d="M243 431q56 83 108 83q37 0 82.5 -43t45.5 -80q0 -36 -23.5 -162.5t-44.5 -210.5q-6 -17 -23 -17q-18 0 -64 16.5t-61 26.5q-13 9 -13 22l1 8q46 202 46 258q0 24 -8 24q-7 0 -26.5 -11.5t-33.5 -26.5q-12 -12 -16 -32q-45 -230 -53 -268q-5 -16 -20 -16q-17 0 -63 14.5
t-61 22.5q-13 7 -13 25l1 8q29 146 68 429q3 17 22 17q14 0 58.5 -8.5t59.5 -13.5q17 -6 18 -28l2 -33q0 -9 4 -9zM360 539q-24 0 -65 21t-63 21q-28 0 -53 -25q-5 -5 -9 -5q-6 0 -7 9l-17 62q-2 8 -2 12q0 15 7 22q45 50 85 50q24 0 60.5 -20.5t56.5 -20.5q28 0 55 27
q5 4 9 4q5 0 8 -7l16 -65q2 -8 2 -12q0 -13 -6 -22q-36 -51 -77 -51z" />
    <glyph glyph-name="ograve" unicode="&#xf2;" horiz-adv-x="468" 
d="M408 606q11 -9 11 -19q0 -5 -4 -11q-26 -43 -32 -51q-8 -10 -20 -10q-4 0 -10 2q-32 14 -77.5 45t-67.5 54q-8 8 -8 19q0 6 4 14q24 42 54 78q4 5 12 5q10 0 15 -7q35 -43 123 -119zM214 135q32 0 56.5 68.5t24.5 126.5t-29 58q-28 0 -55 -72t-28 -129q0 -52 31 -52z
M461 305q0 -37 -11 -84t-33.5 -99t-67 -87t-102.5 -35q-44 0 -107.5 24t-94.5 69q-28 41 -28 118q0 41 13 91.5t36.5 99.5t65 82t90.5 33q28 0 93.5 -24t101.5 -57q44 -41 44 -131z" />
    <glyph glyph-name="oacute" unicode="&#xf3;" horiz-adv-x="468" 
d="M222 637q99 65 133 97q8 8 17 8q8 0 13 -7q29 -41 44 -87q2 -6 2 -11q0 -14 -10 -21q-26 -20 -75.5 -44.5t-81.5 -33.5q-5 -1 -7 -1q-15 0 -22 12q-9 17 -24 57q-1 3 -1 8q0 14 12 23zM214 135q32 0 56.5 68.5t24.5 126.5t-29 58q-28 0 -55 -72t-28 -129q0 -52 31 -52z
M461 305q0 -37 -11 -84t-33.5 -99t-67 -87t-102.5 -35q-44 0 -107.5 24t-94.5 69q-28 41 -28 118q0 41 13 91.5t36.5 99.5t65 82t90.5 33q28 0 93.5 -24t101.5 -57q44 -41 44 -131z" />
    <glyph glyph-name="ocircumflex" unicode="&#xf4;" horiz-adv-x="468" 
d="M314 585q-7 7 -12 7q-8 0 -13 -4l-69 -48q-5 -4 -12 -4q-4 0 -8 3t-6 6l-2 3q-19 34 -26 48q-3 8 -3 12q1 10 12 19q52 43 137 99q5 3 14 3q9 -1 15 -7q22 -21 101 -121q8 -8 8 -16l-7 -15q-4 -4 -19.5 -21.5t-23.5 -24.5q-8 -6 -14 -6q-3 0 -6.5 2t-5.5 4l-1 1
q-45 42 -59 60zM214 135q32 0 56.5 68.5t24.5 126.5t-29 58q-28 0 -55 -72t-28 -129q0 -52 31 -52zM461 305q0 -37 -11 -84t-33.5 -99t-67 -87t-102.5 -35q-44 0 -107.5 24t-94.5 69q-28 41 -28 118q0 41 13 91.5t36.5 99.5t65 82t90.5 33q28 0 93.5 -24t101.5 -57
q44 -41 44 -131z" />
    <glyph glyph-name="otilde" unicode="&#xf5;" horiz-adv-x="468" 
d="M359 534q-25 0 -65.5 21t-62.5 21q-28 0 -53 -25q-5 -5 -9 -5q-5 0 -7 9l-17 62q-2 8 -2 12q0 15 7 22q45 50 85 50q24 0 60.5 -20.5t56.5 -20.5q28 0 55 27q5 4 9 4q5 0 8 -7l16 -65q2 -8 2 -12q0 -13 -6 -22q-36 -51 -77 -51zM214 135q32 0 56.5 68.5t24.5 126.5
t-29 58q-28 0 -55 -72t-28 -129q0 -52 31 -52zM461 305q0 -37 -11 -84t-33.5 -99t-67 -87t-102.5 -35q-44 0 -107.5 24t-94.5 69q-28 41 -28 118q0 41 13 91.5t36.5 99.5t65 82t90.5 33q28 0 93.5 -24t101.5 -57q44 -41 44 -131z" />
    <glyph glyph-name="odieresis" unicode="&#xf6;" horiz-adv-x="468" 
d="M203 705q87 -7 87 -72q0 -38 -22 -64.5t-67 -26.5q-31 0 -48.5 20t-17.5 53q0 49 37 80q12 10 31 10zM389 700q87 -7 87 -72q0 -38 -22 -64.5t-67 -26.5q-31 0 -48.5 20t-17.5 53q0 49 37 80q12 10 31 10zM214 135q32 0 56.5 68.5t24.5 126.5t-29 58q-28 0 -55 -72
t-28 -129q0 -52 31 -52zM461 305q0 -37 -11 -84t-33.5 -99t-67 -87t-102.5 -35q-44 0 -107.5 24t-94.5 69q-28 41 -28 118q0 41 13 91.5t36.5 99.5t65 82t90.5 33q28 0 93.5 -24t101.5 -57q44 -41 44 -131z" />
    <glyph glyph-name="divide" unicode="&#xf7;" horiz-adv-x="459" 
d="M188 200q48 -4 72 -27.5t24 -59.5q0 -38 -24.5 -63.5t-62.5 -25.5q-41 0 -61 22.5t-20 60.5q0 50 40 82q11 11 32 11zM264 591q48 -4 71 -27.5t23 -59.5q0 -39 -23.5 -64t-62.5 -25q-34 0 -56.5 22.5t-22.5 57.5q0 51 41 85q13 11 30 11zM52 342q0 7 7 13.5t15 7.5
q76 9 226 9q72 0 103 -4q7 -1 13.5 -8t7.5 -14q0 -45 -7 -85q-2 -18 -23 -18q-31 0 -160.5 1t-161.5 1q-8 0 -14.5 6t-7.5 13q-2 18 -2 33q0 29 4 45z" />
    <glyph glyph-name="oslash" unicode="&#xf8;" horiz-adv-x="468" 
d="M461 305q0 -37 -11 -84t-33.5 -99t-67 -87t-102.5 -35q-15 0 -33 3t-22 3q-12 0 -19 -12q-5 -9 -21.5 -35.5t-22.5 -37.5q-5 -11 -17 -11l-9 3q-62 39 -83 69q-4 5 -4 15l5 20l22 49q4 10 4 16q0 7 -6 17q-24 39 -24 112q0 41 13 91.5t36.5 99.5t65 82t90.5 33
q13 0 55 -11q6 -2 10 -2q8 0 15 13q31 51 45 71q8 11 18 11q4 0 12 -4q71 -45 94 -71q5 -7 5 -14l-5 -16l-35 -55q-5 -7 -5 -14l4 -13q26 -46 26 -107zM214 135q32 0 56.5 68.5t24.5 126.5t-29 58q-28 0 -55 -72t-28 -129q0 -52 31 -52z" />
    <glyph glyph-name="ugrave" unicode="&#xf9;" 
d="M481 474q12 -4 12 -21l-1 -6q-31 -107 -49.5 -230t-20.5 -198q0 -7 -5 -12.5t-13 -5.5q-36 0 -96 22q-20 7 -23 29l-5 39q-2 9 -5 9t-6 -6q-52 -95 -108 -95q-45 0 -94.5 50.5t-49.5 104.5q0 84 22 181.5t45 155.5q5 16 21 16q13 0 62 -18t63 -27q9 -6 9 -19l-1 -9
q-16 -51 -34.5 -132t-18.5 -117q0 -20 7 -20q18 0 47 27.5t35 54.5q17 130 57 246q6 17 23 17q11 0 58.5 -13t68.5 -23zM386 622q11 -9 11 -19q0 -5 -4 -11q-26 -43 -32 -51q-8 -10 -20 -10q-4 0 -10 2q-32 14 -77.5 45t-67.5 54q-8 8 -8 19q0 6 4 14q24 42 54 78q4 5 12 5
q10 0 15 -7q35 -43 123 -119z" />
    <glyph glyph-name="uacute" unicode="&#xfa;" 
d="M481 474q12 -4 12 -21l-1 -6q-31 -107 -49.5 -230t-20.5 -198q0 -7 -5 -12.5t-13 -5.5q-36 0 -96 22q-20 7 -23 29l-5 39q-2 9 -5 9t-6 -6q-52 -95 -108 -95q-45 0 -94.5 50.5t-49.5 104.5q0 84 22 181.5t45 155.5q5 16 21 16q13 0 62 -18t63 -27q9 -6 9 -19l-1 -9
q-16 -51 -34.5 -132t-18.5 -117q0 -20 7 -20q18 0 47 27.5t35 54.5q17 130 57 246q6 17 23 17q11 0 58.5 -13t68.5 -23zM223 626q99 65 133 97q8 8 17 8q8 0 13 -7q29 -41 44 -87q2 -6 2 -11q0 -14 -10 -21q-26 -20 -75.5 -44.5t-81.5 -33.5q-5 -1 -7 -1q-15 0 -22 12
q-9 17 -24 57q-1 3 -1 8q0 14 12 23z" />
    <glyph glyph-name="ucircumflex" unicode="&#xfb;" 
d="M481 474q12 -4 12 -21l-1 -6q-31 -107 -49.5 -230t-20.5 -198q0 -7 -5 -12.5t-13 -5.5q-36 0 -96 22q-20 7 -23 29l-5 39q-2 9 -5 9t-6 -6q-52 -95 -108 -95q-45 0 -94.5 50.5t-49.5 104.5q0 84 22 181.5t45 155.5q5 16 21 16q13 0 62 -18t63 -27q9 -6 9 -19l-1 -9
q-16 -51 -34.5 -132t-18.5 -117q0 -20 7 -20q18 0 47 27.5t35 54.5q17 130 57 246q6 17 23 17q11 0 58.5 -13t68.5 -23zM305 593q-6 6 -12 6t-13 -5l-65 -50q-5 -4 -13 -4q-10 0 -16 8q-5 8 -28 48q-3 4 -3 10q0 13 10 21q68 63 132 107q6 4 13 4q10 0 17 -7
q26 -23 107 -114q7 -7 7 -17q0 -7 -5 -14q-4 -5 -19 -23.5t-22 -26.5q-5 -5 -14 -5l-14 5q-46 41 -62 57z" />
    <glyph glyph-name="udieresis" unicode="&#xfc;" 
d="M481 474q12 -4 12 -21l-1 -6q-31 -107 -49.5 -230t-20.5 -198q0 -7 -5 -12.5t-13 -5.5q-36 0 -96 22q-20 7 -23 29l-5 39q-2 9 -5 9t-6 -6q-52 -95 -108 -95q-45 0 -94.5 50.5t-49.5 104.5q0 84 22 181.5t45 155.5q5 16 21 16q13 0 62 -18t63 -27q9 -6 9 -19l-1 -9
q-16 -51 -34.5 -132t-18.5 -117q0 -20 7 -20q18 0 47 27.5t35 54.5q17 130 57 246q6 17 23 17q11 0 58.5 -13t68.5 -23zM200 705q87 -7 87 -72q0 -38 -22 -64.5t-67 -26.5q-31 0 -48.5 20t-17.5 53q0 49 37 80q12 10 31 10zM386 705q87 -7 87 -72q0 -38 -22 -64.5t-67 -26.5
q-31 0 -48.5 20t-17.5 53q0 49 37 80q12 10 31 10z" />
    <glyph glyph-name="yacute" unicode="&#xfd;" 
d="M335 496q7 14 21 14t62 -16t63 -26q11 -8 11 -21l-1 -7q-24 -92 -83 -412q-4 -22 -11.5 -46t-24.5 -54.5t-39.5 -54t-58 -39.5t-78.5 -16q-63 0 -136 46q-13 7 -13 24l2 12q15 55 19 68q5 15 16 15l8 -2q46 -18 77 -18q32 0 55 23t30.5 47t7.5 42q0 9 -2 9l-5 -6
q-48 -65 -93 -65q-44 0 -94.5 49.5t-50.5 102.5q0 82 22 176.5t45 149.5q5 16 23 16q8 0 59.5 -19t63.5 -27q9 -6 9 -20l-1 -8q-16 -49 -34 -132t-18 -119q0 -19 7 -19q16 0 37.5 18.5t36.5 42.5q6 10 7 18q24 161 61 254zM223 626q99 65 133 97q8 8 17 8q8 0 13 -7
q29 -41 44 -87q2 -6 2 -11q0 -14 -10 -21q-26 -20 -75.5 -44.5t-81.5 -33.5q-5 -1 -7 -1q-15 0 -22 12q-9 17 -24 57q-1 3 -1 8q0 14 12 23z" />
    <glyph glyph-name="thorn" unicode="&#xfe;" 
d="M266 535q-1 -4 -1 -6q0 -12 15 -14q16 -1 30 -6q58 -19 112 -82t54 -113q0 -121 -70 -217t-160 -96q-24 0 -68 29q-3 2 -8 2q-10 0 -11 -11q-5 -33 -14.5 -91t-12.5 -81q-4 -16 -19 -16q-16 0 -55 11.5t-57 22.5q-13 9 -13 32q15 194 71 472q2 12 2 22q0 1 -4 41
q0 17 10 22q9 5 15 24q38 167 57 214q7 15 21 15q17 0 60.5 -12.5t65.5 -22.5q11 -5 11 -20l-1 -9q-15 -46 -30 -110zM208 142q39 0 68.5 53.5t29.5 106.5q0 32 -15 52t-39 20q-16 0 -20 -18q-21 -81 -40 -184q-2 -10 -2 -12q0 -18 18 -18z" />
    <glyph glyph-name="ydieresis" unicode="&#xff;" 
d="M335 496q7 14 21 14t62 -16t63 -26q11 -8 11 -21l-1 -7q-24 -92 -83 -412q-4 -22 -11.5 -46t-24.5 -54.5t-39.5 -54t-58 -39.5t-78.5 -16q-63 0 -136 46q-13 7 -13 24l2 12q15 55 19 68q5 15 16 15l8 -2q46 -18 77 -18q32 0 55 23t30.5 47t7.5 42q0 9 -2 9l-5 -6
q-48 -65 -93 -65q-44 0 -94.5 49.5t-50.5 102.5q0 82 22 176.5t45 149.5q5 16 23 16q8 0 59.5 -19t63.5 -27q9 -6 9 -20l-1 -8q-16 -49 -34 -132t-18 -119q0 -19 7 -19q16 0 37.5 18.5t36.5 42.5q6 10 7 18q24 161 61 254zM198 705q87 -7 87 -72q0 -38 -22 -64.5t-67 -26.5
q-31 0 -48.5 20t-17.5 53q0 49 37 80q12 10 31 10zM384 705q87 -7 87 -72q0 -38 -22 -64.5t-67 -26.5q-31 0 -48.5 20t-17.5 53q0 49 37 80q12 10 31 10z" />
    <glyph glyph-name="Amacron" unicode="&#x100;" horiz-adv-x="538" 
d="M470 637q16 -8 19 -26q10 -65 10 -282q0 -221 -11 -312q-2 -16 -23 -16q-18 1 -65.5 7.5t-59.5 10.5q-16 5 -16 23l4 100q0 14 -16 14q-5 0 -25 -1t-45.5 -2t-37.5 -1q-15 -1 -23 -19q-9 -21 -24.5 -65.5t-17.5 -49.5q-5 -12 -18 -12q-14 0 -54.5 16t-55.5 27
q-13 7 -13 22l1 9q3 9 12 35.5t13 41.5q2 6 2 12q0 11 -6 42.5t-6 37.5q0 14 13 20q7 2 13 3.5t8 1.5q15 3 25 20q10 21 49 108t73 156t54 93q10 10 19 10q8 0 27 -4t24 -4q9 0 12 13q2 13 12 13q14 0 60 -15.5t67 -26.5zM246 312q-2 -4 -2 -7q0 -9 13 -9q2 0 28 1t30 1
q8 0 12 4t6 14q1 28 1 97v78q0 11 -4 11q-2 0 -5 -6q-13 -28 -41 -94.5t-38 -89.5zM238 807q4 18 24 22q43 8 149 8q60 0 80 -4q20 -5 22 -24q0 -1 0.5 -5t0.5 -7q0 -39 -7 -64q-5 -19 -28 -19q-11 0 -109 1t-109 1q-20 0 -24 19q-2 12 -2 28q0 29 3 44z" />
    <glyph glyph-name="amacron" unicode="&#x101;" horiz-adv-x="479" 
d="M308 25q-20 6 -24 27l-3 33q0 8 -4 8q-3 0 -6 -6q-51 -87 -99 -87q-54 0 -105.5 55.5t-51.5 125.5q0 49 12 103.5t36.5 108t70 88.5t103.5 35q40 0 112 -27.5t124 -61.5q12 -8 12 -21l-1 -8q-51 -185 -56 -379q-2 -17 -17 -17q-21 0 -103 23zM258 193q9 9 11 20
q3 21 8 44.5t11 51.5t9 43v5q0 21 -24 21q-38 0 -62.5 -62.5t-24.5 -115.5q0 -42 14 -42q21 0 58 35zM178 649q4 18 24 22q43 8 149 8q60 0 80 -4q20 -5 22 -24q0 -1 0.5 -5t0.5 -7q0 -39 -7 -64q-5 -19 -28 -19q-10 0 -109 1t-109 1q-20 0 -24 19q-2 12 -2 28q0 29 3 44z
" />
    <glyph glyph-name="Abreve" unicode="&#x102;" horiz-adv-x="538" 
d="M513 864q11 -8 11 -23l-1 -7q-12 -48 -50.5 -91t-100.5 -43q-55 0 -81.5 35t-26.5 84q0 9 2 27q3 23 20 30q30 13 47 13q14 0 14 -15q0 -60 33 -60q36 0 60 58q7 14 18 14l7 -1q32 -11 48 -21zM470 637q16 -8 19 -26q10 -65 10 -282q0 -221 -11 -312q-2 -16 -23 -16
q-18 1 -65.5 7.5t-59.5 10.5q-16 5 -16 23l4 100q0 14 -16 14q-5 0 -25 -1t-45.5 -2t-37.5 -1q-15 -1 -23 -19q-9 -21 -24.5 -65.5t-17.5 -49.5q-5 -12 -18 -12q-14 0 -54.5 16t-55.5 27q-13 7 -13 22l1 9q3 9 12 35.5t13 41.5q2 6 2 12q0 11 -6 42.5t-6 37.5q0 14 13 20
q7 2 13 3.5t8 1.5q15 3 25 20q10 21 49 108t73 156t54 93q10 10 19 10q8 0 27 -4t24 -4q9 0 12 13q2 13 12 13q14 0 60 -15.5t67 -26.5zM246 312q-2 -4 -2 -7q0 -9 13 -9q2 0 28 1t30 1q8 0 12 4t6 14q1 28 1 97v78q0 11 -4 11q-2 0 -5 -6q-13 -28 -41 -94.5t-38 -89.5z" />
    <glyph glyph-name="abreve" unicode="&#x103;" horiz-adv-x="479" 
d="M308 25q-20 6 -24 27l-3 33q0 8 -4 8q-3 0 -6 -6q-51 -87 -99 -87q-54 0 -105.5 55.5t-51.5 125.5q0 49 12 103.5t36.5 108t70 88.5t103.5 35q40 0 112 -27.5t124 -61.5q12 -8 12 -21l-1 -8q-51 -185 -56 -379q-2 -17 -17 -17q-21 0 -103 23zM258 193q9 9 11 20
q3 21 8 44.5t11 51.5t9 43v5q0 21 -24 21q-38 0 -62.5 -62.5t-24.5 -115.5q0 -42 14 -42q21 0 58 35zM452 702q11 -8 11 -23l-1 -7q-12 -48 -50.5 -91t-100.5 -43q-55 0 -81.5 35t-26.5 84q0 9 2 27q3 23 20 30q30 13 47 13q14 0 14 -15q0 -60 33 -60q36 0 60 58q7 14 18 14
l7 -1q32 -11 48 -21z" />
    <glyph glyph-name="Aogonek" unicode="&#x104;" horiz-adv-x="538" 
d="M470 637q16 -8 19 -26q10 -65 10 -282q0 -221 -11 -312q-2 -16 -23 -16q-33 -12 -58 -38t-26 -46q0 -25 30 -25q15 0 29 6q6 2 9 2q10 0 14 -10q9 -24 12 -37q2 -6 2 -12q0 -10 -10 -20q-39 -34 -90 -34q-46 0 -73 27t-27 68q0 40 27 75.5t63 55.5q-22 4 -27 6
q-16 5 -16 23l4 100q0 14 -16 14q-5 0 -25 -1t-45.5 -2t-37.5 -1q-15 -1 -23 -19q-9 -21 -24.5 -65.5t-17.5 -49.5q-5 -12 -18 -12q-14 0 -54.5 16t-55.5 27q-13 7 -13 22l1 9q3 9 12 35.5t13 41.5q2 6 2 12q0 11 -6 42.5t-6 37.5q0 14 13 20q7 2 13 3.5t8 1.5q15 3 25 20
q10 21 49 108t73 156t54 93q10 10 19 10q8 0 27 -4t24 -4q9 0 12 13q2 13 12 13q14 0 60 -15.5t67 -26.5zM246 312q-2 -4 -2 -7q0 -9 13 -9q2 0 28 1t30 1q8 0 12 4t6 14q1 28 1 97v78q0 11 -4 11q-2 0 -5 -6q-13 -28 -41 -94.5t-38 -89.5z" />
    <glyph glyph-name="aogonek" unicode="&#x105;" horiz-adv-x="479" 
d="M308 25q-20 6 -24 27l-3 33q0 8 -4 8q-3 0 -6 -6q-51 -87 -99 -87q-54 0 -105.5 55.5t-51.5 125.5q0 49 12 103.5t36.5 108t70 88.5t103.5 35q40 0 112 -27.5t124 -61.5q12 -8 12 -21l-1 -8q-51 -185 -56 -379q-2 -17 -17 -17q-32 -11 -53 -37.5t-22 -47.5q0 -25 30 -25
q16 0 29 6q6 2 9 2q10 0 14 -10q9 -24 12 -37q2 -6 2 -12q0 -10 -10 -20q-39 -34 -90 -34q-46 0 -73 27t-27 68q0 44 29 82t67 55zM258 193q9 9 11 20q3 21 8 44.5t11 51.5t9 43v5q0 21 -24 21q-38 0 -62.5 -62.5t-24.5 -115.5q0 -42 14 -42q21 0 58 35z" />
    <glyph glyph-name="Cacute" unicode="&#x106;" horiz-adv-x="506" 
d="M306 795q99 65 133 97q8 8 17 8q8 0 13 -7q29 -41 44 -87q2 -6 2 -11q0 -14 -10 -21q-26 -20 -75.5 -44.5t-81.5 -33.5q-5 -1 -7 -1q-15 0 -22 12q-9 17 -24 57q-1 3 -1 8q0 14 12 23zM361 386q-14 0 -14 12q0 1 8 37t8 54q0 45 -26 45q-41 0 -85 -86t-44 -174
q0 -55 21 -82t54 -27q52 0 131 52q5 4 13 4q12 0 15 -10q22 -61 30 -93q2 -8 2 -11q0 -12 -9 -21q-93 -87 -176 -87q-52 0 -113 27.5t-99 73.5q-44 52 -44 165q0 95 33.5 188.5t98.5 158t143 64.5q30 0 83 -21t99 -59t46 -76q0 -48 -30 -115q-6 -15 -24 -16q-38 -3 -121 -3z
" />
    <glyph glyph-name="cacute" unicode="&#x107;" horiz-adv-x="422" 
d="M214 634q99 65 133 97q8 8 17 8q8 0 13 -7q29 -41 44 -87q2 -6 2 -11q0 -14 -10 -21q-26 -20 -75.5 -44.5t-81.5 -33.5q-5 -1 -7 -1q-15 0 -22 12q-9 17 -24 57q-1 3 -1 8q0 14 12 23zM279 271q-16 2 -16 17q0 2 6.5 32.5t6.5 42.5q0 27 -14 27q-23 0 -50 -62.5
t-27 -112.5q0 -32 11 -46.5t36 -14.5q28 0 67.5 14t41.5 14q12 0 17 -12q6 -12 15 -42t9 -38q0 -19 -11 -30q-20 -21 -60.5 -40.5t-76.5 -19.5q-49 0 -101.5 24t-84.5 68q-31 41 -31 124q0 66 25 134.5t72.5 117.5t103.5 49q13 0 45.5 -9.5t70 -26t65.5 -44.5t28 -58
q0 -37 -29 -87q-8 -19 -27 -19q-28 -2 -92 -2z" />
    <glyph glyph-name="Ccircumflex" unicode="&#x108;" horiz-adv-x="506" 
d="M380 749q-7 7 -12 7q-8 0 -13 -4l-69 -46q-5 -4 -12 -4q-5 0 -9 2.5t-6 5.5l-2 2q-18 36 -24 50q-3 8 -3 12q1 10 12 19q62 50 139 97q5 3 14 3q8 -1 15 -8q14 -14 32 -36t40.5 -51.5t26.5 -34.5q7 -9 7 -17l-7 -14q-3 -3 -19.5 -21t-24.5 -25q-6 -5 -14 -5
q-3 0 -6.5 1.5t-4.5 3.5l-2 2q-44 43 -58 61zM361 386q-14 0 -14 12q0 1 8 37t8 54q0 45 -26 45q-41 0 -85 -86t-44 -174q0 -55 21 -82t54 -27q52 0 131 52q5 4 13 4q12 0 15 -10q22 -61 30 -93q2 -8 2 -11q0 -12 -9 -21q-93 -87 -176 -87q-52 0 -113 27.5t-99 73.5
q-44 52 -44 165q0 95 33.5 188.5t98.5 158t143 64.5q30 0 83 -21t99 -59t46 -76q0 -48 -30 -115q-6 -15 -24 -16q-38 -3 -121 -3z" />
    <glyph glyph-name="ccircumflex" unicode="&#x109;" horiz-adv-x="422" 
d="M289 589q-6 6 -12 6t-13 -5l-66 -49q-6 -3 -13 -3q-10 0 -15 8t-28 48q-2 4 -2 11q0 12 10 20q23 21 64.5 54t69.5 51q6 4 13 4t17 -8q12 -10 105 -115q6 -6 6 -17q0 -7 -5 -14q-2 -2 -18 -22t-24 -28q-5 -5 -14 -5q-8 0 -14 6q-45 42 -61 58zM279 271q-16 2 -16 17
q0 2 6.5 32.5t6.5 42.5q0 27 -14 27q-23 0 -50 -62.5t-27 -112.5q0 -32 11 -46.5t36 -14.5q28 0 67.5 14t41.5 14q12 0 17 -12q6 -12 15 -42t9 -38q0 -19 -11 -30q-20 -21 -60.5 -40.5t-76.5 -19.5q-49 0 -101.5 24t-84.5 68q-31 41 -31 124q0 66 25 134.5t72.5 117.5
t103.5 49q13 0 45.5 -9.5t70 -26t65.5 -44.5t28 -58q0 -37 -29 -87q-8 -19 -27 -19q-28 -2 -92 -2z" />
    <glyph glyph-name="Cdotaccent" unicode="&#x10a;" horiz-adv-x="506" 
d="M372 869q101 -6 101 -81q0 -38 -26.5 -63t-69.5 -25q-36 0 -56 22.5t-20 60.5q4 47 40 75q15 11 31 11zM361 386q-14 0 -14 12q0 1 8 37t8 54q0 45 -26 45q-41 0 -85 -86t-44 -174q0 -55 21 -82t54 -27q52 0 131 52q5 4 13 4q12 0 15 -10q22 -61 30 -93q2 -8 2 -11
q0 -12 -9 -21q-93 -87 -176 -87q-52 0 -113 27.5t-99 73.5q-44 52 -44 165q0 95 33.5 188.5t98.5 158t143 64.5q30 0 83 -21t99 -59t46 -76q0 -48 -30 -115q-6 -15 -24 -16q-38 -3 -121 -3z" />
    <glyph glyph-name="cdotaccent" unicode="&#x10b;" horiz-adv-x="422" 
d="M270 710q101 -6 101 -81q0 -38 -26.5 -63t-69.5 -25q-36 0 -56 22.5t-20 60.5q4 47 40 75q15 11 31 11zM279 271q-16 2 -16 17q0 2 6.5 32.5t6.5 42.5q0 27 -14 27q-23 0 -50 -62.5t-27 -112.5q0 -32 11 -46.5t36 -14.5q28 0 67.5 14t41.5 14q12 0 17 -12q6 -12 15 -42
t9 -38q0 -19 -11 -30q-20 -21 -60.5 -40.5t-76.5 -19.5q-49 0 -101.5 24t-84.5 68q-31 41 -31 124q0 66 25 134.5t72.5 117.5t103.5 49q13 0 45.5 -9.5t70 -26t65.5 -44.5t28 -58q0 -37 -29 -87q-8 -19 -27 -19q-28 -2 -92 -2z" />
    <glyph glyph-name="Ccaron" unicode="&#x10c;" horiz-adv-x="505" 
d="M361 386q-14 0 -14 12q0 1 8 37t8 54q0 45 -26 45q-41 0 -85 -86t-44 -174q0 -55 21 -82t54 -27q52 0 131 52q5 4 13 4q12 0 15 -10q22 -61 30 -93q2 -8 2 -11q0 -12 -9 -21q-93 -87 -176 -87q-52 0 -113 27.5t-99 73.5q-44 52 -44 165q0 95 33.5 188.5t98.5 158
t143 64.5q30 0 83 -21t99 -59t46 -76q0 -48 -30 -115q-6 -15 -24 -16q-38 -3 -121 -3zM380 835q5 -5 9 -5q5 0 12 5q34 25 64 52q5 3 11 3q11 0 17 -8q15 -25 26 -50q2 -6 2 -9q0 -12 -11 -23q-62 -62 -126 -104q-6 -3 -12 -3q-4 0 -8 1.5t-6 3.5l-2 2q-44 43 -98 117
q-5 7 -5 15t5 15q18 26 40 49q5 5 13 5t14 -6q9 -9 29.5 -32t25.5 -28z" />
    <glyph glyph-name="ccaron" unicode="&#x10d;" horiz-adv-x="422" 
d="M281 676q5 -5 9 -5q5 0 12 5q34 25 64 52q4 3 11 3q11 0 17 -8q15 -25 26 -50q2 -6 2 -9q0 -12 -11 -23q-62 -62 -126 -104q-6 -3 -12 -3q-4 0 -8 2t-6 4l-2 1q-44 43 -98 117q-5 7 -5 15t5 15q18 26 40 49q5 5 13 5t14 -6q9 -9 29.5 -32t25.5 -28zM279 271q-16 2 -16 17
q0 2 6.5 32.5t6.5 42.5q0 27 -14 27q-23 0 -50 -62.5t-27 -112.5q0 -32 11 -46.5t36 -14.5q28 0 67.5 14t41.5 14q12 0 17 -12q6 -12 15 -42t9 -38q0 -19 -11 -30q-20 -21 -60.5 -40.5t-76.5 -19.5q-49 0 -101.5 24t-84.5 68q-31 41 -31 124q0 66 25 134.5t72.5 117.5
t103.5 49q13 0 45.5 -9.5t70 -26t65.5 -44.5t28 -58q0 -37 -29 -87q-8 -19 -27 -19q-28 -2 -92 -2z" />
    <glyph glyph-name="Dcaron" unicode="&#x10e;" horiz-adv-x="563" 
d="M358 835q5 -5 9 -5q5 0 12 5q34 25 64 52q4 3 11 3q11 0 17 -8q15 -25 26 -50q2 -6 2 -9q0 -12 -11 -23q-62 -62 -126 -104q-6 -3 -12 -3q-4 0 -8 1.5t-6 3.5l-2 2q-44 43 -98 117q-5 7 -5 15t5 15q18 26 40 49q5 5 13 5t14 -6q9 -9 29.5 -32t25.5 -28zM205 1
q-28 0 -46 9q-22 11 -62 46t-66 65q-7 7 -7 22q1 65 26.5 201t42.5 201q2 10 2 17v51q0 17 13 22q103 44 177 44q109 0 196 -96t87 -208q0 -144 -108 -255.5t-255 -118.5zM206 173q79 0 138 76t59 175q0 48 -31.5 77.5t-75.5 29.5q-29 0 -34 -20q-51 -214 -67 -326v-2
q0 -10 11 -10z" />
    <glyph glyph-name="dcaron" unicode="&#x10f;" horiz-adv-x="484" 
d="M663 581q-5 -16 -24 -16q-36 8 -50 14q-15 7 -15 24v4q9 73 41 149q7 16 27 16q24 -5 59 -20q12 -6 12 -21q0 -5 -1 -7q-5 -16 -15 -41t-18 -49.5t-16 -52.5zM384 685q7 15 23 15q8 0 60.5 -15.5t68.5 -21.5q13 -5 13 -18l-1 -7q-29 -81 -69 -264t-62 -355
q-2 -16 -17 -16q-10 0 -45.5 9.5t-51.5 15.5q-18 8 -19 27q0 3 -0.5 12.5t-0.5 11.5q0 11 -6 11q-3 0 -7 -5q-54 -85 -97 -85q-54 0 -106 56t-52 126q0 132 60 233t148 101q33 0 85 -26q4 -2 7 -2q9 0 12 12q35 136 57 185zM260 193q9 9 11 20q3 21 8 44.5t11 51.5t9 43v5
q0 21 -24 21q-38 0 -62.5 -62.5t-24.5 -115.5q0 -42 14 -42q21 0 58 35z" />
    <glyph glyph-name="Dcroat" unicode="&#x110;" horiz-adv-x="596" 
d="M238 1q-28 0 -46 9q-22 11 -62 46t-66 65q-7 7 -7 22q0 48 17 147h-23q-8 0 -14 5.5t-7 12.5q-1 10 -1 38q0 34 2 47q1 8 8 15t14 8h44q19 94 29 129q2 10 2 17v51q0 17 13 22q103 44 177 44q109 0 196 -96t87 -208q0 -144 -108 -255.5t-255 -118.5zM239 173q79 0 138 76
t59 175q0 48 -31.5 77.5t-75.5 29.5q-29 0 -34 -20q-12 -48 -22 -93h51q16 -2 16 -22v-14q0 -44 -6 -73q-3 -16 -25 -18h-63q-10 -50 -18 -106v-2q0 -10 11 -10z" />
    <glyph glyph-name="dcroat" unicode="&#x111;" horiz-adv-x="486" 
d="M384 685q7 15 23 15q8 0 60.5 -15.5t68.5 -21.5q13 -5 13 -18l-1 -7q-2 -4 -4 -12h19q8 -1 14.5 -7t6.5 -15q0 -28 -5 -55q-5 -18 -24 -18h-39q-64 -243 -99 -512q-2 -16 -17 -16q-10 0 -45.5 9.5t-51.5 15.5q-18 8 -19 27q0 3 -0.5 12.5t-0.5 11.5q0 11 -6 11
q-3 0 -7 -5q-54 -85 -97 -85q-54 0 -106 56t-52 126q0 132 60 233t148 101q33 0 85 -26q4 -2 7 -2q9 0 12 12l8 33h-18q-8 0 -14.5 5.5t-6.5 13.5q-1 7 -1 24t1 25t8 15t14 7h43q11 35 23 62zM260 193q9 9 11 20q3 21 8 44.5t11 51.5t9 43v5q0 21 -24 21q-38 0 -62.5 -62.5
t-24.5 -115.5q0 -42 14 -42q21 0 58 35z" />
    <glyph glyph-name="Emacron" unicode="&#x112;" horiz-adv-x="456" 
d="M191 809q4 18 24 22q43 8 149 8q60 0 80 -4q20 -5 22 -24q0 -1 0.5 -5t0.5 -7q0 -39 -7 -64q-5 -19 -28 -19q-10 0 -109 1t-109 1q-20 0 -24 19q-2 12 -2 28q0 29 3 44zM202 247q-3 -8 -7.5 -35t-4.5 -32q0 -13 11 -13q3 0 71 5t87 5q20 0 28 -19q8 -20 20 -64.5
t12 -54.5q0 -15 -16 -17q-256 -22 -281 -22q-17 0 -30 11q-10 10 -20.5 25.5t-26.5 43t-20 33.5q-6 9 -6 21q1 66 30 219t44 204q3 14 3 23q0 4 -0.5 26.5t-0.5 30.5q0 15 19 21q38 8 123.5 14.5t159.5 6.5q50 0 68 -2q21 -2 24 -20q5 -30 8 -114q0 -17 -18 -19l-206 -11
q-14 -1 -20 -15q-2 -5 -6.5 -23.5t-7.5 -33.5t-3 -16q0 -13 14 -13q8 0 62 3t62 3q19 0 25 -20q14 -68 14 -106q0 -17 -20 -17q-78 -4 -168 -12q-17 -1 -23 -16z" />
    <glyph glyph-name="emacron" unicode="&#x113;" horiz-adv-x="431" 
d="M141 649q4 18 24 22q43 8 149 8q60 0 80 -4q20 -5 22 -24q0 -1 0.5 -5t0.5 -7q0 -39 -7 -64q-5 -19 -28 -19q-10 0 -109 1t-109 1q-20 0 -24 19q-2 12 -2 28q0 29 3 44zM185 192q0 -18 12 -30.5t35 -12.5q28 0 68.5 13t42.5 13q12 0 17 -12q6 -12 14 -40.5t8 -36.5
q0 -15 -11 -26q-20 -21 -62 -40.5t-78 -19.5q-45 0 -98 24t-85 68q-31 41 -31 124q0 58 22.5 126t70 121.5t104.5 53.5q42 0 104 -28.5t85 -53.5q31 -34 31 -72q0 -67 -53.5 -115t-135.5 -48q-9 0 -27 1.5t-20 1.5q-13 0 -13 -11zM268 402q-19 0 -42 -42.5t-23 -60.5
q0 -12 10 -12q29 0 51 28.5t22 58.5q0 28 -18 28z" />
    <glyph glyph-name="Ebreve" unicode="&#x114;" horiz-adv-x="456" 
d="M471 868q11 -8 11 -23l-1 -7q-12 -48 -50.5 -91t-100.5 -43q-55 0 -81.5 35t-26.5 84q0 9 2 27q3 23 20 30q30 13 47 13q14 0 14 -15q0 -60 33 -60q36 0 60 58q7 14 18 14l7 -1q32 -11 48 -21zM202 247q-3 -8 -7.5 -35t-4.5 -32q0 -13 11 -13q3 0 71 5t87 5q20 0 28 -19
q8 -20 20 -64.5t12 -54.5q0 -15 -16 -17q-256 -22 -281 -22q-17 0 -30 11q-10 10 -20.5 25.5t-26.5 43t-20 33.5q-6 9 -6 21q1 66 30 219t44 204q3 14 3 23q0 4 -0.5 26.5t-0.5 30.5q0 15 19 21q38 8 123.5 14.5t159.5 6.5q50 0 68 -2q21 -2 24 -20q5 -30 8 -114
q0 -17 -18 -19l-206 -11q-14 -1 -20 -15q-2 -5 -6.5 -23.5t-7.5 -33.5t-3 -16q0 -13 14 -13q8 0 62 3t62 3q19 0 25 -20q14 -68 14 -106q0 -17 -20 -17q-78 -4 -168 -12q-17 -1 -23 -16z" />
    <glyph glyph-name="ebreve" unicode="&#x115;" horiz-adv-x="431" 
d="M419 699q11 -8 11 -23l-1 -7q-12 -48 -50.5 -91t-100.5 -43q-55 0 -81.5 35t-26.5 84q0 9 2 27q3 23 20 30q30 13 47 13q14 0 14 -15q0 -60 33 -60q36 0 60 58q7 14 18 14l7 -1q32 -11 48 -21zM185 192q0 -18 12 -30.5t35 -12.5q28 0 68.5 13t42.5 13q12 0 17 -12
q6 -12 14 -40.5t8 -36.5q0 -15 -11 -26q-20 -21 -62 -40.5t-78 -19.5q-45 0 -98 24t-85 68q-31 41 -31 124q0 58 22.5 126t70 121.5t104.5 53.5q42 0 104 -28.5t85 -53.5q31 -34 31 -72q0 -67 -53.5 -115t-135.5 -48q-9 0 -27 1.5t-20 1.5q-13 0 -13 -11zM268 402
q-19 0 -42 -42.5t-23 -60.5q0 -12 10 -12q29 0 51 28.5t22 58.5q0 28 -18 28z" />
    <glyph glyph-name="Edotaccent" unicode="&#x116;" horiz-adv-x="456" 
d="M320 880q101 -6 101 -81q0 -38 -26.5 -63t-69.5 -25q-36 0 -56 22.5t-20 60.5q4 47 40 75q15 11 31 11zM202 247q-3 -8 -7.5 -35t-4.5 -32q0 -13 11 -13q3 0 71 5t87 5q20 0 28 -19q8 -20 20 -64.5t12 -54.5q0 -15 -16 -17q-256 -22 -281 -22q-17 0 -30 11
q-10 10 -20.5 25.5t-26.5 43t-20 33.5q-6 9 -6 21q1 66 30 219t44 204q3 14 3 23q0 4 -0.5 26.5t-0.5 30.5q0 15 19 21q38 8 123.5 14.5t159.5 6.5q50 0 68 -2q21 -2 24 -20q5 -30 8 -114q0 -17 -18 -19l-206 -11q-14 -1 -20 -15q-2 -5 -6.5 -23.5t-7.5 -33.5t-3 -16
q0 -13 14 -13q8 0 62 3t62 3q19 0 25 -20q14 -68 14 -106q0 -17 -20 -17q-78 -4 -168 -12q-17 -1 -23 -16z" />
    <glyph glyph-name="edotaccent" unicode="&#x117;" horiz-adv-x="431" 
d="M271 710q101 -6 101 -81q0 -38 -26.5 -63t-69.5 -25q-36 0 -56 22.5t-20 60.5q4 47 40 75q15 11 31 11zM185 192q0 -18 12 -30.5t35 -12.5q28 0 68.5 13t42.5 13q12 0 17 -12q6 -12 14 -40.5t8 -36.5q0 -15 -11 -26q-20 -21 -62 -40.5t-78 -19.5q-45 0 -98 24t-85 68
q-31 41 -31 124q0 58 22.5 126t70 121.5t104.5 53.5q42 0 104 -28.5t85 -53.5q31 -34 31 -72q0 -67 -53.5 -115t-135.5 -48q-9 0 -27 1.5t-20 1.5q-13 0 -13 -11zM268 402q-19 0 -42 -42.5t-23 -60.5q0 -12 10 -12q29 0 51 28.5t22 58.5q0 28 -18 28z" />
    <glyph glyph-name="Eogonek" unicode="&#x118;" horiz-adv-x="456" 
d="M202 247q-3 -8 -7.5 -35t-4.5 -32q0 -13 11 -13q3 0 71 5t87 5q20 0 28 -19q8 -20 20 -64.5t12 -54.5q0 -15 -16 -17t-51.5 -4.5t-44.5 -3.5q-28 -12 -47.5 -42t-20.5 -52q0 -25 30 -25q15 0 29 6q6 2 9 2q10 0 14 -10q9 -24 12 -37q2 -6 2 -12q0 -10 -10 -20
q-39 -34 -90 -34q-46 0 -73 27t-27 68q0 66 55 119q-48 -4 -68 -4q-17 0 -30 11q-10 10 -20.5 25.5t-26.5 43t-20 33.5q-6 9 -6 21q1 66 30 219t44 204q3 14 3 23q0 4 -0.5 26.5t-0.5 30.5q0 15 19 21q38 8 123.5 14.5t159.5 6.5q50 0 68 -2q21 -2 24 -20q5 -30 8 -114
q0 -17 -18 -19l-206 -11q-14 -1 -20 -15q-2 -5 -6.5 -23.5t-7.5 -33.5t-3 -16q0 -13 14 -13q8 0 62 3t62 3q19 0 25 -20q14 -68 14 -106q0 -17 -20 -17q-78 -4 -168 -12q-17 -1 -23 -16z" />
    <glyph glyph-name="eogonek" unicode="&#x119;" horiz-adv-x="431" 
d="M185 192q0 -18 12 -30.5t35 -12.5q28 0 68.5 13t42.5 13q12 0 17 -12q6 -12 14 -40.5t8 -36.5q0 -15 -11 -26q-19 -20 -59 -39.5t-75 -20.5q-23 -15 -37.5 -40t-15.5 -43q0 -25 30 -25q16 0 29 6q6 2 9 2q10 0 14 -10q9 -24 12 -37q2 -6 2 -12q0 -10 -10 -20
q-39 -34 -90 -34q-46 0 -73 27t-27 68q0 36 20.5 73t49.5 60l5 -1q-71 27 -107 78q-31 41 -31 124q0 58 22.5 126t70 121.5t104.5 53.5q42 0 104 -28.5t85 -53.5q31 -34 31 -72q0 -67 -53.5 -115t-135.5 -48q-9 0 -27 1.5t-20 1.5q-13 0 -13 -11zM268 402q-19 0 -42 -42.5
t-23 -60.5q0 -12 10 -12q29 0 51 28.5t22 58.5q0 28 -18 28z" />
    <glyph glyph-name="Ecaron" unicode="&#x11a;" horiz-adv-x="456" 
d="M339 845q5 -5 9 -5q5 0 12 5q34 25 64 52q4 3 11 3q11 0 17 -8q15 -25 26 -50q2 -6 2 -9q0 -12 -11 -23q-62 -62 -126 -104q-6 -3 -12 -3q-4 0 -8 1.5t-6 3.5l-2 2q-44 43 -98 117q-5 7 -5 15t5 15q18 26 40 49q5 5 13 5t14 -6q9 -9 29.5 -32t25.5 -28zM202 247
q-3 -8 -7.5 -35t-4.5 -32q0 -13 11 -13q3 0 71 5t87 5q20 0 28 -19q8 -20 20 -64.5t12 -54.5q0 -15 -16 -17q-256 -22 -281 -22q-17 0 -30 11q-10 10 -20.5 25.5t-26.5 43t-20 33.5q-6 9 -6 21q1 66 30 219t44 204q3 14 3 23q0 4 -0.5 26.5t-0.5 30.5q0 15 19 21
q38 8 123.5 14.5t159.5 6.5q50 0 68 -2q21 -2 24 -20q5 -30 8 -114q0 -17 -18 -19l-206 -11q-14 -1 -20 -15q-2 -5 -6.5 -23.5t-7.5 -33.5t-3 -16q0 -13 14 -13q8 0 62 3t62 3q19 0 25 -20q14 -68 14 -106q0 -17 -20 -17q-78 -4 -168 -12q-17 -1 -23 -16z" />
    <glyph glyph-name="ecaron" unicode="&#x11b;" horiz-adv-x="431" 
d="M291 674q5 -5 9 -5q5 0 12 5q34 25 64 52q4 3 11 3q11 0 17 -8q15 -25 26 -50q2 -6 2 -9q0 -12 -11 -23q-62 -62 -126 -104q-6 -3 -12 -3q-4 0 -8 2t-6 4l-2 1q-44 43 -98 117q-5 7 -5 15t5 15q18 26 40 49q5 5 13 5t14 -6q9 -9 29.5 -32t25.5 -28zM185 192
q0 -18 12 -30.5t35 -12.5q28 0 68.5 13t42.5 13q12 0 17 -12q6 -12 14 -40.5t8 -36.5q0 -15 -11 -26q-20 -21 -62 -40.5t-78 -19.5q-45 0 -98 24t-85 68q-31 41 -31 124q0 58 22.5 126t70 121.5t104.5 53.5q42 0 104 -28.5t85 -53.5q31 -34 31 -72q0 -67 -53.5 -115
t-135.5 -48q-9 0 -27 1.5t-20 1.5q-13 0 -13 -11zM268 402q-19 0 -42 -42.5t-23 -60.5q0 -12 10 -12q29 0 51 28.5t22 58.5q0 28 -18 28z" />
    <glyph glyph-name="Gcircumflex" unicode="&#x11c;" horiz-adv-x="540" 
d="M390 751q-7 7 -12 7q-8 0 -13 -4l-69 -46q-5 -4 -12 -4q-5 0 -9 2.5t-6 5.5l-2 2q-18 36 -24 50q-3 8 -3 12q1 10 12 19q62 50 139 97q5 3 14 3q8 -1 15 -8q14 -14 32 -36t40.5 -51.5t26.5 -34.5q7 -9 7 -17l-7 -14q-3 -3 -19.5 -21t-24.5 -25q-6 -5 -14 -5
q-3 0 -6.5 1.5t-4.5 3.5l-2 2q-44 43 -58 61zM293 -2q-59 0 -124 33t-92 67q-44 56 -44 159q0 70 19.5 143t53.5 135.5t86 102t112 39.5q26 0 65 -10t79.5 -28t69.5 -49t29 -67q0 -22 -22 -84q-6 -15 -24 -17q-25 -1 -115 -1q-19 0 -19 22q0 1 2.5 22t2.5 37t-7.5 27
t-21.5 11q-49 0 -92 -90t-43 -190q0 -55 20 -82t49 -27q28 0 53 23.5t25 48.5q0 7 -11 7q-9 0 -19.5 -1t-16.5 -1q-20 0 -24 20q-8 43 -8 87q0 18 20 21q51 7 129 7q34 0 44 -1q20 -2 25 -20q7 -22 17.5 -72.5t10.5 -61.5q0 -14 -4 -23q-10 -28 -27 -57t-44 -60t-67.5 -50.5
t-86.5 -19.5z" />
    <glyph glyph-name="gcircumflex" unicode="&#x11d;" horiz-adv-x="476" 
d="M15 191q0 48 13 102t38 105t70 84.5t102 33.5q37 0 114.5 -29t120.5 -57q10 -7 10 -23l-1 -8q-15 -62 -71 -374q-5 -28 -18 -59t-37 -66.5t-66 -58.5t-94 -23q-30 0 -71 14t-64 31q-12 8 -12 23l1 7q11 46 21 76q5 12 15 12l6 -1q44 -18 72 -18q47 1 72.5 34.5t25.5 74.5
q0 9 -3 9t-7 -6q-46 -63 -84 -63q-54 0 -103.5 55t-49.5 125zM257 193q9 9 11 20q3 21 8 44.5t11 51.5t9 43v5q0 21 -24 21q-38 0 -62.5 -62.5t-24.5 -115.5q0 -42 14 -42q21 0 58 35zM325 589q-6 6 -12 6t-13 -5l-66 -49q-6 -3 -13 -3q-10 0 -15 8t-28 48q-2 4 -2 11
q0 12 10 20q23 21 64.5 54t69.5 51q6 4 13 4t17 -8q12 -10 105 -115q6 -6 6 -17q0 -7 -5 -14q-2 -2 -18 -22t-24 -28q-5 -5 -14 -5q-8 0 -14 6q-45 42 -61 58z" />
    <glyph glyph-name="Gbreve" unicode="&#x11e;" horiz-adv-x="540" 
d="M512 862q11 -8 11 -23l-1 -7q-12 -48 -50.5 -91t-100.5 -43q-55 0 -81.5 35t-26.5 84q0 9 2 27q3 23 20 30q30 13 47 13q14 0 14 -15q0 -60 33 -60q36 0 60 58q7 14 18 14l7 -1q32 -11 48 -21zM293 -2q-59 0 -124 33t-92 67q-44 56 -44 159q0 70 19.5 143t53.5 135.5
t86 102t112 39.5q26 0 65 -10t79.5 -28t69.5 -49t29 -67q0 -22 -22 -84q-6 -15 -24 -17q-25 -1 -115 -1q-19 0 -19 22q0 1 2.5 22t2.5 37t-7.5 27t-21.5 11q-49 0 -92 -90t-43 -190q0 -55 20 -82t49 -27q28 0 53 23.5t25 48.5q0 7 -11 7q-9 0 -19.5 -1t-16.5 -1
q-20 0 -24 20q-8 43 -8 87q0 18 20 21q51 7 129 7q34 0 44 -1q20 -2 25 -20q7 -22 17.5 -72.5t10.5 -61.5q0 -14 -4 -23q-10 -28 -27 -57t-44 -60t-67.5 -50.5t-86.5 -19.5z" />
    <glyph glyph-name="gbreve" unicode="&#x11f;" horiz-adv-x="476" 
d="M15 191q0 48 13 102t38 105t70 84.5t102 33.5q37 0 114.5 -29t120.5 -57q10 -7 10 -23l-1 -8q-15 -62 -71 -374q-5 -28 -18 -59t-37 -66.5t-66 -58.5t-94 -23q-30 0 -71 14t-64 31q-12 8 -12 23l1 7q11 46 21 76q5 12 15 12l6 -1q44 -18 72 -18q47 1 72.5 34.5t25.5 74.5
q0 9 -3 9t-7 -6q-46 -63 -84 -63q-54 0 -103.5 55t-49.5 125zM257 193q9 9 11 20q3 21 8 44.5t11 51.5t9 43v5q0 21 -24 21q-38 0 -62.5 -62.5t-24.5 -115.5q0 -42 14 -42q21 0 58 35zM453 701q11 -8 11 -23l-1 -7q-12 -48 -50.5 -91t-100.5 -43q-55 0 -81.5 35t-26.5 84
q0 9 2 27q3 23 20 30q30 13 47 13q14 0 14 -15q0 -60 33 -60q36 0 60 58q7 14 18 14l7 -1q32 -11 48 -21z" />
    <glyph glyph-name="Gdotaccent" unicode="&#x120;" horiz-adv-x="540" 
d="M363 870q101 -6 101 -81q0 -38 -26.5 -63t-69.5 -25q-36 0 -56 22.5t-20 60.5q4 47 40 75q15 11 31 11zM293 -2q-59 0 -124 33t-92 67q-44 56 -44 159q0 70 19.5 143t53.5 135.5t86 102t112 39.5q26 0 65 -10t79.5 -28t69.5 -49t29 -67q0 -22 -22 -84q-6 -15 -24 -17
q-25 -1 -115 -1q-19 0 -19 22q0 1 2.5 22t2.5 37t-7.5 27t-21.5 11q-49 0 -92 -90t-43 -190q0 -55 20 -82t49 -27q28 0 53 23.5t25 48.5q0 7 -11 7q-9 0 -19.5 -1t-16.5 -1q-20 0 -24 20q-8 43 -8 87q0 18 20 21q51 7 129 7q34 0 44 -1q20 -2 25 -20q7 -22 17.5 -72.5
t10.5 -61.5q0 -14 -4 -23q-10 -28 -27 -57t-44 -60t-67.5 -50.5t-86.5 -19.5z" />
    <glyph glyph-name="gdotaccent" unicode="&#x121;" horiz-adv-x="476" 
d="M15 191q0 48 13 102t38 105t70 84.5t102 33.5q37 0 114.5 -29t120.5 -57q10 -7 10 -23l-1 -8q-15 -62 -71 -374q-5 -28 -18 -59t-37 -66.5t-66 -58.5t-94 -23q-30 0 -71 14t-64 31q-12 8 -12 23l1 7q11 46 21 76q5 12 15 12l6 -1q44 -18 72 -18q47 1 72.5 34.5t25.5 74.5
q0 9 -3 9t-7 -6q-46 -63 -84 -63q-54 0 -103.5 55t-49.5 125zM257 193q9 9 11 20q3 21 8 44.5t11 51.5t9 43v5q0 21 -24 21q-38 0 -62.5 -62.5t-24.5 -115.5q0 -42 14 -42q21 0 58 35zM313 707q101 -6 101 -81q0 -38 -26.5 -63t-69.5 -25q-36 0 -56 22.5t-20 60.5
q4 47 40 75q15 11 31 11z" />
    <glyph glyph-name="uni0122" unicode="&#x122;" horiz-adv-x="540" 
d="M292 -59q12 -6 12 -25v-5q-13 -63 -50 -129q-7 -12 -26 -12h-5q-10 3 -51 18q-12 5 -12 22q0 1 0.5 3t0.5 3q25 89 31 138q2 17 16 17q11 0 40 -10.5t44 -19.5zM293 -2q-59 0 -124 33t-92 67q-44 56 -44 159q0 70 19.5 143t53.5 135.5t86 102t112 39.5q26 0 65 -10
t79.5 -28t69.5 -49t29 -67q0 -22 -22 -84q-6 -15 -24 -17q-25 -1 -115 -1q-19 0 -19 22q0 1 2.5 22t2.5 37t-7.5 27t-21.5 11q-49 0 -92 -90t-43 -190q0 -55 20 -82t49 -27q28 0 53 23.5t25 48.5q0 7 -11 7q-9 0 -19.5 -1t-16.5 -1q-20 0 -24 20q-8 43 -8 87q0 18 20 21
q51 7 129 7q34 0 44 -1q20 -2 25 -20q7 -22 17.5 -72.5t10.5 -61.5q0 -14 -4 -23q-10 -28 -27 -57t-44 -60t-67.5 -50.5t-86.5 -19.5z" />
    <glyph glyph-name="uni0123" unicode="&#x123;" horiz-adv-x="476" 
d="M15 191q0 48 13 102t38 105t70 84.5t102 33.5q37 0 114.5 -29t120.5 -57q10 -7 10 -23l-1 -8q-15 -62 -71 -374q-5 -28 -18 -59t-37 -66.5t-66 -58.5t-94 -23q-30 0 -71 14t-64 31q-12 8 -12 23l1 7q11 46 21 76q5 12 15 12l6 -1q44 -18 72 -18q47 1 72.5 34.5t25.5 74.5
q0 9 -3 9t-7 -6q-46 -63 -84 -63q-54 0 -103.5 55t-49.5 125zM257 193q9 9 11 20q3 21 8 44.5t11 51.5t9 43v5q0 21 -24 21q-38 0 -62.5 -62.5t-24.5 -115.5q0 -42 14 -42q21 0 58 35zM273 558q-12 6 -12 25v5q13 63 50 129q7 12 26 12h5q10 -3 51 -18q12 -5 12 -22
q0 -1 -0.5 -3t-0.5 -3q-25 -89 -31 -138q-2 -17 -16 -17q-11 0 -40 10.5t-44 19.5z" />
    <glyph glyph-name="Hcircumflex" unicode="&#x124;" horiz-adv-x="535" 
d="M425 660q6 15 21 15q9 0 62.5 -15t68.5 -21q13 -5 13 -18l-1 -6q-27 -79 -64 -257t-56 -340q-1 -15 -17 -15q-17 0 -64.5 13t-60.5 19q-16 7 -17 27q0 14 5.5 72.5t5.5 59.5q0 12 -12 12q-33 0 -87 -4q-17 -2 -20 -18q-12 -71 -23 -166q-2 -16 -20 -16q-17 0 -62.5 13
t-60.5 20q-15 6 -16 27q1 36 12 132q0 1 0.5 3.5t0.5 4.5q0 8 -9.5 52t-9.5 50q0 19 21 24t23 20q40 222 76 312q6 14 24 14q14 0 62.5 -13.5t66.5 -21.5q13 -5 13 -18l-1 -6q-21 -55 -62 -242q-1 -5 -1 -8q0 -13 15 -13q54 2 79 2q17 0 21 18q44 218 74 288zM379 760
q-6 6 -12 6t-13 -5l-65 -50q-5 -4 -13 -4q-10 0 -16 8q-5 8 -28 48q-3 5 -3 10q0 13 10 21q68 63 132 107q6 4 13 4q10 0 17 -7q26 -23 107 -114q7 -7 7 -17q0 -7 -5 -14q-4 -5 -19 -23.5t-22 -26.5q-5 -5 -14 -5l-14 5q-46 41 -62 57z" />
    <glyph glyph-name="hcircumflex" unicode="&#x125;" horiz-adv-x="480" 
d="M243 425q58 89 113 89q33 0 77 -43t44 -80q0 -32 -24 -160.5t-45 -211.5q-5 -17 -22 -17q-14 0 -59.5 15.5t-67.5 26.5q-12 7 -12 22l1 8q47 191 47 258q0 24 -8 24t-26.5 -11t-36.5 -30q-13 -13 -17 -32q-31 -159 -43 -264q-2 -16 -18 -16t-61.5 13t-59.5 20
q-16 7 -16 28q3 110 46.5 327.5t75.5 293.5q6 15 22 15q18 0 129 -37q13 -4 13 -16l-2 -9q-33 -103 -57 -210q-1 -5 -1 -6q0 -3 2 -3q1 0 6 6zM239 762q-7 7 -12 7q-8 0 -13 -4l-69 -46q-5 -4 -12 -4q-5 0 -9 2.5t-6 4.5l-2 3q-18 36 -24 50q-3 7 -3 12q1 10 12 19
q62 50 139 97q5 3 14 3q8 -1 15 -8q14 -14 32 -36t40.5 -51.5t26.5 -34.5q7 -9 7 -17l-7 -14q-3 -3 -19.5 -21t-24.5 -25q-6 -5 -14 -5q-3 0 -6.5 2t-5.5 4l-1 1q-44 43 -58 61z" />
    <glyph glyph-name="Hbar" unicode="&#x126;" horiz-adv-x="534" 
d="M425 660q6 15 21 15q9 0 62.5 -15t68.5 -21q13 -5 13 -18l-1 -6q-27 -79 -64 -257t-56 -340q-1 -15 -17 -15q-17 0 -64.5 13t-60.5 19q-16 7 -17 27q0 14 5.5 72.5t5.5 59.5q0 12 -12 12q-33 0 -87 -4q-17 -2 -20 -18q-12 -71 -23 -166q-2 -16 -20 -16q-17 0 -62.5 13
t-60.5 20q-15 6 -16 27q1 36 12 132q0 1 0.5 3.5t0.5 4.5q0 8 -9.5 52t-9.5 50q0 19 21 24t23 20q2 9 4.5 25t5 29t5.5 24q-18 4 -24 16q-5 10 -9 58q0 17 16 20q1 0 6 0.5t14.5 1.5t18.5 2q22 94 39 136q6 14 24 14q14 0 62.5 -13.5t66.5 -21.5q13 -5 13 -18l-1 -6
q-9 -23 -22 -72q52 2 113 2q18 73 35 115zM364 434l-115 -4l-12 -57q-1 -5 -1 -8q0 -13 15 -13q54 2 79 2q17 0 21 18q7 37 13 62z" />
    <glyph glyph-name="hbar" unicode="&#x127;" horiz-adv-x="490" 
d="M243 425q58 89 113 89q33 0 77 -43t44 -80q0 -32 -24 -160.5t-45 -211.5q-5 -17 -22 -17q-14 0 -59.5 15.5t-67.5 26.5q-12 7 -12 22l1 8q47 191 47 258q0 24 -8 24t-26.5 -11t-36.5 -30q-13 -13 -17 -32q-31 -159 -43 -264q-2 -16 -18 -16t-61.5 13t-59.5 20
q-16 7 -16 28q2 75 25 212t52 257h-13q-8 0 -14.5 5.5t-6.5 13.5v14q0 24 1 35q0 7 6.5 14t13.5 8l37 3q7 24 21 59q6 15 22 15q18 0 129 -37q13 -4 13 -16l-2 -9l-4 -12h30q8 -1 14.5 -7.5t6.5 -14.5q0 -25 -5 -55q-1 -8 -8.5 -13t-14.5 -5h-51q-9 -34 -25 -103
q-1 -5 -1 -6q0 -3 2 -3q1 0 6 6z" />
    <glyph glyph-name="Itilde" unicode="&#x128;" horiz-adv-x="234" 
d="M168 18q-2 -15 -17 -15q-19 0 -63.5 12t-59.5 19q-15 6 -15 27q1 106 41 317.5t71 281.5q5 14 21 14q24 0 129 -35q14 -5 14 -19l-1 -5q-27 -79 -64 -257t-56 -340zM294 697q-24 0 -65 21t-63 21q-28 0 -53 -25q-5 -5 -9 -5q-6 0 -7 9l-17 62q-2 8 -2 12q0 15 7 22
q45 50 85 50q24 0 60.5 -20.5t56.5 -20.5q28 0 55 27q5 4 9 4q5 0 8 -7l16 -65q2 -8 2 -12q0 -13 -6 -22q-36 -51 -77 -51z" />
    <glyph glyph-name="itilde" unicode="&#x129;" horiz-adv-x="229" 
d="M164 18q-3 -17 -19 -17q-13 0 -59.5 12.5t-63.5 19.5q-16 7 -16 28q5 83 29 226t44 206q5 17 25 17q12 0 64 -12t64 -18q13 -6 13 -19l-1 -6q-62 -272 -80 -437zM248 542q-24 0 -65 21t-63 21q-28 0 -53 -25q-5 -5 -9 -5q-6 0 -7 9l-17 62q-2 8 -2 12q0 15 7 22
q45 50 85 50q24 0 60.5 -20.5t56.5 -20.5q28 0 55 27q5 4 9 4q5 0 8 -7l16 -65q2 -8 2 -12q0 -13 -6 -22q-36 -51 -77 -51z" />
    <glyph glyph-name="Imacron" unicode="&#x12a;" horiz-adv-x="234" 
d="M168 18q-2 -15 -17 -15q-19 0 -63.5 12t-59.5 19q-15 6 -15 27q1 106 41 317.5t71 281.5q5 14 21 14q24 0 129 -35q14 -5 14 -19l-1 -5q-27 -79 -64 -257t-56 -340zM86 807q4 18 24 22q43 8 149 8q60 0 80 -4q20 -5 22 -24q0 -1 0.5 -5t0.5 -7q0 -39 -7 -64
q-5 -19 -28 -19q-11 0 -109 1t-109 1q-20 0 -24 19q-2 12 -2 28q0 29 3 44z" />
    <glyph glyph-name="imacron" unicode="&#x12b;" horiz-adv-x="229" 
d="M164 18q-3 -17 -19 -17q-13 0 -59.5 12.5t-63.5 19.5q-16 7 -16 28q5 83 29 226t44 206q5 17 25 17q12 0 64 -12t64 -18q13 -6 13 -19l-1 -6q-62 -272 -80 -437zM48 649q4 18 24 22q43 8 149 8q60 0 80 -4q20 -5 22 -24q0 -1 0.5 -5t0.5 -7q0 -39 -7 -64q-5 -19 -28 -19
q-10 0 -108.5 1t-109.5 1q-20 0 -24 19q-2 12 -2 28q0 29 3 44z" />
    <glyph glyph-name="Iogonek" unicode="&#x12e;" horiz-adv-x="234" 
d="M168 18q-2 -15 -17 -15q-32 -11 -53 -37.5t-22 -48.5q0 -25 30 -25q16 0 29 6q6 2 9 2q10 0 14 -10q9 -24 12 -37q2 -6 2 -12q0 -10 -10 -20q-39 -34 -90 -34q-46 0 -73 27t-27 68q0 44 29 82.5t67 55.5l-40 14q-15 6 -15 27q1 106 41 317.5t71 281.5q5 14 21 14
q24 0 129 -35q14 -5 14 -19l-1 -5q-27 -79 -64 -257t-56 -340z" />
    <glyph glyph-name="iogonek" unicode="&#x12f;" horiz-adv-x="229" 
d="M164 18q-3 -17 -19 -17q-32 -11 -53 -37t-22 -47q0 -25 30 -25q16 0 29 6q6 2 9 2q10 0 14 -10q9 -24 12 -37q2 -6 2 -12q0 -10 -10 -20q-39 -34 -90 -34q-46 0 -73 27t-27 68q0 44 29.5 82t68.5 55l-42 14q-16 7 -16 28q5 83 29 226t44 206q5 17 25 17q12 0 64 -12
t64 -18q13 -6 13 -19l-1 -6q-62 -272 -80 -437zM172 733q53 0 85 -26t32 -65q0 -43 -31 -71t-82 -28q-43 0 -65.5 26t-22.5 67q0 46 48 86q14 11 36 11z" />
    <glyph glyph-name="Idotaccent" unicode="&#x130;" horiz-adv-x="234" 
d="M168 18q-2 -15 -17 -15q-19 0 -63.5 12t-59.5 19q-15 6 -15 27q1 106 41 317.5t71 281.5q5 14 21 14q24 0 129 -35q14 -5 14 -19l-1 -5q-27 -79 -64 -257t-56 -340zM223 868q101 -6 101 -81q0 -38 -26.5 -63t-69.5 -25q-36 0 -56 22.5t-20 60.5q4 47 40 75q15 11 31 11z
" />
    <glyph glyph-name="dotlessi" unicode="&#x131;" horiz-adv-x="229" 
d="M164 18q-3 -17 -19 -17q-13 0 -59.5 12.5t-63.5 19.5q-16 7 -16 28q5 83 29 226t44 206q5 17 25 17q12 0 64 -12t64 -18q13 -6 13 -19l-1 -6q-62 -272 -80 -437z" />
    <glyph glyph-name="IJ" unicode="&#x132;" horiz-adv-x="687" 
d="M168 18q-2 -15 -17 -15q-19 0 -63.5 12t-59.5 19q-15 6 -15 27q1 106 41 317.5t71 281.5q5 14 21 14q24 0 129 -35q14 -5 14 -19l-1 -5q-27 -79 -64 -257t-56 -340zM374 289q16 0 18 -17q10 -129 33 -129q18 0 35 37.5t31.5 108t24 123.5t21.5 133t13 88l3 19q2 15 19 15
q8 0 65 -8.5t70 -12.5q14 -4 14 -22q0 -33 -25 -186.5t-54 -246.5q-29 -95 -77 -144t-101 -49q-24 0 -53.5 4.5t-73.5 24t-65 52.5q-14 21 -25 67.5t-11 81.5v10q2 17 17 23q10 4 61 15.5t60 12.5z" />
    <glyph glyph-name="ij" unicode="&#x133;" horiz-adv-x="457" 
d="M172 733q53 0 85 -26t32 -65q0 -43 -31 -71t-82 -28q-43 0 -65.5 26t-22.5 67q0 46 48 86q14 11 36 11zM164 18q-3 -17 -19 -17q-13 0 -59.5 12.5t-63.5 19.5q-16 7 -16 28q5 83 29 226t44 206q5 17 25 17q12 0 64 -12t64 -18q13 -6 13 -19l-1 -6q-62 -272 -80 -437z
M283 -176q-11 -7 -21 -7l-14 3q-51 23 -92 59q-4 4 -4 10q0 4 2 7.5t4 5.5l1 1q46 36 63 111q9 41 41 234t43 247q3 17 21 17q45 0 125 -20q16 -4 16 -22l-1 -10q-9 -70 -36 -227t-40 -211q-32 -143 -108 -198zM398 733q53 0 85 -26t32 -65q0 -43 -31 -71t-82 -28
q-43 0 -65.5 26t-22.5 67q0 46 48 86q14 11 36 11z" />
    <glyph glyph-name="Jcircumflex" unicode="&#x134;" horiz-adv-x="454" 
d="M141 289q16 0 18 -17q10 -129 33 -129q18 0 35 37.5t31.5 108t24 123t21.5 132.5t13 88l3 19q2 15 19 15q8 0 65 -8t70 -12q14 -4 14 -22q0 -33 -25 -186.5t-54 -246.5q-29 -95 -77 -144t-101 -49q-24 0 -53.5 4.5t-73.5 24t-65 52.5q-14 21 -25 67.5t-11 81.5v10
q2 17 17 23q10 4 61 15.5t60 12.5zM426 750q-7 7 -12 7q-8 0 -13 -4l-69 -46q-5 -4 -12 -4q-5 0 -9 2.5t-6 4.5l-2 3q-18 36 -24 50q-3 7 -3 12q1 10 12 19q62 50 139 97q5 3 14 3q8 -1 15 -8q14 -14 32 -36t40.5 -51.5t26.5 -34.5q7 -9 7 -17l-7 -14q-3 -3 -19.5 -21
t-24.5 -25q-6 -5 -14 -5q-3 0 -6.5 2t-4.5 4l-2 1q-44 43 -58 61z" />
    <glyph glyph-name="jcircumflex" unicode="&#x135;" horiz-adv-x="229" 
d="M55 -176q-11 -7 -21 -7l-14 3q-51 23 -92 59q-4 4 -4 10q0 4 2 7.5t4 5.5l1 1q46 36 63 111q9 41 41 234t43 247q3 17 21 17q45 0 125 -20q16 -4 16 -22l-1 -10q-9 -70 -36 -227t-40 -211q-32 -143 -108 -198zM182 596q-7 7 -12 7q-8 0 -13 -4l-69 -46q-5 -4 -12 -4
q-5 0 -9 2.5t-6 4.5l-2 3q-18 36 -24 50q-3 7 -3 12q1 10 12 19q62 50 139 97q5 3 14 3q8 -1 15 -8q14 -14 32 -36t40.5 -51.5t26.5 -34.5q7 -9 7 -17l-7 -14q-3 -3 -19.5 -21t-24.5 -25q-6 -5 -14 -5q-3 0 -6.5 2t-4.5 4l-2 1q-44 43 -58 61z" />
    <glyph glyph-name="uni0136" unicode="&#x136;" horiz-adv-x="525" 
d="M292 -59q12 -6 12 -25v-5q-13 -63 -50 -129q-7 -12 -26 -12h-5q-10 3 -51 18q-12 5 -12 22q0 1 0.5 3t0.5 3q25 89 31 138q2 17 16 17q11 0 40 -10.5t44 -19.5zM572 572q5 -7 5 -12q0 -8 -7 -15q-18 -18 -88 -96.5t-108 -119.5q-5 -7 -5 -14q0 -6 3 -12q73 -141 124 -190
q8 -6 8 -14q0 -7 -6 -12q-24 -21 -61 -46.5t-62 -35.5q-9 -3 -14 -3q-10 0 -20 8q-50 47 -105 221q-4 17 -15 17h-4q-12 0 -15 -17q-23 -133 -31 -214q-1 -15 -17 -15q-11 0 -59 12.5t-64 19.5q-18 8 -18 27q0 89 41.5 308.5t71.5 290.5q4 13 21 13q9 0 58.5 -12.5
t72.5 -21.5q14 -5 14 -19l-1 -5q-18 -50 -56 -211q-1 -5 -1 -6q0 -10 8 -10q10 0 21 14q36 49 99.5 143t79.5 115q6 9 17 9q5 0 10 -3q57 -39 103 -94z" />
    <glyph glyph-name="uni0137" unicode="&#x137;" horiz-adv-x="475" 
d="M347 262q-8 -6 -8 -15q0 -5 3 -9q46 -76 95 -127q7 -7 7 -15q0 -7 -5 -12q-56 -53 -121 -80q-6 -2 -13 -2q-13 0 -22 9q-19 19 -39 63t-32 85q-5 20 -14 20q-10 0 -14 -20q-14 -91 -19 -140q-3 -16 -19 -16t-59.5 12.5t-60.5 20.5q-16 7 -16 28q2 110 45.5 328t76.5 293
q6 15 22 15q9 0 60 -15.5t69 -21.5q13 -4 13 -19l-1 -6q-41 -124 -78 -307q-1 -5 -1 -7q0 -8 5 -8t17 15l127 168q6 8 16 8q7 0 11 -3q48 -30 94 -88q4 -5 4 -12q0 -9 -8 -17zM259 -59q12 -6 12 -25v-5q-13 -63 -50 -129q-7 -12 -26 -12h-5q-10 3 -51 18q-12 5 -12 22
q0 1 0.5 3t0.5 3q25 89 31 138q2 17 16 17q11 0 40 -10.5t44 -19.5z" />
    <glyph glyph-name="kgreenlandic" unicode="&#x138;" horiz-adv-x="473" 
d="M345 262q-8 -6 -8 -15q0 -5 3 -9q43 -73 95 -127q7 -7 7 -15q0 -7 -5 -12q-53 -52 -121 -80q-6 -2 -11 -2q-15 0 -24 9q-19 19 -39 63t-32 85q-5 20 -15 20q-9 0 -13 -20q-13 -79 -20 -140q-3 -16 -18 -16q-14 0 -58 12.5t-63 20.5q-17 8 -17 28q3 65 27.5 215.5
t43.5 219.5q2 15 21 15q34 0 130 -36q12 -5 12 -20l-1 -8q-4 -21 -12.5 -60.5t-11.5 -56.5q-1 -6 -1 -8q0 -9 5 -9q7 0 17 15l127 168q6 8 16 8q5 0 10 -3q50 -32 95 -88q4 -5 4 -11q0 -10 -8 -18z" />
    <glyph glyph-name="Lacute" unicode="&#x139;" horiz-adv-x="418" 
d="M347 183q20 0 27 -18q5 -13 15.5 -63.5t10.5 -59.5q0 -15 -18 -17q-253 -23 -256 -23q-16 0 -26 10q-41 47 -70 104q-8 16 -8 31q0 61 34.5 239.5t69.5 273.5q6 14 22 14q14 0 60 -12t72 -22q12 -5 12 -20l-1 -6q-48 -141 -95 -420q-1 -5 -1 -6q0 -14 14 -14
q5 0 68.5 4.5t69.5 4.5zM152 795q99 65 133 97q8 8 17 8q8 0 13 -7q29 -41 44 -87q2 -6 2 -11q0 -14 -10 -21q-26 -20 -75.5 -44.5t-81.5 -33.5q-5 -1 -7 -1q-15 0 -22 12q-9 17 -24 57q-1 3 -1 8q0 14 12 23z" />
    <glyph glyph-name="lacute" unicode="&#x13a;" horiz-adv-x="214" 
d="M163 19q-2 -16 -18 -16q-13 0 -58 13t-62 20q-16 6 -16 28q0 94 44.5 319.5t76.5 301.5q5 15 21 15q11 0 63.5 -15.5t66.5 -21.5q13 -5 13 -19l-1 -6q-29 -87 -69 -269t-61 -350zM150 819q99 65 133 97q8 8 17 8q8 0 13 -7q29 -41 44 -87q2 -6 2 -11q0 -14 -10 -21
q-26 -20 -75.5 -44.5t-81.5 -33.5q-5 -1 -7 -1q-15 0 -22 12q-9 17 -24 57q-1 3 -1 8q0 14 12 23z" />
    <glyph glyph-name="uni013B" unicode="&#x13b;" horiz-adv-x="418" 
d="M347 183q20 0 27 -18q5 -13 15.5 -63.5t10.5 -59.5q0 -15 -18 -17q-253 -23 -256 -23q-16 0 -26 10q-41 47 -70 104q-8 16 -8 31q0 61 34.5 239.5t69.5 273.5q6 14 22 14q14 0 60 -12t72 -22q12 -5 12 -20l-1 -6q-48 -141 -95 -420q-1 -5 -1 -6q0 -14 14 -14
q5 0 68.5 4.5t69.5 4.5zM250 -59q12 -6 12 -25v-5q-13 -63 -50 -129q-7 -12 -26 -12h-5q-10 3 -51 18q-12 5 -12 22q0 1 0.5 3t0.5 3q25 89 31 138q2 17 16 17q11 0 40 -10.5t44 -19.5z" />
    <glyph glyph-name="uni013C" unicode="&#x13c;" horiz-adv-x="234" 
d="M163 19q-2 -16 -18 -16q-13 0 -58 13t-62 20q-16 6 -16 28q0 94 44.5 319.5t76.5 301.5q5 15 21 15q11 0 63.5 -15.5t66.5 -21.5q13 -5 13 -19l-1 -6q-29 -87 -69 -269t-61 -350zM119 -59q12 -6 12 -25v-5q-13 -63 -50 -129q-7 -12 -26 -12h-5q-10 3 -51 18q-12 5 -12 22
q0 1 0.5 3t0.5 3q25 89 31 138q2 17 16 17q11 0 40 -10.5t44 -19.5z" />
    <glyph glyph-name="Lcaron" unicode="&#x13d;" horiz-adv-x="418" 
d="M347 183q20 0 27 -18q5 -13 15.5 -63.5t10.5 -59.5q0 -15 -18 -17q-253 -23 -256 -23q-16 0 -26 10q-41 47 -70 104q-8 16 -8 31q0 61 34.5 239.5t69.5 273.5q6 14 22 14q14 0 60 -12t72 -22q12 -5 12 -20l-1 -6q-48 -141 -95 -420q-1 -5 -1 -6q0 -14 14 -14
q5 0 68.5 4.5t69.5 4.5zM235 834q5 -5 9 -5q5 0 12 5q34 25 64 52q4 3 11 3q11 0 17 -8q15 -25 26 -50q2 -6 2 -9q0 -12 -11 -23q-62 -62 -126 -104q-6 -3 -12 -3q-4 0 -8 2t-6 4l-2 1q-44 43 -98 117q-5 7 -5 15t5 15q18 26 40 49q5 5 13 5t14 -6q9 -9 29.5 -32t25.5 -28z
" />
    <glyph glyph-name="lcaron" unicode="&#x13e;" horiz-adv-x="234" 
d="M163 19q-2 -16 -18 -16q-13 0 -58 13t-62 20q-16 6 -16 28q0 94 44.5 319.5t76.5 301.5q5 15 21 15q11 0 63.5 -15.5t66.5 -21.5q13 -5 13 -19l-1 -6q-29 -87 -69 -269t-61 -350zM412 579q-5 -16 -24 -16q-36 8 -50 14q-15 7 -15 24v4q9 73 41 149q7 16 27 16
q24 -5 59 -20q12 -6 12 -21q0 -5 -1 -7q-5 -16 -15 -41t-18 -49.5t-16 -52.5z" />
    <glyph glyph-name="Ldot" unicode="&#x13f;" horiz-adv-x="482" 
d="M347 183q20 0 27 -18q5 -13 15.5 -63.5t10.5 -59.5q0 -15 -18 -17q-253 -23 -256 -23q-16 0 -26 10q-41 47 -70 104q-8 16 -8 31q0 61 34.5 239.5t69.5 273.5q6 14 22 14q14 0 60 -12t72 -22q12 -5 12 -20l-1 -6q-48 -141 -95 -420q-1 -5 -1 -6q0 -14 14 -14
q5 0 68.5 4.5t69.5 4.5zM371 462q46 0 73 -26t27 -64q0 -42 -25 -69t-67 -27t-62.5 25t-20.5 65q0 50 43 85q13 11 32 11z" />
    <glyph glyph-name="ldot" unicode="&#x140;" horiz-adv-x="452" 
d="M163 19q-2 -16 -18 -16q-13 0 -58 13t-62 20q-16 6 -16 28q0 94 44.5 319.5t76.5 301.5q5 15 21 15q11 0 63.5 -15.5t66.5 -21.5q13 -5 13 -19l-1 -6q-29 -87 -69 -269t-61 -350zM343 425q46 0 73 -26t27 -64q0 -42 -25 -69t-67 -27t-62.5 25t-20.5 65q0 50 43 85
q13 11 32 11z" />
    <glyph glyph-name="Lslash" unicode="&#x141;" horiz-adv-x="447" 
d="M376 183q20 0 27 -18q5 -13 15.5 -63.5t10.5 -59.5q0 -15 -18 -17q-253 -23 -256 -23q-16 0 -26 10q-41 47 -70 104q-8 16 -8 31q0 33 15 133l-26 -7q-1 0 -2.5 -0.5t-2.5 -0.5q-15 0 -19 15q-6 32 -8 75q0 18 15 24q45 15 66 21q33 165 66 253q6 14 22 14q14 0 60 -12
t72 -22q12 -5 12 -20l-1 -6q-17 -49 -42 -156q11 3 27.5 7t17.5 4h4q18 0 21 -16t6 -80q0 -19 -18 -24q-4 -1 -35 -8.5t-52 -13.5q-20 -109 -24 -133q-1 -5 -1 -6q0 -14 14 -14q5 0 68.5 4.5t69.5 4.5z" />
    <glyph glyph-name="lslash" unicode="&#x142;" horiz-adv-x="319" 
d="M193 19q-2 -16 -18 -16q-13 0 -58 13t-62 20q-16 6 -16 28q0 67 25 214l-23 -6q-3 -1 -5 -1q-16 0 -20 15q-6 44 -9 75q0 18 16 25l65 20q41 207 72 279q5 15 21 15q11 0 63.5 -15.5t66.5 -21.5q13 -5 13 -19l-1 -6q-21 -60 -50 -184l31 7q7 1 8 1q18 0 21 -16
q4 -24 7 -79q0 -8 -6 -15.5t-14 -9.5q-63 -15 -76 -19q-32 -153 -51 -304z" />
    <glyph glyph-name="Nacute" unicode="&#x143;" horiz-adv-x="535" 
d="M299 783q99 65 133 97q8 8 17 8q8 0 13 -7q29 -41 44 -87q2 -6 2 -11q0 -14 -10 -21q-26 -20 -75.5 -44.5t-81.5 -33.5q-5 -1 -7 -1q-15 0 -22 12q-9 17 -24 57q-1 3 -1 8q0 14 12 23zM427 660q4 13 22 13q14 0 63 -12.5t65 -19.5q13 -7 13 -20l-1 -6q-28 -88 -66 -263.5
t-55 -333.5q-2 -16 -19 -16q-21 0 -80.5 11t-82.5 21q-16 7 -22 26q-6 16 -12 62t-9.5 88t-8.5 98.5t-6 67.5q0 7 -4 7q-3 0 -4 -7q-33 -183 -52 -357q-2 -17 -19 -17q-13 0 -57 12t-62 20q-17 7 -17 28q4 103 45.5 314t70.5 283q6 15 23 15t78 -11t87 -21q19 -9 21 -27
q2 -27 5 -82.5t5.5 -117.5t3.5 -80q0 -8 4 -8q2 0 4 8q31 231 67 325z" />
    <glyph glyph-name="nacute" unicode="&#x144;" horiz-adv-x="482" 
d="M243 431q56 83 108 83q37 0 82.5 -43t45.5 -80q0 -36 -23.5 -162.5t-44.5 -210.5q-6 -17 -23 -17q-18 0 -64 16.5t-61 26.5q-13 9 -13 22l1 8q46 202 46 258q0 24 -8 24q-7 0 -26.5 -11.5t-33.5 -26.5q-12 -12 -16 -32q-45 -230 -53 -268q-5 -16 -20 -16q-17 0 -63 14.5
t-61 22.5q-13 7 -13 25l1 8q29 146 68 429q3 17 22 17q14 0 58.5 -8.5t59.5 -13.5q17 -6 18 -28l2 -33q0 -9 4 -9zM218 636q99 65 133 97q8 8 17 8q8 0 13 -7q29 -41 44 -87q2 -6 2 -11q0 -14 -10 -21q-26 -20 -75.5 -44.5t-81.5 -33.5q-5 -1 -7 -1q-15 0 -22 12
q-9 17 -24 57q-1 3 -1 8q0 14 12 23z" />
    <glyph glyph-name="uni0145" unicode="&#x145;" horiz-adv-x="535" 
d="M293 -59q12 -6 12 -25v-5q-13 -63 -50 -129q-7 -12 -26 -12h-5q-10 3 -51 18q-12 5 -12 22q0 1 0.5 3t0.5 3q25 89 31 138q2 17 16 17q11 0 40 -10.5t44 -19.5zM427 660q4 13 22 13q14 0 63 -12.5t65 -19.5q13 -7 13 -20l-1 -6q-28 -88 -66 -263.5t-55 -333.5
q-2 -16 -19 -16q-21 0 -80.5 11t-82.5 21q-16 7 -22 26q-6 16 -12 62t-9.5 88t-8.5 98.5t-6 67.5q0 7 -4 7q-3 0 -4 -7q-33 -183 -52 -357q-2 -17 -19 -17q-13 0 -57 12t-62 20q-17 7 -17 28q4 103 45.5 314t70.5 283q6 15 23 15t78 -11t87 -21q19 -9 21 -27q2 -27 5 -82.5
t5.5 -117.5t3.5 -80q0 -8 4 -8q2 0 4 8q31 231 67 325z" />
    <glyph glyph-name="uni0146" unicode="&#x146;" horiz-adv-x="482" 
d="M243 431q56 83 108 83q37 0 82.5 -43t45.5 -80q0 -36 -23.5 -162.5t-44.5 -210.5q-6 -17 -23 -17q-18 0 -64 16.5t-61 26.5q-13 9 -13 22l1 8q46 202 46 258q0 24 -8 24q-7 0 -26.5 -11.5t-33.5 -26.5q-12 -12 -16 -32q-45 -230 -53 -268q-5 -16 -20 -16q-17 0 -63 14.5
t-61 22.5q-13 7 -13 25l1 8q29 146 68 429q3 17 22 17q14 0 58.5 -8.5t59.5 -13.5q17 -6 18 -28l2 -33q0 -9 4 -9zM254 -59q12 -6 12 -25v-5q-13 -63 -50 -129q-8 -12 -26 -12h-5q-10 3 -51 18q-12 5 -12 22q0 1 0.5 3t0.5 3q25 89 31 138q2 17 16 17q11 0 40 -10.5
t44 -19.5z" />
    <glyph glyph-name="Ncaron" unicode="&#x147;" horiz-adv-x="535" 
d="M370 806q5 -5 9 -5q5 0 12 5q34 25 64 52q4 3 11 3q11 0 17 -8q15 -25 26 -50q2 -6 2 -9q0 -12 -11 -23q-62 -62 -126 -104q-6 -3 -12 -3q-4 0 -8 2t-6 4l-2 1q-44 43 -98 117q-5 7 -5 15t5 15q18 26 40 49q5 5 13 5t14 -6q9 -9 29.5 -32t25.5 -28zM427 660q4 13 22 13
q14 0 63 -12.5t65 -19.5q13 -7 13 -20l-1 -6q-28 -88 -66 -263.5t-55 -333.5q-2 -16 -19 -16q-21 0 -80.5 11t-82.5 21q-16 7 -22 26q-6 16 -12 62t-9.5 88t-8.5 98.5t-6 67.5q0 7 -4 7q-3 0 -4 -7q-33 -183 -52 -357q-2 -17 -19 -17q-13 0 -57 12t-62 20q-17 7 -17 28
q4 103 45.5 314t70.5 283q6 15 23 15t78 -11t87 -21q19 -9 21 -27q2 -27 5 -82.5t5.5 -117.5t3.5 -80q0 -8 4 -8q2 0 4 8q31 231 67 325z" />
    <glyph glyph-name="ncaron" unicode="&#x148;" horiz-adv-x="482" 
d="M243 431q56 83 108 83q37 0 82.5 -43t45.5 -80q0 -36 -23.5 -162.5t-44.5 -210.5q-6 -17 -23 -17q-18 0 -64 16.5t-61 26.5q-13 9 -13 22l1 8q46 202 46 258q0 24 -8 24q-7 0 -26.5 -11.5t-33.5 -26.5q-12 -12 -16 -32q-45 -230 -53 -268q-5 -16 -20 -16q-17 0 -63 14.5
t-61 22.5q-13 7 -13 25l1 8q29 146 68 429q3 17 22 17q14 0 58.5 -8.5t59.5 -13.5q17 -6 18 -28l2 -33q0 -9 4 -9zM302 672q5 -5 9 -5q5 0 12 5q34 25 64 52q5 3 11 3q11 0 17 -8q15 -25 26 -50q2 -6 2 -9q0 -12 -11 -23q-62 -62 -126 -104q-6 -3 -12 -3q-4 0 -8 2t-6 4
l-2 1q-44 43 -98 117q-5 7 -5 15t5 15q18 26 40 49q5 5 13 5t14 -6q9 -9 29.5 -32t25.5 -28z" />
    <glyph glyph-name="napostrophe" unicode="&#x149;" horiz-adv-x="482" 
d="M243 431q56 83 108 83q37 0 82.5 -43t45.5 -80q0 -36 -23.5 -162.5t-44.5 -210.5q-6 -17 -23 -17q-18 0 -64 16.5t-61 26.5q-13 9 -13 22l1 8q46 202 46 258q0 24 -8 24q-7 0 -26.5 -11.5t-33.5 -26.5q-12 -12 -16 -32q-45 -230 -53 -268q-5 -16 -20 -16q-17 0 -63 14.5
t-61 22.5q-13 7 -13 25l1 8q29 146 68 429q3 17 22 17q14 0 58.5 -8.5t59.5 -13.5q17 -6 18 -28l2 -33q0 -9 4 -9zM146 581q-5 -16 -24 -16q-36 8 -50 14q-15 7 -15 24v4q9 73 41 149q7 16 27 16q24 -5 59 -20q12 -6 12 -21q0 -5 -1 -7q-5 -16 -15 -41t-18 -49.5t-16 -52.5z
" />
    <glyph glyph-name="Omacron" unicode="&#x14c;" horiz-adv-x="569" 
d="M232 804q4 18 24 22q43 8 149 8q60 0 80 -4q20 -5 22 -24q0 -1 0.5 -5t0.5 -7q0 -40 -7 -64q-5 -19 -28 -19q-11 0 -109 1t-109 1q-20 0 -24 19q-2 12 -2 28q0 29 3 44zM343 531q-50 0 -92.5 -88t-42.5 -182q0 -112 63 -112q52 0 91 89t40 194q0 44 -16 71.5t-43 27.5z
M291 -1q-57 0 -123 31.5t-93 71.5q-42 59 -42 167q0 40 9.5 90.5t31.5 106.5t52.5 102t78.5 76.5t104 30.5q42 0 122 -36t107 -78q36 -58 36 -156q0 -57 -17 -123.5t-49 -131.5t-89 -108t-128 -43z" />
    <glyph glyph-name="omacron" unicode="&#x14d;" horiz-adv-x="468" 
d="M152 643q4 18 24 22q43 8 149 8q60 0 80 -4q20 -5 22 -24q0 -1 0.5 -5t0.5 -7q0 -39 -7 -64q-5 -19 -28 -19q-11 0 -109 1t-109 1q-20 0 -24 19q-2 12 -2 28q0 29 3 44zM214 135q32 0 56.5 68.5t24.5 126.5t-29 58q-28 0 -55 -72t-28 -129q0 -52 31 -52zM461 305
q0 -37 -11 -84t-33.5 -99t-67 -87t-102.5 -35q-44 0 -107.5 24t-94.5 69q-28 41 -28 118q0 41 13 91.5t36.5 99.5t65 82t90.5 33q28 0 93.5 -24t101.5 -57q44 -41 44 -131z" />
    <glyph glyph-name="Obreve" unicode="&#x14e;" horiz-adv-x="569" 
d="M509 858q11 -8 11 -23l-1 -7q-12 -48 -50.5 -91t-100.5 -43q-55 0 -81.5 35t-26.5 84q0 9 2 27q3 23 20 30q30 13 47 13q14 0 14 -15q0 -60 33 -60q36 0 60 58q7 14 18 14l7 -1q32 -11 48 -21zM343 531q-50 0 -92.5 -88t-42.5 -182q0 -112 63 -112q52 0 91 89t40 194
q0 44 -16 71.5t-43 27.5zM291 -1q-57 0 -123 31.5t-93 71.5q-42 59 -42 167q0 40 9.5 90.5t31.5 106.5t52.5 102t78.5 76.5t104 30.5q42 0 122 -36t107 -78q36 -58 36 -156q0 -57 -17 -123.5t-49 -131.5t-89 -108t-128 -43z" />
    <glyph glyph-name="obreve" unicode="&#x14f;" horiz-adv-x="468" 
d="M427 700q11 -8 11 -23l-1 -7q-12 -48 -50.5 -91t-100.5 -43q-55 0 -81.5 35t-26.5 84q0 9 2 27q3 23 20 30q30 13 47 13q14 0 14 -15q0 -60 33 -60q36 0 60 58q7 14 18 14l7 -1q32 -11 48 -21zM214 135q32 0 56.5 68.5t24.5 126.5t-29 58q-28 0 -55 -72t-28 -129
q0 -52 31 -52zM461 305q0 -37 -11 -84t-33.5 -99t-67 -87t-102.5 -35q-44 0 -107.5 24t-94.5 69q-28 41 -28 118q0 41 13 91.5t36.5 99.5t65 82t90.5 33q28 0 93.5 -24t101.5 -57q44 -41 44 -131z" />
    <glyph glyph-name="Ohungarumlaut" unicode="&#x150;" horiz-adv-x="569" 
d="M258 725q-8 8 -8 16q0 7 5 14q28 49 52 129q5 13 16 13q3 0 7 -2q36 -19 55 -38q7 -7 7 -18l-3 -16q-36 -85 -71 -124q-6 -8 -16 -8l-12 5q-22 19 -32 29zM388 725q-8 8 -8 16q0 7 5 14q28 49 52 129q5 13 16 13q3 0 7 -2q36 -19 55 -38q7 -7 7 -18l-3 -16
q-36 -85 -71 -124q-6 -8 -16 -8l-12 5q-22 19 -32 29zM343 531q-50 0 -92.5 -88t-42.5 -182q0 -112 63 -112q52 0 91 89t40 194q0 44 -16 71.5t-43 27.5zM291 -1q-57 0 -123 31.5t-93 71.5q-42 59 -42 167q0 40 9.5 90.5t31.5 106.5t52.5 102t78.5 76.5t104 30.5
q42 0 122 -36t107 -78q36 -58 36 -156q0 -57 -17 -123.5t-49 -131.5t-89 -108t-128 -43z" />
    <glyph glyph-name="ohungarumlaut" unicode="&#x151;" horiz-adv-x="468" 
d="M181 570q-8 8 -8 16q0 6 5 14q28 49 52 129q5 13 16 13q3 0 7 -2q36 -19 55 -38q7 -7 7 -18l-3 -16q-36 -85 -71 -124q-6 -8 -16 -8l-12 5q-22 19 -32 29zM311 561q-8 8 -8 16q0 7 5 14q28 49 52 129q5 13 16 13q3 0 7 -2q36 -19 55 -38q7 -7 7 -18l-3 -16
q-36 -85 -71 -124q-6 -8 -16 -8l-12 5q-22 19 -32 29zM214 135q32 0 56.5 68.5t24.5 126.5t-29 58q-28 0 -55 -72t-28 -129q0 -52 31 -52zM461 305q0 -37 -11 -84t-33.5 -99t-67 -87t-102.5 -35q-44 0 -107.5 24t-94.5 69q-28 41 -28 118q0 41 13 91.5t36.5 99.5t65 82
t90.5 33q28 0 93.5 -24t101.5 -57q44 -41 44 -131z" />
    <glyph glyph-name="OE" unicode="&#x152;" horiz-adv-x="803" 
d="M549 247q-3 -8 -7.5 -35t-4.5 -32q0 -13 11 -13q3 0 71 5t87 5q20 0 28 -19q8 -20 20 -64.5t12 -54.5q0 -15 -16 -17q-256 -22 -281 -22q-17 0 -30 11q-12 11 -23 29q-55 -41 -125 -41q-57 0 -123 31.5t-93 71.5q-42 59 -42 167q0 40 9.5 90.5t31.5 106.5t52.5 102
t78.5 76.5t104 30.5q47 0 128 -39v1q0 15 19 21q37 8 125 14.5t163 6.5q50 0 68 -2q21 -2 24 -20q5 -30 8 -114q0 -17 -18 -19l-206 -11q-14 -1 -20 -15q-2 -5 -6.5 -23.5t-7.5 -33.5t-3 -16q0 -13 14 -13q7 0 62 3t62 3q19 0 25 -20q14 -68 14 -106q0 -17 -20 -17
q-78 -4 -168 -12q-17 -1 -23 -16zM343 531q-50 0 -92.5 -88t-42.5 -182q0 -112 63 -112q52 0 91 89t40 194q0 44 -16 71.5t-43 27.5z" />
    <glyph glyph-name="oe" unicode="&#x153;" horiz-adv-x="698" 
d="M452 192q0 -18 12 -30.5t35 -12.5q28 0 68.5 13t42.5 13q12 0 17 -12q6 -12 14 -40.5t8 -36.5q0 -15 -11 -26q-20 -21 -62 -40.5t-78 -19.5q-73 0 -136 46q-49 -46 -115 -46q-44 0 -107.5 24t-94.5 69q-28 41 -28 118q0 41 13 91.5t36.5 99.5t65 82t90.5 33q19 0 67 -15
t88 -38q48 53 104 53q42 0 104 -28.5t85 -53.5q31 -34 31 -72q0 -67 -53.5 -115t-135.5 -48q-9 0 -27 1.5t-20 1.5q-13 0 -13 -11zM214 135q32 0 56.5 68.5t24.5 126.5t-29 58q-28 0 -55 -72t-28 -129q0 -52 31 -52zM535 402q-19 0 -42 -42.5t-23 -60.5q0 -12 10 -12
q29 0 51 28.5t22 58.5q0 28 -18 28z" />
    <glyph glyph-name="Racute" unicode="&#x154;" horiz-adv-x="535" 
d="M281 796q99 65 133 97q8 8 17 8q8 0 13 -7q29 -41 44 -87q2 -6 2 -11q0 -14 -10 -21q-26 -20 -75.5 -44.5t-81.5 -33.5q-5 -1 -7 -1q-15 0 -22 12q-9 17 -24 57q-1 3 -1 8q0 14 12 23zM402 251q-11 -5 -11 -14q0 -3 3 -8q53 -82 95 -120q6 -6 6 -14q0 -7 -6 -13
q-66 -58 -116 -77q-6 -2 -10 -2q-12 0 -22 8q-37 31 -65 88.5t-42 110.5q-6 18 -15 18q-12 0 -15 -14q-21 -124 -29 -196q-3 -16 -17 -16t-60 12.5t-64 20.5q-16 7 -18 26q1 77 26.5 225.5t56.5 268.5q4 16 4 25q0 3 -0.5 18.5t-0.5 21.5q0 15 15 21q95 36 187 36
q91 0 170.5 -76.5t79.5 -148.5q0 -67 -42.5 -120.5t-109.5 -80.5zM290 531q-19 0 -24 -17q-34 -144 -34 -152q0 -12 13 -12q52 0 91 38.5t39 76.5q0 34 -24 50t-61 16z" />
    <glyph glyph-name="racute" unicode="&#x155;" horiz-adv-x="352" 
d="M341 510q18 0 20 -18v-20q0 -61 -5 -134q0 -16 -19 -21q-98 -22 -109 -25q-16 -4 -22 -26q-36 -187 -46 -247q-5 -17 -19 -17q-17 0 -64.5 13.5t-62.5 22.5q-12 8 -12 22l1 9l70 432q3 17 21 17q14 0 58 -8.5t60 -14.5q16 -5 18 -25l3 -30q1 -9 4 -9l7 5q22 32 49.5 53
t47.5 21zM150 642q99 65 133 97q8 8 17 8q8 0 13 -7q29 -41 44 -87q2 -6 2 -11q0 -14 -10 -21q-26 -20 -75.5 -44.5t-81.5 -33.5q-5 -1 -7 -1q-15 0 -22 12q-9 17 -24 57q-1 3 -1 8q0 14 12 23z" />
    <glyph glyph-name="uni0156" unicode="&#x156;" horiz-adv-x="535" 
d="M300 -59q12 -6 12 -25v-5q-13 -63 -50 -129q-7 -12 -26 -12h-5q-10 3 -51 18q-12 5 -12 22q0 1 0.5 3t0.5 3q25 89 31 138q2 17 16 17q11 0 40 -10.5t44 -19.5zM402 251q-11 -5 -11 -14q0 -3 3 -8q53 -82 95 -120q6 -6 6 -14q0 -7 -6 -13q-66 -58 -116 -77q-6 -2 -10 -2
q-12 0 -22 8q-37 31 -65 88.5t-42 110.5q-6 18 -15 18q-12 0 -15 -14q-21 -124 -29 -196q-3 -16 -17 -16t-60 12.5t-64 20.5q-16 7 -18 26q1 77 26.5 225.5t56.5 268.5q4 16 4 25q0 3 -0.5 18.5t-0.5 21.5q0 15 15 21q95 36 187 36q91 0 170.5 -76.5t79.5 -148.5
q0 -67 -42.5 -120.5t-109.5 -80.5zM290 531q-19 0 -24 -17q-34 -144 -34 -152q0 -12 13 -12q52 0 91 38.5t39 76.5q0 34 -24 50t-61 16z" />
    <glyph glyph-name="uni0157" unicode="&#x157;" horiz-adv-x="352" 
d="M341 510q18 0 20 -18v-20q0 -61 -5 -134q0 -16 -19 -21q-98 -22 -109 -25q-16 -4 -22 -26q-36 -187 -46 -247q-5 -17 -19 -17q-17 0 -64.5 13.5t-62.5 22.5q-12 8 -12 22l1 9l70 432q3 17 21 17q14 0 58 -8.5t60 -14.5q16 -5 18 -25l3 -30q1 -9 4 -9l7 5q22 32 49.5 53
t47.5 21zM110 -58q12 -6 12 -25v-5q-13 -63 -50 -129q-8 -12 -26 -12h-5q-10 3 -51 18q-12 5 -12 22q0 1 0.5 3t0.5 3q25 89 31 138q2 17 16 17q11 0 40 -10.5t44 -19.5z" />
    <glyph glyph-name="Rcaron" unicode="&#x158;" horiz-adv-x="535" 
d="M355 835q5 -5 9 -5q5 0 12 5q34 25 64 52q4 3 11 3q11 0 17 -8q15 -25 26 -50q2 -6 2 -9q0 -12 -11 -23q-62 -62 -126 -104q-6 -3 -12 -3q-4 0 -8 1.5t-6 3.5l-2 2q-44 43 -98 117q-5 7 -5 15t5 15q18 26 40 49q5 5 13 5t14 -6q9 -9 29.5 -32t25.5 -28zM402 251
q-11 -5 -11 -14q0 -3 3 -8q53 -82 95 -120q6 -6 6 -14q0 -7 -6 -13q-66 -58 -116 -77q-6 -2 -10 -2q-12 0 -22 8q-37 31 -65 88.5t-42 110.5q-6 18 -15 18q-12 0 -15 -14q-21 -124 -29 -196q-3 -16 -17 -16t-60 12.5t-64 20.5q-16 7 -18 26q1 77 26.5 225.5t56.5 268.5
q4 16 4 25q0 3 -0.5 18.5t-0.5 21.5q0 15 15 21q95 36 187 36q91 0 170.5 -76.5t79.5 -148.5q0 -67 -42.5 -120.5t-109.5 -80.5zM290 531q-19 0 -24 -17q-34 -144 -34 -152q0 -12 13 -12q52 0 91 38.5t39 76.5q0 34 -24 50t-61 16z" />
    <glyph glyph-name="rcaron" unicode="&#x159;" horiz-adv-x="348" 
d="M341 510q18 0 20 -18v-20q0 -61 -5 -134q0 -16 -19 -21q-98 -22 -109 -25q-16 -4 -22 -26q-36 -187 -46 -247q-5 -17 -19 -17q-17 0 -64.5 13.5t-62.5 22.5q-12 8 -12 22l1 9l70 432q3 17 21 17q14 0 58 -8.5t60 -14.5q16 -5 18 -25l3 -30q1 -9 4 -9l7 5q22 32 49.5 53
t47.5 21zM242 678q5 -5 9 -5q5 0 12 5q34 25 64 52q5 3 11 3q11 0 17 -8q15 -25 26 -50q2 -6 2 -9q0 -12 -11 -23q-62 -62 -126 -104q-6 -3 -12 -3q-4 0 -8 2t-6 4l-2 1q-44 43 -98 117q-5 7 -5 15t5 15q18 26 40 49q5 5 13 5t14 -6q9 -9 29.5 -32t25.5 -28z" />
    <glyph glyph-name="Sacute" unicode="&#x15a;" horiz-adv-x="491" 
d="M278 793l133 97q8 8 17 8q8 0 13 -7q29 -41 44 -87q2 -6 2 -11q0 -14 -10 -21q-26 -20 -75.5 -44.5t-81.5 -33.5q-5 -1 -7 -1q-15 0 -22 12q-9 17 -24 57q-1 3 -1 8q0 14 12 23zM465 193q0 -78 -63.5 -137.5t-148.5 -59.5q-39 0 -97.5 18t-86.5 42q-45 37 -58 123
q-1 7 -1 11q0 17 16 27q73 28 111 28q14 0 20 -14q32 -83 85 -83t53 30q0 16 -17.5 29t-54.5 31q-36 18 -57 31t-50 36.5t-43.5 55t-14.5 69.5q0 53 27.5 109.5t77 95.5t103.5 39q42 0 100 -19t106.5 -57.5t48.5 -82.5q0 -43 -31 -105q-8 -16 -25 -17q-31 -5 -109 -5
q-25 0 -25 15q0 1 7.5 36t7.5 53q0 42 -29 42t-54 -33t-25 -61q0 -8 2 -15t7.5 -13.5t9.5 -11t13.5 -10.5t14 -9t16.5 -9.5t16 -8.5q10 -6 32.5 -18t32 -17.5t26.5 -17.5t24.5 -21.5t16.5 -24t12.5 -32t3.5 -39.5z" />
    <glyph glyph-name="sacute" unicode="&#x15b;" horiz-adv-x="417" 
d="M180 636q99 65 133 97q8 8 17 8q8 0 13 -7q29 -41 44 -87q2 -6 2 -11q0 -14 -10 -21q-26 -20 -75.5 -44.5t-81.5 -33.5q-5 -1 -7 -1q-15 0 -22 12q-9 17 -24 57q-1 3 -1 8q0 14 12 23zM26 317q0 34 17 77.5t58.5 83t96.5 39.5q14 0 48.5 -9t75 -24.5t71 -42.5t30.5 -57
q0 -34 -27 -73q-10 -15 -27 -15q-22 -2 -95 -2q-15 2 -15 16l5 24q6 25 6 39q0 21 -16 21q-20 0 -38 -29t-18 -49t30 -34.5t66 -24t66 -32.5t30 -58q0 -70 -54.5 -118.5t-126.5 -48.5q-51 0 -104.5 15.5t-87.5 40.5q-12 8 -12 26q0 6 8 36.5t14 45.5q7 15 17 15q4 0 16 -6
q82 -43 125 -43q41 0 42 19q0 11 -31.5 22t-69 22.5t-69 43.5t-31.5 80z" />
    <glyph glyph-name="Scircumflex" unicode="&#x15c;" horiz-adv-x="491" 
d="M352 747q-6 6 -12 6t-13 -5l-65 -50q-5 -4 -13 -4q-10 0 -16 8q-5 8 -28 48q-3 4 -3 10q0 13 10 21q68 63 132 107q6 4 13 4q10 0 17 -7q26 -23 107 -114q7 -7 7 -17q0 -7 -5 -14q-4 -5 -19 -23.5t-22 -26.5q-5 -5 -14 -5l-14 5q-46 41 -62 57zM465 193
q0 -78 -63.5 -137.5t-148.5 -59.5q-39 0 -97.5 18t-86.5 42q-45 37 -58 123q-1 7 -1 11q0 17 16 27q73 28 111 28q14 0 20 -14q32 -83 85 -83t53 30q0 16 -17.5 29t-54.5 31q-36 18 -57 31t-50 36.5t-43.5 55t-14.5 69.5q0 53 27.5 109.5t77 95.5t103.5 39q42 0 100 -19
t106.5 -57.5t48.5 -82.5q0 -43 -31 -105q-8 -16 -25 -17q-31 -5 -109 -5q-25 0 -25 15q0 1 7.5 36t7.5 53q0 42 -29 42t-54 -33t-25 -61q0 -8 2 -15t7.5 -13.5t9.5 -11t13.5 -10.5t14 -9t16.5 -9.5t16 -8.5q10 -6 32.5 -18t32 -17.5t26.5 -17.5t24.5 -21.5t16.5 -24
t12.5 -32t3.5 -39.5z" />
    <glyph glyph-name="scircumflex" unicode="&#x15d;" horiz-adv-x="417" 
d="M263 586q-6 6 -12 6t-13 -5l-65 -50q-5 -4 -13 -4q-10 0 -16 8q-5 8 -28 48q-3 5 -3 10q0 13 10 21q68 63 132 107q6 4 13 4q10 0 17 -7q26 -23 107 -114q7 -7 7 -17q0 -7 -5 -14q-4 -5 -19 -23.5t-22 -26.5q-5 -5 -14 -5l-14 5q-46 41 -62 57zM26 317q0 34 17 77.5
t58.5 83t96.5 39.5q14 0 48.5 -9t75 -24.5t71 -42.5t30.5 -57q0 -34 -27 -73q-10 -15 -27 -15q-22 -2 -95 -2q-15 2 -15 16l5 24q6 25 6 39q0 21 -16 21q-20 0 -38 -29t-18 -49t30 -34.5t66 -24t66 -32.5t30 -58q0 -70 -54.5 -118.5t-126.5 -48.5q-51 0 -104.5 15.5
t-87.5 40.5q-12 8 -12 26q0 6 8 36.5t14 45.5q7 15 17 15q4 0 16 -6q82 -43 125 -43q41 0 42 19q0 11 -31.5 22t-69 22.5t-69 43.5t-31.5 80z" />
    <glyph glyph-name="Scedilla" unicode="&#x15e;" horiz-adv-x="491" 
d="M465 193q0 -76 -61.5 -135t-144.5 -62q36 -48 36 -77q0 -35 -56.5 -72t-98.5 -37q-17 0 -24 16q-21 47 -21 65q0 13 14 17q79 21 79 59q0 22 -4 39q-78 18 -115 50q-45 37 -58 123q-1 7 -1 11q0 17 16 27q73 28 111 28q14 0 20 -14q32 -83 85 -83t53 30q0 16 -17.5 29
t-54.5 31q-36 18 -57 31t-50 36.5t-43.5 55t-14.5 69.5q0 53 27.5 109.5t77 95.5t103.5 39q42 0 100 -19t106.5 -57.5t48.5 -82.5q0 -43 -31 -105q-8 -16 -25 -17q-31 -5 -109 -5q-25 0 -25 15q0 1 7.5 36t7.5 53q0 42 -29 42t-54 -33t-25 -61q0 -8 2 -15t7.5 -13.5t9.5 -11
t13.5 -10.5t14 -9t16.5 -9.5t16 -8.5q10 -6 32.5 -18t32 -17.5t26.5 -17.5t24.5 -21.5t16.5 -24t12.5 -32t3.5 -39.5z" />
    <glyph glyph-name="scedilla" unicode="&#x15f;" horiz-adv-x="417" 
d="M26 317q0 34 17 77.5t58.5 83t96.5 39.5q14 0 48.5 -9t75 -24.5t71 -42.5t30.5 -57q0 -34 -27 -73q-10 -15 -27 -15q-22 -2 -95 -2q-15 2 -15 16l5 24q6 25 6 39q0 21 -16 21q-20 0 -38 -29t-18 -49t30 -34.5t66 -24t66 -32.5t30 -58q0 -70 -54.5 -118.5t-126.5 -48.5
q36 -50 36 -81q0 -35 -56.5 -72t-98.5 -37q-17 0 -24 16q-21 47 -21 65q0 13 14 17q79 21 79 59q0 18 -8 42q-69 14 -113 47q-12 8 -12 26q0 6 8 36.5t14 45.5q7 15 17 15q4 0 16 -6q82 -43 125 -43q41 0 42 19q0 11 -31.5 22t-69 22.5t-69 43.5t-31.5 80z" />
    <glyph glyph-name="Scaron" unicode="&#x160;" horiz-adv-x="491" 
d="M350 826q5 -5 9 -5q5 0 12 5q34 25 64 52q5 3 11 3q11 0 17 -8q15 -25 26 -50q2 -6 2 -9q0 -12 -11 -23q-62 -62 -126 -104q-6 -3 -12 -3q-4 0 -8 2t-6 4l-2 1q-44 43 -98 117q-5 7 -5 15t5 15q18 26 40 49q5 5 13 5t14 -6q9 -9 29.5 -32t25.5 -28zM465 193
q0 -78 -63.5 -137.5t-148.5 -59.5q-39 0 -97.5 18t-86.5 42q-45 37 -58 123q-1 7 -1 11q0 17 16 27q73 28 111 28q14 0 20 -14q32 -83 85 -83t53 30q0 16 -17.5 29t-54.5 31q-36 18 -57 31t-50 36.5t-43.5 55t-14.5 69.5q0 53 27.5 109.5t77 95.5t103.5 39q42 0 100 -19
t106.5 -57.5t48.5 -82.5q0 -43 -31 -105q-8 -16 -25 -17q-31 -5 -109 -5q-25 0 -25 15q0 1 7.5 36t7.5 53q0 42 -29 42t-54 -33t-25 -61q0 -8 2 -15t7.5 -13.5t9.5 -11t13.5 -10.5t14 -9t16.5 -9.5t16 -8.5q10 -6 32.5 -18t32 -17.5t26.5 -17.5t24.5 -21.5t16.5 -24
t12.5 -32t3.5 -39.5z" />
    <glyph glyph-name="scaron" unicode="&#x161;" horiz-adv-x="417" 
d="M270 668q5 -5 9 -5q5 0 12 5q34 25 64 52q4 3 11 3q11 0 17 -8q15 -25 26 -50q2 -6 2 -9q0 -12 -11 -23q-62 -62 -126 -104q-6 -3 -12 -3q-4 0 -8 2t-6 4l-2 1q-44 43 -98 117q-5 7 -5 15t5 15q18 26 40 49q5 5 13 5t14 -6q9 -9 29.5 -32t25.5 -28zM26 317q0 34 17 77.5
t58.5 83t96.5 39.5q14 0 48.5 -9t75 -24.5t71 -42.5t30.5 -57q0 -34 -27 -73q-10 -15 -27 -15q-22 -2 -95 -2q-15 2 -15 16l5 24q6 25 6 39q0 21 -16 21q-20 0 -38 -29t-18 -49t30 -34.5t66 -24t66 -32.5t30 -58q0 -70 -54.5 -118.5t-126.5 -48.5q-51 0 -104.5 15.5
t-87.5 40.5q-12 8 -12 26q0 6 8 36.5t14 45.5q7 15 17 15q4 0 16 -6q82 -43 125 -43q41 0 42 19q0 11 -31.5 22t-69 22.5t-69 43.5t-31.5 80z" />
    <glyph glyph-name="uni0162" unicode="&#x162;" horiz-adv-x="472" 
d="M502 671q19 -4 21 -22q2 -28 2 -60q0 -41 -2 -77q-2 -16 -22 -18l-98 -5q-20 -1 -23 -18q-55 -218 -81 -453q-2 -15 -17 -15q-6 0 -24 3q37 -53 37 -87q0 -35 -56.5 -72t-98.5 -37q-17 0 -24 16q-21 47 -21 65q0 13 14 17q79 21 79 59q0 20 -12 60q-15 4 -23 8
q-16 6 -16 26q8 163 64 405q1 5 1 6q0 10 -14 10l-36 -2q-36 -1 -39 -1q-20 0 -22 18q-7 34 -7 111v23q2 20 21 23q128 21 314 21q54 0 83 -4z" />
    <glyph glyph-name="uni0163" unicode="&#x163;" horiz-adv-x="341" 
d="M355 381q-5 -19 -25 -19h-60q-18 0 -23 -18q-22 -103 -22 -133q0 -29 11.5 -46t37.5 -29q10 -6 10 -19l-2 -9q-21 -51 -60 -95q-4 -4 -10 -7q42 -52 42 -87t-56.5 -72t-98.5 -37q-17 0 -24 16q-21 47 -21 65q0 13 14 17q79 21 79 59q0 24 -16 63q-80 54 -80 151
q0 54 23 165q1 5 1 7q0 11 -10 11h-6q-16 0 -18 20q-1 10 -1 36q0 30 2 64q2 18 24 21q2 0 7.5 0.5t13 1.5t11.5 1q11 1 17 20q25 101 44 141q7 15 22 15t59.5 -12.5t66.5 -22.5q12 -5 12 -19l-1 -8q-15 -46 -26 -90q-1 -5 -1 -7q0 -11 11 -14h39q19 -1 21 -24v-10
q0 -56 -7 -96z" />
    <glyph glyph-name="Tcaron" unicode="&#x164;" horiz-adv-x="473" 
d="M348 835q5 -5 9 -5q5 0 12 5q34 25 64 52q4 3 11 3q11 0 17 -8q15 -25 26 -50q2 -6 2 -9q0 -12 -11 -23q-62 -62 -126 -104q-6 -3 -12 -3q-4 0 -8 1.5t-6 3.5l-2 2q-44 43 -98 117q-5 7 -5 15t5 15q18 26 40 49q5 5 13 5t14 -6q9 -9 29.5 -32t25.5 -28zM503 671
q19 -4 21 -22q2 -28 2 -60q0 -41 -2 -77q-2 -16 -22 -18l-98 -5q-20 -1 -23 -18q-55 -218 -81 -453q-2 -15 -17 -15q-11 0 -63.5 13t-65.5 19q-16 6 -16 26q8 163 64 405q1 5 1 6q0 10 -14 10l-37 -2q-36 -1 -39 -1q-20 0 -22 18q-7 52 -7 134q0 20 21 23q45 7 142.5 14
t176.5 7q50 0 79 -4z" />
    <glyph glyph-name="tcaron" unicode="&#x165;" horiz-adv-x="341" 
d="M355 381q-5 -19 -25 -19h-60q-18 0 -23 -18q-22 -103 -22 -133q0 -29 11.5 -46t37.5 -29q10 -6 10 -19l-2 -9q-21 -51 -60 -95q-11 -11 -24 -11l-8 1q-66 19 -102.5 68.5t-36.5 109.5q0 54 23 165q1 5 1 7q0 11 -10 11h-6q-16 0 -18 20q-1 10 -1 36q0 30 2 64q2 18 24 21
q2 0 7.5 0.5t13 1.5t11.5 1q11 1 17 20q25 101 44 141q7 15 22 15t59.5 -12.5t66.5 -22.5q12 -5 12 -19l-1 -8q-15 -46 -26 -90q-1 -5 -1 -7q0 -11 11 -14h39q19 -1 21 -24v-10q0 -56 -7 -96zM428 581q-5 -16 -24 -16q-36 8 -50 14q-15 7 -15 24v4q9 73 41 149q7 16 27 16
q24 -5 59 -20q12 -6 12 -21q0 -5 -1 -7q-5 -16 -15 -41t-18 -49.5t-16 -52.5z" />
    <glyph glyph-name="Tbar" unicode="&#x166;" horiz-adv-x="473" 
d="M503 671q19 -4 21 -22q2 -28 2 -60q0 -41 -2 -77q-2 -16 -22 -18l-98 -5q-20 -1 -23 -18l-8 -30h19q17 0 35 -2q9 -1 15.5 -7.5t6.5 -14.5q0 -34 -6 -76q-1 -8 -8.5 -13.5t-16.5 -5.5h-71q-31 -156 -47 -304q-2 -15 -17 -15q-11 0 -63.5 13t-65.5 19q-16 6 -16 26
q5 102 34 261q-13 1 -36 1q-9 0 -16 5.5t-7 13.5q-1 8 -1 29q0 28 1 40q1 8 8 15t16 8q44 3 59 4l6 28q1 5 1 6q0 10 -14 10l-37 -2q-36 -1 -39 -1q-20 0 -22 18q-7 34 -7 111v23q2 20 21 23q45 7 142.5 14t176.5 7q50 0 79 -4z" />
    <glyph glyph-name="tbar" unicode="&#x167;" horiz-adv-x="341" 
d="M355 381q-5 -19 -25 -19h-60q-18 0 -23 -18q-2 -5 -4 -19q29 0 57 -2q8 -1 13.5 -7.5t5.5 -15.5q-1 -34 -4 -49q-2 -18 -23 -18h-66q-1 -9 -1 -22q0 -29 11.5 -46t37.5 -29q10 -6 10 -19l-2 -9q-21 -51 -60 -95q-11 -11 -24 -11l-8 1q-66 19 -102.5 68.5t-36.5 109.5
q0 26 4 54h-10q-8 0 -14.5 5.5t-6.5 13.5q0 33 1 47q2 17 21 19l23 2q1 8 5 24q1 5 1 7q0 11 -10 11h-6q-16 0 -18 20q-1 10 -1 36q0 30 2 64q2 18 24 21q2 0 7.5 0.5t13 1.5t11.5 1q11 1 17 20q25 101 44 141q7 15 22 15t59.5 -12.5t66.5 -22.5q12 -5 12 -19l-1 -8
q-15 -46 -26 -90q-1 -5 -1 -7q0 -11 11 -14h39q19 -1 21 -24v-10q0 -56 -7 -96z" />
    <glyph glyph-name="Utilde" unicode="&#x168;" horiz-adv-x="527" 
d="M416 691q-24 0 -65 21t-63 21q-28 0 -53 -25q-5 -5 -9 -5q-6 0 -7 9l-17 62q-2 8 -2 12q0 15 7 22q45 50 85 50q24 0 60.5 -20.5t56.5 -20.5q28 0 55 27q5 4 9 4q5 0 8 -7l16 -65q2 -8 2 -12q0 -13 -6 -22q-36 -51 -77 -51zM532 631q20 -8 20 -25v-16q0 -54 -8.5 -125
t-29 -154t-50 -151t-77 -114t-103.5 -46q-51 0 -117.5 26.5t-96.5 66.5q-34 47 -34 133q0 113 31.5 240t61.5 185q11 18 28 18q14 0 55 -11t65 -21q13 -5 13 -18l-2 -8q-30 -85 -57 -209.5t-27 -180.5q0 -32 11 -51t30 -19q27 0 45.5 35t37.5 104q42 154 67 356q3 16 18 16
q11 0 56.5 -12.5t62.5 -18.5z" />
    <glyph glyph-name="utilde" unicode="&#x169;" 
d="M481 474q12 -4 12 -21l-1 -6q-31 -107 -49.5 -230t-20.5 -198q0 -7 -5 -12.5t-13 -5.5q-36 0 -96 22q-20 7 -23 29l-5 39q-2 9 -5 9t-6 -6q-52 -95 -108 -95q-45 0 -94.5 50.5t-49.5 104.5q0 84 22 181.5t45 155.5q5 16 21 16q13 0 62 -18t63 -27q9 -6 9 -19l-1 -9
q-16 -51 -34.5 -132t-18.5 -117q0 -20 7 -20q18 0 47 27.5t35 54.5q17 130 57 246q6 17 23 17q11 0 58.5 -13t68.5 -23zM365 535q-25 0 -66 21t-62 21q-28 0 -53 -25q-5 -5 -9 -5q-5 0 -7 9l-17 62q-2 8 -2 12q0 15 7 22q45 50 85 50q24 0 60.5 -20.5t56.5 -20.5q28 0 55 27
q5 4 9 4q5 0 8 -7l16 -65q2 -8 2 -12q0 -13 -6 -22q-36 -51 -77 -51z" />
    <glyph glyph-name="Umacron" unicode="&#x16a;" horiz-adv-x="527" 
d="M211 796q4 18 24 22q43 8 149 8q60 0 80 -4q20 -5 22 -24q0 -1 0.5 -5t0.5 -7q0 -40 -7 -64q-5 -19 -28 -19q-10 0 -109 1t-109 1q-20 0 -24 19q-2 12 -2 28q0 29 3 44zM532 631q20 -8 20 -25v-16q0 -54 -8.5 -125t-29 -154t-50 -151t-77 -114t-103.5 -46
q-51 0 -117.5 26.5t-96.5 66.5q-34 47 -34 133q0 113 31.5 240t61.5 185q11 18 28 18q14 0 55 -11t65 -21q13 -5 13 -18l-2 -8q-30 -85 -57 -209.5t-27 -180.5q0 -32 11 -51t30 -19q27 0 45.5 35t37.5 104q42 154 67 356q3 16 18 16q11 0 56.5 -12.5t62.5 -18.5z" />
    <glyph glyph-name="umacron" unicode="&#x16b;" 
d="M481 474q12 -4 12 -21l-1 -6q-31 -107 -49.5 -230t-20.5 -198q0 -7 -5 -12.5t-13 -5.5q-36 0 -96 22q-20 7 -23 29l-5 39q-2 9 -5 9t-6 -6q-52 -95 -108 -95q-45 0 -94.5 50.5t-49.5 104.5q0 84 22 181.5t45 155.5q5 16 21 16q13 0 62 -18t63 -27q9 -6 9 -19l-1 -9
q-16 -51 -34.5 -132t-18.5 -117q0 -20 7 -20q18 0 47 27.5t35 54.5q17 130 57 246q6 17 23 17q11 0 58.5 -13t68.5 -23zM159 637q4 18 24 22q43 8 149 8q60 0 80 -4q20 -5 22 -24q0 -1 0.5 -5t0.5 -7q0 -39 -7 -64q-5 -19 -28 -19q-10 0 -109 1t-109 1q-20 0 -24 19
q-2 12 -2 28q0 29 3 44z" />
    <glyph glyph-name="Ubreve" unicode="&#x16c;" horiz-adv-x="527" 
d="M482 837q11 -8 11 -23l-1 -7q-12 -48 -50.5 -91t-100.5 -43q-55 0 -81.5 35t-26.5 84q0 9 2 27q3 23 20 30q30 13 47 13q14 0 14 -15q0 -60 33 -60q36 0 60 58q7 14 18 14l7 -1q32 -11 48 -21zM532 631q20 -8 20 -25v-16q0 -54 -8.5 -125t-29 -154t-50 -151t-77 -114
t-103.5 -46q-51 0 -117.5 26.5t-96.5 66.5q-34 47 -34 133q0 113 31.5 240t61.5 185q11 18 28 18q14 0 55 -11t65 -21q13 -5 13 -18l-2 -8q-30 -85 -57 -209.5t-27 -180.5q0 -32 11 -51t30 -19q27 0 45.5 35t37.5 104q42 154 67 356q3 16 18 16q11 0 56.5 -12.5t62.5 -18.5z
" />
    <glyph glyph-name="ubreve" unicode="&#x16d;" 
d="M481 474q12 -4 12 -21l-1 -6q-31 -107 -49.5 -230t-20.5 -198q0 -7 -5 -12.5t-13 -5.5q-36 0 -96 22q-20 7 -23 29l-5 39q-2 9 -5 9t-6 -6q-52 -95 -108 -95q-45 0 -94.5 50.5t-49.5 104.5q0 84 22 181.5t45 155.5q5 16 21 16q13 0 62 -18t63 -27q9 -6 9 -19l-1 -9
q-16 -51 -34.5 -132t-18.5 -117q0 -20 7 -20q18 0 47 27.5t35 54.5q17 130 57 246q6 17 23 17q11 0 58.5 -13t68.5 -23zM422 687q11 -8 11 -23l-1 -7q-12 -48 -50.5 -91t-100.5 -43q-55 0 -81.5 35t-26.5 84q0 9 2 27q3 23 20 30q30 13 47 13q14 0 14 -15q0 -60 33 -60
q36 0 60 58q7 14 18 14l7 -1q32 -11 48 -21z" />
    <glyph glyph-name="Uring" unicode="&#x16e;" horiz-adv-x="527" 
d="M332 749q14 0 24 14t10 34q0 28 -20 28q-15 0 -24.5 -14t-9.5 -34q0 -28 20 -28zM341 671q-18 0 -36 4.5t-37.5 15.5t-32 34t-12.5 55q0 52 31.5 88.5t79.5 36.5q44 0 81.5 -29.5t37.5 -83.5q0 -46 -29.5 -83.5t-82.5 -37.5zM532 631q20 -8 20 -25v-16q0 -54 -8.5 -125
t-29 -154t-50 -151t-77 -114t-103.5 -46q-51 0 -117.5 26.5t-96.5 66.5q-34 47 -34 133q0 113 31.5 240t61.5 185q11 18 28 18q14 0 55 -11t65 -21q13 -5 13 -18l-2 -8q-30 -85 -57 -209.5t-27 -180.5q0 -32 11 -51t30 -19q27 0 45.5 35t37.5 104q42 154 67 356q3 16 18 16
q11 0 56.5 -12.5t62.5 -18.5z" />
    <glyph glyph-name="uring" unicode="&#x16f;" 
d="M481 474q12 -4 12 -21l-1 -6q-31 -107 -49.5 -230t-20.5 -198q0 -7 -5 -12.5t-13 -5.5q-36 0 -96 22q-20 7 -23 29l-5 39q-2 9 -5 9t-6 -6q-52 -95 -108 -95q-45 0 -94.5 50.5t-49.5 104.5q0 84 22 181.5t45 155.5q5 16 21 16q13 0 62 -18t63 -27q9 -6 9 -19l-1 -9
q-16 -51 -34.5 -132t-18.5 -117q0 -20 7 -20q18 0 47 27.5t35 54.5q17 130 57 246q6 17 23 17q11 0 58.5 -13t68.5 -23zM283 595q14 0 24 14t10 34q0 28 -20 28q-15 0 -24.5 -14t-9.5 -34q0 -28 20 -28zM292 517q-18 0 -36 4.5t-37.5 15.5t-32 34t-12.5 55q0 52 31.5 88.5
t79.5 36.5q44 0 81.5 -29.5t37.5 -83.5q0 -46 -29.5 -83.5t-82.5 -37.5z" />
    <glyph glyph-name="Uhungarumlaut" unicode="&#x170;" horiz-adv-x="527" 
d="M246 725q-8 8 -8 16q0 7 5 14q28 49 52 129q5 13 16 13q3 0 7 -2q36 -19 55 -38q7 -7 7 -18l-3 -16q-36 -85 -71 -124q-6 -8 -16 -8l-12 5q-22 19 -32 29zM376 725q-8 8 -8 16q0 7 5 14q28 49 52 129q5 13 16 13q3 0 7 -2q36 -19 55 -38q7 -7 7 -18l-3 -16
q-36 -85 -71 -124q-6 -8 -16 -8l-12 5q-22 19 -32 29zM532 631q20 -8 20 -25v-16q0 -54 -8.5 -125t-29 -154t-50 -151t-77 -114t-103.5 -46q-51 0 -117.5 26.5t-96.5 66.5q-34 47 -34 133q0 113 31.5 240t61.5 185q11 18 28 18q14 0 55 -11t65 -21q13 -5 13 -18l-2 -8
q-30 -85 -57 -209.5t-27 -180.5q0 -32 11 -51t30 -19q27 0 45.5 35t37.5 104q42 154 67 356q3 16 18 16q11 0 56.5 -12.5t62.5 -18.5z" />
    <glyph glyph-name="uhungarumlaut" unicode="&#x171;" 
d="M481 474q12 -4 12 -21l-1 -6q-31 -107 -49.5 -230t-20.5 -198q0 -7 -5 -12.5t-13 -5.5q-36 0 -96 22q-20 7 -23 29l-5 39q-2 9 -5 9t-6 -6q-52 -95 -108 -95q-45 0 -94.5 50.5t-49.5 104.5q0 84 22 181.5t45 155.5q5 16 21 16q13 0 62 -18t63 -27q9 -6 9 -19l-1 -9
q-16 -51 -34.5 -132t-18.5 -117q0 -20 7 -20q18 0 47 27.5t35 54.5q17 130 57 246q6 17 23 17q11 0 58.5 -13t68.5 -23zM181 570q-8 8 -8 16q0 6 5 14q28 49 52 129q5 13 16 13q3 0 7 -2q36 -19 55 -38q7 -7 7 -18l-3 -16q-36 -85 -71 -124q-6 -8 -16 -8l-12 5
q-22 19 -32 29zM311 564q-8 8 -8 16q0 6 5 14q28 49 52 129q5 13 16 13q3 0 7 -2q36 -19 55 -38q7 -7 7 -18l-3 -16q-36 -85 -71 -124q-6 -8 -16 -8l-12 5q-22 19 -32 29z" />
    <glyph glyph-name="Uogonek" unicode="&#x172;" horiz-adv-x="527" 
d="M532 631q20 -8 20 -25v-16q0 -54 -8.5 -125t-29 -154t-50 -151t-77 -114t-103.5 -46q-27 -13 -44 -37.5t-18 -44.5q0 -25 30 -25q16 0 29 6q6 2 9 2q10 0 14 -10q9 -24 12 -37q2 -6 2 -12q0 -10 -10 -20q-39 -34 -90 -34q-46 0 -73 27t-27 68q0 40 24 76t57 56
q-93 28 -129 78q-34 47 -34 133q0 113 31.5 240t61.5 185q11 18 28 18q14 0 55 -11t65 -21q13 -5 13 -18l-2 -8q-30 -85 -57 -209.5t-27 -180.5q0 -32 11 -51t30 -19q27 0 45.5 35t37.5 104q42 154 67 356q3 16 18 16q11 0 56.5 -12.5t62.5 -18.5z" />
    <glyph glyph-name="uogonek" unicode="&#x173;" 
d="M481 474q12 -4 12 -21l-1 -6q-31 -107 -49.5 -230t-20.5 -198q0 -7 -5 -12.5t-13 -5.5q-32 -11 -52 -36.5t-21 -47.5q0 -25 30 -25q15 0 29 6q6 2 9 2q10 0 14 -10q9 -24 12 -37q2 -6 2 -12q0 -10 -10 -20q-39 -34 -90 -34q-46 0 -73 27t-27 68q0 44 28 81.5t66 54.5
l-13 5q-20 7 -23 29l-5 39q-2 9 -5 9t-6 -6q-52 -95 -108 -95q-45 0 -94.5 50.5t-49.5 104.5q0 84 22 181.5t45 155.5q5 16 21 16q13 0 62 -18t63 -27q9 -6 9 -19l-1 -9q-16 -51 -34.5 -132t-18.5 -117q0 -20 7 -20q18 0 47 27.5t35 54.5q17 130 57 246q6 17 23 17
q11 0 58.5 -13t68.5 -23z" />
    <glyph glyph-name="Wcircumflex" unicode="&#x174;" horiz-adv-x="743" 
d="M465 741q-6 6 -12 6t-13 -5l-65 -50q-5 -4 -13 -4q-10 0 -16 8q-5 8 -28 48q-3 4 -3 10q0 13 10 21q68 63 132 107q6 4 13 4q10 0 17 -7q26 -23 107 -114q7 -7 7 -17q0 -7 -5 -14q-4 -5 -19 -23.5t-22 -26.5q-5 -5 -14 -5l-14 5q-46 41 -62 57zM370 103q-1 18 -1 71
q0 25 2 99q0 9 -3 9q-2 0 -5 -9q-10 -36 -27 -100.5t-28.5 -104t-20.5 -56.5q-7 -13 -25 -13q-35 0 -94 26t-86 49q-15 13 -17 30q-4 58 -4 97q0 117 14 256t28 200q4 16 20 16q21 0 67 -8t64 -18q17 -9 17 -27l-1 -11q-39 -282 -45 -414q0 -6 3 -6l5 5q103 358 142 454
q5 13 18 13q48 0 120 -37q19 -10 19 -24l-1 -11q-36 -259 -42 -394q0 -6 3 -6l5 5q107 370 145 464q5 13 18 13q15 0 65.5 -23.5t64.5 -35.5q11 -9 11 -20l-1 -8q-21 -57 -68 -193.5t-83.5 -238.5t-53.5 -140q-7 -13 -25 -13q-37 0 -93.5 21.5t-89.5 47.5q-13 10 -17 35z
" />
    <glyph glyph-name="wcircumflex" unicode="&#x175;" horiz-adv-x="666" 
d="M536 496q2 16 18 16q14 0 59.5 -24t59.5 -36q12 -10 12 -23q0 -45 -58 -195.5t-113 -220.5q-10 -12 -28 -12q-25 0 -78.5 23.5t-84.5 48.5q-13 12 -16 33q0 5 -2 22.5t-3.5 37t-1.5 32.5q0 8 -2 8q-4 0 -5 -7q-38 -142 -61 -183q-7 -14 -24 -14q-22 0 -76 24.5t-74 42.5
q-13 12 -13 33q0 149 10 395q2 18 21 18q74 -2 129 -16q17 -5 17 -19q0 -4 -13 -154.5t-13 -158.5q0 -4 1 -4l4 7q15 38 99 327q5 18 26 18q58 -4 110 -18q15 -5 15 -21q0 -2 -4.5 -69.5t-8.5 -142.5t-4 -94q0 -6 2 -6l3 4q41 102 97 328zM390 597q-6 6 -12 6t-13 -5
l-65 -50q-5 -4 -13 -4q-10 0 -16 8q-5 8 -28 48q-3 4 -3 10q0 13 10 21q68 63 132 107q6 4 13 4q10 0 17 -7q26 -23 107 -114q7 -7 7 -17q0 -7 -5 -14q-4 -5 -19 -23.5t-22 -26.5q-5 -5 -14 -5l-14 5q-46 41 -62 57z" />
    <glyph glyph-name="Ycircumflex" unicode="&#x176;" horiz-adv-x="521" 
d="M366 762q-6 6 -12 6t-13 -5l-65 -50q-5 -4 -13 -4q-10 0 -16 8q-5 8 -28 48q-3 5 -3 10q0 13 10 21q68 63 132 107q6 4 13 4q10 0 17 -7q26 -23 107 -114q7 -7 7 -17q0 -7 -5 -14q-4 -5 -19 -23.5t-22 -26.5q-5 -5 -14 -5l-14 5q-46 41 -62 57zM425 659q5 13 18 13
q15 0 66 -26t68 -40q10 -9 10 -20q0 -4 -2 -10q-47 -132 -143 -302.5t-176 -264.5q-7 -9 -20 -9q-4 0 -10 2q-69 26 -123 62q-6 4 -6 13l6 14q66 83 95 125q3 4 3 8q0 8 -12 12q-23 9 -26 11q-16 6 -22 25q-46 153 -62 360q0 18 18 23q25 6 72.5 11.5t66.5 5.5q15 0 17 -18
q5 -148 28 -273q1 -9 5 -9q3 0 6 6q67 133 123 281z" />
    <glyph glyph-name="ycircumflex" unicode="&#x177;" 
d="M335 496q7 14 21 14t62 -16t63 -26q11 -8 11 -21l-1 -7q-24 -92 -83 -412q-4 -22 -11.5 -46t-24.5 -54.5t-39.5 -54t-58 -39.5t-78.5 -16q-63 0 -136 46q-13 7 -13 24l2 12q15 55 19 68q5 15 16 15l8 -2q46 -18 77 -18q32 0 55 23t30.5 47t7.5 42q0 9 -2 9l-5 -6
q-48 -65 -93 -65q-44 0 -94.5 49.5t-50.5 102.5q0 82 22 176.5t45 149.5q5 16 23 16q8 0 59.5 -19t63.5 -27q9 -6 9 -20l-1 -8q-16 -49 -34 -132t-18 -119q0 -19 7 -19q16 0 37.5 18.5t36.5 42.5q6 10 7 18q24 161 61 254zM304 595q-6 6 -12 6t-13 -5l-65 -50q-5 -4 -13 -4
q-10 0 -16 8q-5 8 -28 48q-3 4 -3 10q0 13 10 21q68 63 132 107q6 4 13 4q10 0 17 -7q26 -23 107 -114q7 -7 7 -17q0 -7 -5 -14q-4 -5 -19 -23.5t-22 -26.5q-5 -5 -14 -5l-14 5q-46 41 -62 57z" />
    <glyph glyph-name="Ydieresis" unicode="&#x178;" horiz-adv-x="521" 
d="M260 869q87 -7 87 -72q0 -38 -22 -64.5t-67 -26.5q-31 0 -48.5 20t-17.5 53q0 49 37 80q12 10 31 10zM446 869q87 -7 87 -72q0 -38 -22 -64.5t-67 -26.5q-31 0 -48.5 20t-17.5 53q0 49 37 80q12 10 31 10zM425 659q5 13 18 13q15 0 66 -26t68 -40q10 -9 10 -20
q0 -4 -2 -10q-47 -132 -143 -302.5t-176 -264.5q-7 -9 -20 -9q-4 0 -10 2q-69 26 -123 62q-6 4 -6 13l6 14q66 83 95 125q3 4 3 8q0 8 -12 12q-23 9 -26 11q-16 6 -22 25q-46 153 -62 360q0 18 18 23q25 6 72.5 11.5t66.5 5.5q15 0 17 -18q5 -148 28 -273q1 -9 5 -9q3 0 6 6
q67 133 123 281z" />
    <glyph glyph-name="Zacute" unicode="&#x179;" horiz-adv-x="479" 
d="M269 799q99 65 133 97q8 8 17 8q8 0 13 -7q29 -41 44 -87q2 -6 2 -11q0 -14 -10 -21q-26 -20 -75.5 -44.5t-81.5 -33.5q-5 -1 -7 -1q-15 0 -22 12q-9 17 -24 57q-1 3 -1 8q0 14 12 23zM442 670h24q20 0 26 -17q10 -22 19.5 -66t9.5 -64q0 -16 -12 -26q-15 -13 -37 -35.5
t-55.5 -60t-55.5 -62t-67.5 -76t-60.5 -68.5q-3 -5 -3 -7q0 -6 7 -6q1 0 61 2t73 2q22 0 28 -17q6 -19 14 -66.5t8 -60.5q0 -17 -19 -17q-41 -1 -182.5 -11t-146.5 -10q-20 0 -27 15q-49 113 -49 141q0 12 6 23q138 191 261 316q3 3 3 7q0 5 -9 5q-15 0 -70.5 -2.5
t-63.5 -2.5q-23 0 -27 19q-9 56 -9 99q0 20 16 23q49 8 159.5 15.5t178.5 7.5z" />
    <glyph glyph-name="zacute" unicode="&#x17a;" horiz-adv-x="401" 
d="M392 491q7 -29 13 -76t6 -60q0 -17 -15 -29q-103 -80 -179 -147q-5 -5 -5 -8q0 -5 9 -5q5 0 45 0.5t49 0.5q19 0 26 -20q14 -58 14 -118q0 -8 -6 -13t-15 -5h-29q-45 0 -103 -2.5t-99 -5t-44 -2.5q-19 0 -26 16q-11 24 -22 68.5t-11 61.5q0 16 11 27q23 27 75 77.5
t103 93.5q5 5 5 7q0 4 -7 4q-3 0 -23.5 -1t-46 -2.5t-33.5 -1.5q-18 0 -22 20q-9 56 -9 102q0 8 6.5 15t14.5 8q92 14 292 14q20 0 26 -19zM184 642q99 65 133 97q8 8 17 8q8 0 13 -7q29 -41 44 -87q2 -6 2 -11q0 -14 -10 -21q-26 -20 -75.5 -44.5t-81.5 -33.5q-5 -1 -7 -1
q-15 0 -22 12q-9 17 -24 57q-1 3 -1 8q0 14 12 23z" />
    <glyph glyph-name="Zdotaccent" unicode="&#x17b;" horiz-adv-x="479" 
d="M328 870q101 -6 101 -81q0 -38 -26.5 -63t-69.5 -25q-36 0 -56 22.5t-20 60.5q4 47 40 75q15 11 31 11zM442 670h24q20 0 26 -17q10 -22 19.5 -66t9.5 -64q0 -16 -12 -26q-15 -13 -37 -35.5t-55.5 -60t-55.5 -62t-67.5 -76t-60.5 -68.5q-3 -5 -3 -7q0 -6 7 -6q1 0 61 2
t73 2q22 0 28 -17q6 -19 14 -66.5t8 -60.5q0 -17 -19 -17q-41 -1 -182.5 -11t-146.5 -10q-20 0 -27 15q-49 113 -49 141q0 12 6 23q138 191 261 316q3 3 3 7q0 5 -9 5q-15 0 -70.5 -2.5t-63.5 -2.5q-23 0 -27 19q-9 56 -9 99q0 20 16 23q49 8 159.5 15.5t178.5 7.5z" />
    <glyph glyph-name="zdotaccent" unicode="&#x17c;" horiz-adv-x="400" 
d="M392 491q7 -29 13 -76t6 -60q0 -17 -15 -29q-103 -80 -179 -147q-5 -5 -5 -8q0 -5 9 -5q5 0 45 0.5t49 0.5q19 0 26 -20q14 -58 14 -118q0 -8 -6 -13t-15 -5h-29q-45 0 -103 -2.5t-99 -5t-44 -2.5q-19 0 -26 16q-11 24 -22 68.5t-11 61.5q0 16 11 27q23 27 75 77.5
t103 93.5q5 5 5 7q0 4 -7 4q-3 0 -23.5 -1t-46 -2.5t-33.5 -1.5q-18 0 -22 20q-9 56 -9 102q0 8 6.5 15t14.5 8q92 14 292 14q20 0 26 -19zM246 705q101 -6 101 -81q0 -38 -26.5 -63t-69.5 -25q-36 0 -56 22.5t-20 60.5q4 47 40 75q15 11 31 11z" />
    <glyph glyph-name="Zcaron" unicode="&#x17d;" horiz-adv-x="479" 
d="M338 835q5 -5 9 -5q5 0 12 5q34 25 64 52q5 3 11 3q11 0 17 -8q15 -25 26 -50q2 -6 2 -9q0 -12 -11 -23q-62 -62 -126 -104q-6 -3 -12 -3q-4 0 -8 1.5t-6 3.5l-2 2q-44 43 -98 117q-5 7 -5 15t5 15q18 26 40 49q5 5 13 5t14 -6q9 -9 29.5 -32t25.5 -28zM442 670h24
q20 0 26 -17q10 -22 19.5 -66t9.5 -64q0 -16 -12 -26q-15 -13 -37 -35.5t-55.5 -60t-55.5 -62t-67.5 -76t-60.5 -68.5q-3 -5 -3 -7q0 -6 7 -6q1 0 61 2t73 2q22 0 28 -17q6 -19 14 -66.5t8 -60.5q0 -17 -19 -17q-41 -1 -182.5 -11t-146.5 -10q-20 0 -27 15q-49 113 -49 141
q0 12 6 23q138 191 261 316q3 3 3 7q0 5 -9 5q-15 0 -70.5 -2.5t-63.5 -2.5q-23 0 -27 19q-9 56 -9 99q0 20 16 23q49 8 159.5 15.5t178.5 7.5z" />
    <glyph glyph-name="zcaron" unicode="&#x17e;" horiz-adv-x="401" 
d="M392 491q7 -29 13 -76t6 -60q0 -17 -15 -29q-103 -80 -179 -147q-5 -5 -5 -8q0 -5 9 -5q5 0 45 0.5t49 0.5q19 0 26 -20q14 -58 14 -118q0 -8 -6 -13t-15 -5h-29q-45 0 -103 -2.5t-99 -5t-44 -2.5q-19 0 -26 16q-11 24 -22 68.5t-11 61.5q0 16 11 27q23 27 75 77.5
t103 93.5q5 5 5 7q0 4 -7 4q-3 0 -23.5 -1t-46 -2.5t-33.5 -1.5q-18 0 -22 20q-9 56 -9 102q0 8 6.5 15t14.5 8q92 14 292 14q20 0 26 -19zM271 674q5 -5 9 -5q5 0 12 5q34 25 64 52q4 3 11 3q11 0 17 -8q15 -25 26 -50q2 -6 2 -9q0 -12 -11 -23q-62 -62 -126 -104
q-6 -3 -12 -3q-4 0 -8 2t-6 4l-2 1q-44 43 -98 117q-5 7 -5 15t5 15q18 26 40 49q5 5 13 5t14 -6q9 -9 29.5 -32t25.5 -28z" />
    <glyph glyph-name="uni0218" unicode="&#x218;" horiz-adv-x="491" 
d="M268 -59q12 -6 12 -25v-5q-13 -63 -50 -129q-8 -12 -26 -12h-5q-10 3 -51 18q-12 5 -12 22q0 1 0.5 3t0.5 3q25 89 31 138q2 17 16 17q11 0 40 -10.5t44 -19.5zM465 193q0 -78 -63.5 -137.5t-148.5 -59.5q-39 0 -97.5 18t-86.5 42q-45 37 -58 123q-1 7 -1 11q0 17 16 27
q73 28 111 28q14 0 20 -14q32 -83 85 -83t53 30q0 16 -17.5 29t-54.5 31q-36 18 -57 31t-50 36.5t-43.5 55t-14.5 69.5q0 53 27.5 109.5t77 95.5t103.5 39q42 0 100 -19t106.5 -57.5t48.5 -82.5q0 -43 -31 -105q-8 -16 -25 -17q-31 -5 -109 -5q-25 0 -25 15q0 1 7.5 36
t7.5 53q0 42 -29 42t-54 -33t-25 -61q0 -8 2 -15t7.5 -13.5t9.5 -11t13.5 -10.5t14 -9t16.5 -9.5t16 -8.5q10 -6 32.5 -18t32 -17.5t26.5 -17.5t24.5 -21.5t16.5 -24t12.5 -32t3.5 -39.5z" />
    <glyph glyph-name="uni0219" unicode="&#x219;" horiz-adv-x="417" 
d="M221 -52q12 -6 12 -25v-5q-13 -63 -50 -129q-7 -12 -26 -12h-5q-10 3 -51 18q-12 5 -12 22q0 1 0.5 3t0.5 3q25 89 31 138q2 17 16 17q11 0 40 -10.5t44 -19.5zM26 317q0 34 17 77.5t58.5 83t96.5 39.5q14 0 48.5 -9t75 -24.5t71 -42.5t30.5 -57q0 -34 -27 -73
q-10 -15 -27 -15q-22 -2 -95 -2q-15 2 -15 16l5 24q6 25 6 39q0 21 -16 21q-20 0 -38 -29t-18 -49t30 -34.5t66 -24t66 -32.5t30 -58q0 -70 -54.5 -118.5t-126.5 -48.5q-51 0 -104.5 15.5t-87.5 40.5q-12 8 -12 26q0 6 8 36.5t14 45.5q7 15 17 15q4 0 16 -6q82 -43 125 -43
q41 0 42 19q0 11 -31.5 22t-69 22.5t-69 43.5t-31.5 80z" />
    <glyph glyph-name="uni021A" unicode="&#x21a;" horiz-adv-x="483" 
d="M256 -59q12 -6 12 -25v-5q-13 -63 -50 -129q-8 -12 -26 -12h-5q-10 3 -51 18q-12 5 -12 22q0 1 0.5 3t0.5 3q25 89 31 138q2 17 16 17q11 0 40 -10.5t44 -19.5zM503 671q19 -4 21 -22q2 -28 2 -60q0 -41 -2 -77q-2 -16 -22 -18l-98 -5q-20 -1 -23 -18q-55 -218 -81 -453
q-2 -15 -17 -15q-11 0 -63.5 13t-65.5 19q-16 6 -16 26q8 163 64 405q1 5 1 6q0 10 -14 10l-37 -2q-36 -1 -39 -1q-20 0 -22 18q-7 52 -7 134q0 20 21 23q45 7 142.5 14t176.5 7q50 0 79 -4z" />
    <glyph glyph-name="uni021B" unicode="&#x21b;" horiz-adv-x="341" 
d="M355 381q-5 -19 -25 -19h-60q-18 0 -23 -18q-22 -103 -22 -133q0 -29 11.5 -46t37.5 -29q10 -6 10 -19l-2 -9q-21 -51 -60 -95q-11 -11 -24 -11l-8 1q-66 19 -102.5 68.5t-36.5 109.5q0 54 23 165q1 5 1 7q0 11 -10 11h-6q-16 0 -18 20q-1 10 -1 36q0 30 2 64q2 18 24 21
q2 0 7.5 0.5t13 1.5t11.5 1q11 1 17 20q25 101 44 141q7 15 22 15t59.5 -12.5t66.5 -22.5q12 -5 12 -19l-1 -8q-15 -46 -26 -90q-1 -5 -1 -7q0 -11 11 -14h39q19 -1 21 -24v-10q0 -56 -7 -96zM208 -59q12 -6 12 -25v-5q-13 -63 -50 -129q-8 -12 -26 -12h-5q-10 3 -51 18
q-12 5 -12 22q0 1 0.5 3t0.5 3q25 89 31 138q2 17 16 17q11 0 40 -10.5t44 -19.5z" />
    <glyph glyph-name="circumflex" unicode="&#x2c6;" horiz-adv-x="327" 
d="M244 595q-6 6 -12 6t-13 -5l-65 -50q-5 -4 -13 -4q-10 0 -16 8q-5 8 -28 48q-3 4 -3 10q0 13 10 21q68 63 132 107q6 4 13 4q10 0 17 -7q26 -23 107 -114q7 -7 7 -17q0 -7 -5 -14q-4 -5 -19 -23.5t-22 -26.5q-5 -5 -14 -5l-14 5q-46 41 -62 57z" />
    <glyph glyph-name="caron" unicode="&#x2c7;" horiz-adv-x="299" 
d="M229 686q5 -5 9 -5q5 0 12 5q34 25 64 52q4 3 11 3q11 0 17 -8q15 -25 26 -50q2 -6 2 -9q0 -12 -11 -23q-62 -62 -126 -104q-6 -3 -12 -3q-4 0 -8 2t-6 4l-2 1q-44 43 -98 117q-5 7 -5 15t5 15q18 26 40 49q5 5 13 5t14 -6q9 -9 29.5 -32t25.5 -28z" />
    <glyph glyph-name="uni02C9" unicode="&#x2c9;" horiz-adv-x="332" 
d="M107 649q4 18 24 22q43 8 149 8q60 0 80 -4q20 -5 22 -24q0 -1 0.5 -5t0.5 -7q0 -39 -7 -64q-5 -19 -28 -19q-10 0 -109 1t-109 1q-20 0 -24 19q-2 12 -2 28q0 29 3 44z" />
    <glyph glyph-name="breve" unicode="&#x2d8;" horiz-adv-x="281" 
d="M347 700q11 -8 11 -23l-1 -7q-12 -48 -50.5 -91t-100.5 -43q-55 0 -81.5 35t-26.5 84q0 9 2 27q3 23 20 30q30 13 47 13q14 0 14 -15q0 -60 33 -60q36 0 60 58q7 14 18 14l7 -1q32 -11 48 -21z" />
    <glyph glyph-name="dotaccent" unicode="&#x2d9;" horiz-adv-x="201" 
d="M165 710q101 -6 101 -81q0 -38 -26.5 -63t-69.5 -25q-36 0 -56 22.5t-20 60.5q4 47 40 75q15 11 31 11z" />
    <glyph glyph-name="ring" unicode="&#x2da;" horiz-adv-x="257" 
d="M203 608q14 0 24 14t10 34q0 28 -20 28q-15 0 -24.5 -14t-9.5 -34q0 -28 20 -28zM212 530q-18 0 -36 4.5t-37.5 15.5t-32 34t-12.5 55q0 52 31.5 88.5t79.5 36.5q44 0 81.5 -29.5t37.5 -83.5q0 -45 -29.5 -83t-82.5 -38z" />
    <glyph glyph-name="ogonek" unicode="&#x2db;" horiz-adv-x="172" 
d="M53 24l77 -20q-32 -11 -53 -38t-22 -49q0 -25 30 -25q15 0 29 6q6 2 9 2q10 0 14 -10q9 -24 12 -37q2 -6 2 -12q0 -10 -10 -20q-39 -34 -90 -34q-46 0 -73 27t-27 68q0 46 31.5 86t70.5 56z" />
    <glyph glyph-name="tilde" unicode="&#x2dc;" horiz-adv-x="353" 
d="M319 536q-25 0 -66 21t-62 21q-28 0 -53 -25q-5 -5 -9 -5q-5 0 -7 9l-17 62q-2 8 -2 12q0 15 7 22q45 50 85 50q24 0 60.5 -20.5t56.5 -20.5q28 0 55 27q5 4 9 4q5 0 8 -7l16 -65q2 -8 2 -12q0 -13 -6 -22q-36 -51 -77 -51z" />
    <glyph glyph-name="hungarumlaut" unicode="&#x2dd;" horiz-adv-x="303" 
d="M101 570q-8 8 -8 16q0 6 5 14q28 49 52 129q5 13 16 13q3 0 7 -2q36 -19 55 -38q7 -7 7 -18l-3 -16q-36 -85 -71 -124q-6 -8 -16 -8l-12 5q-22 19 -32 29zM231 564q-8 8 -8 16q0 6 5 14q28 49 52 129q5 13 16 13q3 0 7 -2q36 -19 55 -38q7 -7 7 -18l-3 -16
q-36 -85 -71 -124q-6 -8 -16 -8l-12 5q-22 19 -32 29z" />
    <glyph glyph-name="uni03BC" unicode="&#x3bc;" horiz-adv-x="491" 
d="M490 474q13 -4 13 -20l-1 -7q-32 -106 -50.5 -228t-21.5 -200q-2 -18 -17 -18q-18 0 -59 11.5t-61 21.5q-8 3 -10 17l-5 33q-2 9 -5 9t-6 -7q-31 -51 -62 -67q-16 -9 -36 -11q-18 -2 -20 -19q-19 -127 -20 -139q-2 -18 -18 -18q-15 0 -55 12.5t-58 22.5q-17 9 -17 30
q13 157 43 327.5t62 265.5q5 14 21 14q12 0 56.5 -15t67.5 -26q12 -6 12 -20l-2 -9q-16 -46 -34.5 -131t-18.5 -123q0 -21 7 -21q31 0 74 63q7 14 7 20q22 148 58 251q5 16 23 16q16 0 63 -12.5t70 -22.5z" />
    <glyph glyph-name="Wgrave" unicode="&#x1e80;" horiz-adv-x="743" 
d="M570 773q11 -9 11 -19q0 -5 -4 -11q-26 -43 -32 -51q-8 -10 -20 -10q-4 0 -10 2q-32 14 -77.5 45t-67.5 54q-8 8 -8 19q0 6 4 14q24 42 54 78q4 5 12 5q10 0 15 -7q35 -43 123 -119zM370 103q-1 18 -1 71q0 25 2 99q0 9 -3 9q-2 0 -5 -9q-10 -36 -27 -100.5t-28.5 -104
t-20.5 -56.5q-7 -13 -25 -13q-35 0 -94 26t-86 49q-15 13 -17 30q-4 58 -4 97q0 117 14 256t28 200q4 16 20 16q21 0 67 -8t64 -18q17 -9 17 -27l-1 -11q-39 -282 -45 -414q0 -6 3 -6l5 5q103 358 142 454q5 13 18 13q48 0 120 -37q19 -10 19 -24l-1 -11q-36 -259 -42 -394
q0 -6 3 -6l5 5q107 370 145 464q5 13 18 13q15 0 65.5 -23.5t64.5 -35.5q11 -9 11 -20l-1 -8q-21 -57 -68 -193.5t-83.5 -238.5t-53.5 -140q-7 -13 -25 -13q-37 0 -93.5 21.5t-89.5 47.5q-13 10 -17 35z" />
    <glyph glyph-name="wgrave" unicode="&#x1e81;" horiz-adv-x="666" 
d="M536 496q2 16 18 16q14 0 59.5 -24t59.5 -36q12 -10 12 -23q0 -45 -58 -195.5t-113 -220.5q-10 -12 -28 -12q-25 0 -78.5 23.5t-84.5 48.5q-13 12 -16 33q0 5 -2 22.5t-3.5 37t-1.5 32.5q0 8 -2 8q-4 0 -5 -7q-38 -142 -61 -183q-7 -14 -24 -14q-22 0 -76 24.5t-74 42.5
q-13 12 -13 33q0 149 10 395q2 18 21 18q74 -2 129 -16q17 -5 17 -19q0 -4 -13 -154.5t-13 -158.5q0 -4 1 -4l4 7q15 38 99 327q5 18 26 18q58 -4 110 -18q15 -5 15 -21q0 -2 -4.5 -69.5t-8.5 -142.5t-4 -94q0 -6 2 -6l3 4q41 102 97 328zM470 626q11 -9 11 -19q0 -5 -4 -11
q-26 -43 -32 -51q-8 -10 -20 -10q-4 0 -10 2q-32 14 -77.5 45t-67.5 54q-8 8 -8 19q0 6 4 14q24 42 54 78q4 5 12 5q10 0 15 -7q35 -43 123 -119z" />
    <glyph glyph-name="Wacute" unicode="&#x1e82;" horiz-adv-x="743" 
d="M393 795q99 65 133 97q8 8 17 8q8 0 13 -7q29 -41 44 -87q2 -6 2 -11q0 -14 -10 -21q-26 -20 -75.5 -44.5t-81.5 -33.5q-5 -1 -7 -1q-15 0 -22 12q-9 17 -24 57q-1 3 -1 8q0 14 12 23zM370 103q-1 18 -1 71q0 25 2 99q0 9 -3 9q-2 0 -5 -9q-10 -36 -27 -100.5t-28.5 -104
t-20.5 -56.5q-7 -13 -25 -13q-35 0 -94 26t-86 49q-15 13 -17 30q-4 58 -4 97q0 117 14 256t28 200q4 16 20 16q21 0 67 -8t64 -18q17 -9 17 -27l-1 -11q-39 -282 -45 -414q0 -6 3 -6l5 5q103 358 142 454q5 13 18 13q48 0 120 -37q19 -10 19 -24l-1 -11q-36 -259 -42 -394
q0 -6 3 -6l5 5q107 370 145 464q5 13 18 13q15 0 65.5 -23.5t64.5 -35.5q11 -9 11 -20l-1 -8q-21 -57 -68 -193.5t-83.5 -238.5t-53.5 -140q-7 -13 -25 -13q-37 0 -93.5 21.5t-89.5 47.5q-13 10 -17 35z" />
    <glyph glyph-name="wacute" unicode="&#x1e83;" horiz-adv-x="666" 
d="M536 496q2 16 18 16q14 0 59.5 -24t59.5 -36q12 -10 12 -23q0 -45 -58 -195.5t-113 -220.5q-10 -12 -28 -12q-25 0 -78.5 23.5t-84.5 48.5q-13 12 -16 33q0 5 -2 22.5t-3.5 37t-1.5 32.5q0 8 -2 8q-4 0 -5 -7q-38 -142 -61 -183q-7 -14 -24 -14q-22 0 -76 24.5t-74 42.5
q-13 12 -13 33q0 149 10 395q2 18 21 18q74 -2 129 -16q17 -5 17 -19q0 -4 -13 -154.5t-13 -158.5q0 -4 1 -4l4 7q15 38 99 327q5 18 26 18q58 -4 110 -18q15 -5 15 -21q0 -2 -4.5 -69.5t-8.5 -142.5t-4 -94q0 -6 2 -6l3 4q41 102 97 328zM302 644q99 65 133 97q8 8 17 8
q8 0 13 -7q29 -41 44 -87q2 -6 2 -11q0 -14 -10 -21q-26 -20 -75.5 -44.5t-81.5 -33.5q-5 -1 -7 -1q-15 0 -22 12q-9 17 -24 57q-1 3 -1 8q0 14 12 23z" />
    <glyph glyph-name="Wdieresis" unicode="&#x1e84;" horiz-adv-x="743" 
d="M363 853q87 -7 87 -72q0 -38 -22 -64.5t-67 -26.5q-31 0 -48.5 20t-17.5 53q0 49 37 80q12 10 31 10zM549 853q87 -7 87 -72q0 -38 -22 -64.5t-67 -26.5q-31 0 -48.5 20t-17.5 53q0 49 37 80q12 10 31 10zM370 103q-1 18 -1 71q0 25 2 99q0 9 -3 9q-2 0 -5 -9
q-10 -36 -27 -100.5t-28.5 -104t-20.5 -56.5q-7 -13 -25 -13q-35 0 -94 26t-86 49q-15 13 -17 30q-4 58 -4 97q0 117 14 256t28 200q4 16 20 16q21 0 67 -8t64 -18q17 -9 17 -27l-1 -11q-39 -282 -45 -414q0 -6 3 -6l5 5q103 358 142 454q5 13 18 13q48 0 120 -37
q19 -10 19 -24l-1 -11q-36 -259 -42 -394q0 -6 3 -6l5 5q107 370 145 464q5 13 18 13q15 0 65.5 -23.5t64.5 -35.5q11 -9 11 -20l-1 -8q-21 -57 -68 -193.5t-83.5 -238.5t-53.5 -140q-7 -13 -25 -13q-37 0 -93.5 21.5t-89.5 47.5q-13 10 -17 35z" />
    <glyph glyph-name="wdieresis" unicode="&#x1e85;" horiz-adv-x="666" 
d="M536 496q2 16 18 16q14 0 59.5 -24t59.5 -36q12 -10 12 -23q0 -45 -58 -195.5t-113 -220.5q-10 -12 -28 -12q-25 0 -78.5 23.5t-84.5 48.5q-13 12 -16 33q0 5 -2 22.5t-3.5 37t-1.5 32.5q0 8 -2 8q-4 0 -5 -7q-38 -142 -61 -183q-7 -14 -24 -14q-22 0 -76 24.5t-74 42.5
q-13 12 -13 33q0 149 10 395q2 18 21 18q74 -2 129 -16q17 -5 17 -19q0 -4 -13 -154.5t-13 -158.5q0 -4 1 -4l4 7q15 38 99 327q5 18 26 18q58 -4 110 -18q15 -5 15 -21q0 -2 -4.5 -69.5t-8.5 -142.5t-4 -94q0 -6 2 -6l3 4q41 102 97 328zM277 708q87 -7 87 -72
q0 -38 -22 -64.5t-67 -26.5q-31 0 -48.5 20t-17.5 53q0 49 37 80q12 10 31 10zM463 708q87 -7 87 -72q0 -38 -22 -64.5t-67 -26.5q-31 0 -48.5 20t-17.5 53q0 49 37 80q12 10 31 10z" />
    <glyph glyph-name="endash" unicode="&#x2013;" horiz-adv-x="414" 
d="M42 349q1 8 7.5 14.5t15.5 7.5q86 9 201 9q74 0 103 -5q8 -2 14 -9t6 -15v-12q0 -50 -5 -88q-1 -8 -9 -13.5t-17 -5.5q-28 0 -146.5 1t-150.5 1q-7 0 -13 6t-7 14q-1 11 -1 42q0 39 2 53z" />
    <glyph glyph-name="emdash" unicode="&#x2014;" horiz-adv-x="466" 
d="M41 349q1 8 8 14.5t15 7.5q94 9 238 9q88 0 118 -5q19 -4 21 -24v-12q0 -42 -6 -88q-1 -8 -8.5 -13.5t-15.5 -5.5q-31 0 -174 1t-175 1q-8 0 -14.5 6t-7.5 14q0 4 -0.5 17t-0.5 21q0 27 2 57z" />
    <glyph glyph-name="quoteleft" unicode="&#x2018;" horiz-adv-x="188" 
d="M93 484q-15 8 -15 27q6 43 27 102t42 92q10 12 23 12l8 -1q27 -5 57 -20q11 -6 11 -21l-1 -6q-36 -116 -41 -191q-2 -18 -18 -18q-39 0 -93 24z" />
    <glyph glyph-name="quoteright" unicode="&#x2019;" horiz-adv-x="190" 
d="M231 693q15 -8 15 -27q-6 -43 -27 -102t-42 -92q-10 -12 -23 -12l-8 1q-27 5 -57 20q-11 6 -11 21l1 6q36 116 41 191q2 18 18 18q39 0 93 -24z" />
    <glyph glyph-name="quotesinglbase" unicode="&#x201a;" horiz-adv-x="171" 
d="M79 -112q-5 -16 -18 -16q-15 0 -75 24q-16 6 -16 28q5 40 21.5 106t30.5 101q5 14 23 14q8 0 37 -9t45 -17q12 -7 12 -19q0 -2 -2 -8q-25 -66 -58 -204z" />
    <glyph glyph-name="quotedblleft" unicode="&#x201c;" horiz-adv-x="352" 
d="M253 484q-15 8 -15 27q6 43 27 102t42 92q10 12 23 12l8 -1q27 -5 57 -20q11 -6 11 -21l-1 -6q-36 -116 -41 -191q-2 -18 -18 -18q-39 0 -93 24zM96 484q-15 8 -15 27q6 43 27 102t42 92q10 12 23 12l8 -1q27 -5 57 -20q11 -6 11 -21l-1 -6q-36 -116 -41 -191
q-2 -18 -18 -18q-39 0 -93 24z" />
    <glyph glyph-name="quotedblright" unicode="&#x201d;" horiz-adv-x="348" 
d="M231 693q15 -8 15 -27q-6 -43 -27 -102t-42 -92q-10 -12 -23 -12l-8 1q-27 5 -57 20q-11 6 -11 21l1 6q36 116 41 191q2 18 18 18q39 0 93 -24zM388 693q15 -8 15 -27q-6 -43 -27 -102t-42 -92q-10 -12 -23 -12l-8 1q-27 5 -57 20q-11 6 -11 21l1 6q36 116 41 191
q2 18 18 18q39 0 93 -24z" />
    <glyph glyph-name="quotedblbase" unicode="&#x201e;" horiz-adv-x="332" 
d="M79 -112q-5 -16 -18 -16q-15 0 -75 24q-16 6 -16 28q5 40 21.5 106t30.5 101q5 14 23 14q8 0 37 -9t45 -17q12 -7 12 -19q0 -2 -2 -8q-25 -66 -58 -204zM238 -112q-5 -16 -18 -16q-15 0 -75 24q-16 6 -16 28q5 40 21.5 106t30.5 101q5 14 23 14q8 0 37 -9t45 -17
q12 -7 12 -19q0 -2 -2 -8q-25 -66 -58 -204z" />
    <glyph glyph-name="dagger" unicode="&#x2020;" horiz-adv-x="413" 
d="M404 502q18 -2 20 -24v-12q0 -65 -7 -98q-3 -19 -22 -19h-77q-18 0 -23 -18q-49 -237 -65 -381q-3 -17 -19 -17q-19 0 -62 13.5t-64 26.5q-12 7 -12 32q7 94 50 330q0 16 -16 16h-30q-8 0 -14 6t-6 14q-1 12 -1 46q0 43 2 58q2 19 22 22q9 1 31.5 2.5t28.5 2.5
q17 0 21 20q26 111 48 170q6 16 23 16t61 -12t68 -23q10 -5 10 -21l-1 -7q-14 -46 -31 -119q-1 -4 -1 -6q0 -15 15 -15q39 0 51 -3z" />
    <glyph glyph-name="daggerdbl" unicode="&#x2021;" horiz-adv-x="427" 
d="M422 370q-4 -20 -27 -20h-71q-19 0 -22 -15q-11 -47 -11 -60q0 -14 14 -14q42 -2 59 -4q9 -1 15 -8.5t7 -15.5v-12q0 -56 -7 -98q-3 -18 -25 -18h-76q-8 0 -15.5 -5.5t-8.5 -13.5q-16 -109 -19 -135q-4 -18 -20 -18q-18 0 -61.5 13.5t-62.5 26.5q-12 9 -12 33
q1 12 3.5 32.5t4.5 36t2 16.5q0 16 -16 16h-30q-19 0 -23 19q-2 8 -2 37q0 41 3 67q4 21 23 23l51 4q18 2 21 20l12 60q0 15 -16 15h-27q-20 0 -23 19q-1 6 -1 42q0 48 2 62q1 8 7.5 15t14.5 8q15 2 59 4q18 2 22 20q32 127 49 171q9 16 25 16t59.5 -11.5t66.5 -22.5
q12 -6 12 -23l-1 -6q-33 -114 -33 -125q0 -15 13 -15q36 -2 51 -4q19 -3 21 -23v-12q0 -55 -7 -97z" />
    <glyph glyph-name="bullet" unicode="&#x2022;" horiz-adv-x="271" 
d="M127 439q66 -4 97.5 -33t31.5 -75q0 -52 -30 -90t-91 -38q-49 0 -74 30.5t-25 75.5q0 71 54 119q18 11 37 11z" />
    <glyph glyph-name="ellipsis" unicode="&#x2026;" horiz-adv-x="641" 
d="M67 183q46 0 73 -26t27 -64q0 -42 -25 -69t-67 -27t-62.5 25t-20.5 65q0 50 43 85q13 11 32 11zM283 183q46 0 73 -26t27 -64q0 -42 -25 -69t-67 -27t-62.5 25t-20.5 65q0 50 43 85q13 11 32 11zM498 183q46 0 73 -26t27 -64q0 -42 -25 -69t-67 -27t-62.5 25t-20.5 65
q0 50 43 85q13 11 32 11z" />
    <glyph glyph-name="perthousand" unicode="&#x2030;" horiz-adv-x="990" 
d="M194 12q-6 -9 -18 -9q-2 0 -11 3q-26 18 -40 32q-7 7 -7 15t5 16q30 48 200.5 292.5t209.5 303.5q7 9 18 9q4 0 8 -2q35 -21 61 -46q6 -6 6 -14q0 -6 -7 -15q-258 -316 -425 -585zM208 433q23 0 39 40.5t16 80.5t-20 40q-21 0 -38 -40.5t-18 -79.5q0 -41 21 -41zM228 351
q-20 0 -41.5 5t-47 17.5t-41.5 40.5t-16 68q0 33 13 75.5t45 80t74 37.5q28 0 60.5 -11t62 -42.5t29.5 -76.5q0 -22 -7.5 -52.5t-22 -63.5t-43.5 -55.5t-65 -22.5zM497 82q22 0 39 40.5t17 80.5q0 41 -20 41q-21 0 -39 -42t-18 -81t21 -39zM518 0q-15 0 -31.5 2.5t-38 11
t-37.5 22.5t-27.5 39t-11.5 57q0 38 13 80t45 77.5t75 35.5q19 0 43 -7t49 -21t42 -41t17 -61q0 -23 -7 -53.5t-22 -63.5t-43.5 -55.5t-65.5 -22.5zM801 82q22 0 39 40.5t17 80.5q0 41 -20 41q-21 0 -39 -42t-18 -81t21 -39zM822 0q-15 0 -31.5 2.5t-38 11t-37.5 22.5
t-27.5 39t-11.5 57q0 38 13 80t45 77.5t75 35.5q19 0 43 -7t49 -21t42 -41t17 -61q0 -23 -7 -53.5t-22 -63.5t-43.5 -55.5t-65.5 -22.5z" />
    <glyph glyph-name="guilsinglleft" unicode="&#x2039;" horiz-adv-x="246" 
d="M30 300q-5 7 -5 15q0 9 6 16l136 164q6 7 15 7l12 -5l54 -49q6 -6 6 -15q0 -7 -5 -14l-76 -92q-6 -7 -6 -15l2 -10l41 -98q2 -6 2 -9q0 -12 -10 -17l-50 -25q-4 -2 -9 -2q-13 0 -19 9z" />
    <glyph glyph-name="guilsinglright" unicode="&#x203a;" horiz-adv-x="248" 
d="M239 353q5 -7 5 -15t-6 -16l-136 -164q-6 -7 -15 -7l-12 5l-54 49q-6 6 -6 15q0 7 5 14l76 92q6 8 6 15l-2 10l-41 98q-2 6 -2 9q0 12 10 17l50 25q4 2 9 2q13 0 19 -9z" />
    <glyph glyph-name="Euro" unicode="&#x20ac;" horiz-adv-x="442" 
d="M231 250q0 -18 12.5 -29t28.5 -11q41 0 93 31q5 3 8 3q9 0 13 -12q21 -60 21 -85q0 -15 -13 -25q-64 -51 -133 -51q-58 0 -109.5 46.5t-69.5 118.5q-5 19 -14 19h-4q-17 0 -17 18v40q0 18 15 18h11q11 0 11 11l1 9q0 10 -8 10q-16 0 -17 14q0 5 0.5 20t0.5 21q2 21 19 21
h9q17 0 23 21q26 79 75.5 130.5t108.5 51.5q69 0 149 -61q12 -9 12 -22q0 -3 -2 -9q-18 -54 -43 -91q-6 -6 -15 -6q-7 0 -14 5q-2 2 -11 9t-12.5 10t-11 8.5t-12.5 8t-11.5 4.5t-12.5 2q-16 0 -32 -16t-16 -28q0 -8 10 -8h40q17 -2 17 -18q0 -33 -1 -40q-3 -19 -18 -19
q-7 0 -34.5 -0.5t-36.5 -0.5t-12 -8q-3 -7 -3 -10q0 -9 12 -9q47 0 60 -1q18 0 18 -18q0 -28 -1 -39q-2 -19 -21 -19h-47q-16 0 -16 -14z" />
    <glyph glyph-name="trademark" unicode="&#x2122;" horiz-adv-x="622" 
d="M328 629q0 -11 -13 -13q-6 0 -48 -2q-11 0 -14 -12q-32 -122 -45 -231q-2 -11 -11 -11q-8 0 -31.5 6.5t-31.5 11.5q-9 6 -9 21q7 87 35 200q0 11 -9 11q-8 0 -19 -0.5t-15 -0.5q-12 0 -14 11t-2 39q0 21 1 29q0 13 13 15q66 11 159 11q20 0 42 -2q12 -2 14 -14v-12
q0 -27 -2 -57zM532 703q4 10 15 10q33 0 113 -28q9 -3 9 -12l-1 -4q-43 -144 -63 -299q0 -11 -10 -11q-8 0 -31.5 6.5t-34.5 12.5q-9 4 -9 19q5 52 30 173h-4q-2 -4 -23 -68t-28 -78q-6 -12 -16 -12q-25 1 -52 16q-9 5 -9 20q-2 15 -2 53q0 50 1 68h-4q-18 -92 -30 -199
q-2 -12 -13 -12q-41 5 -60 17q-8 5 -8 20q6 63 27 162t36 140q5 15 20 15t46.5 -7t42.5 -12q9 -6 9 -19q-2 -20 -4 -107q0 -5 1 -5q2 0 3 4q31 95 49 137z" />
    <glyph glyph-name="blackmaniculeleft" unicode="&#x261a;" horiz-adv-x="1240" 
d="M567 557q78 59 148 59q91 0 152 -73q12 -15 32 -17l94 -5q172 6 205 6q8 0 14 -5.5t6 -12.5q-2 -146 -44 -407q-1 -8 -7.5 -14t-14.5 -7q-66 -3 -97 -3q-53 0 -90 3q-13 0 -13 14l1 6q22 101 22 243v24q0 8 -1 8q-2 0 -2 -8q-15 -148 -35 -219q-7 -18 -19 -18
q-13 0 -25 -15q-22 -25 -52 -38q-4 -2 -7 -2q-10 0 -13 14q-11 34 -44 34q-12 0 -12 -4q0 -2 11 -7q25 -11 25 -50q0 -55 -62.5 -111t-122.5 -56q-59 0 -81 40q-10 18 -26 18q-127 6 -155 57q-6 10 -6 33q0 11 3 32.5t3 25.5q0 14 -14 19q-38 16 -52.5 35.5t-14.5 47.5
q0 30 14 90q4 16 19 22q4 2 17.5 6.5t17.5 6.5q6 3 6 6q0 4 -10 4h-49q-146 3 -177 20q-36 19 -36 84q0 46 19 86q10 14 30 17q65 6 174 6q37 0 132.5 -3t103.5 -3q18 0 33 11zM682 420q0 6 -1 6q-2 0 -5 -8q-23 -78 -68 -141.5t-89 -63.5q-35 0 -72 36t-37 73q0 13 4.5 29
t10.5 29t17 31.5t17 27.5t18.5 27t14.5 21q5 5 5 7q0 1 -3 1q-2 0 -6 -2q-19 -8 -60.5 -75.5t-41.5 -103.5q0 -42 25.5 -75.5t76.5 -46.5q11 -3 25 -3l13 1q32 6 59 29.5t45 56.5t29 60.5t19 56.5q4 18 4 27zM655 210q-3 7 -8 7q-4 0 -6 -7l-2 -16q-8 -37 -63 -62t-135 -25
q-10 0 -26 2q-9 0 -9 -4q0 -2 6 -5q26 -12 73 -12q142 0 172 94q1 3 1 10q0 10 -3 18zM492 435q-12 0 -19 -13q-1 -2 -1 -4q0 -9 13 -14q21 -7 38.5 -23t17.5 -38q0 -7 -1 -11q-4 -15 -28 -50q-10 -12 -10 -13q0 -2 3 -2l7 2q19 10 40 42.5t21 58.5q0 33 -27 49t-54 16z
M700 138q-6 5 -13 5t-7 -7t10 -23q15 -24 15 -56q0 -25 -34 -55t-83 -41l-5 -2q0 -2 14 -2q51 0 92.5 28.5t41.5 71.5q0 47 -31 81zM849 307q1 2 1 4q0 3 -2 3q-3 0 -6 -5q-57 -72 -131 -98q-12 -5 -12 -14q0 -12 17 -12q3 0 9 2q41 18 75 51t49 69zM1086 205
q-14 0 -28.5 -11t-14.5 -26q0 -11 7.5 -21t20.5 -10q16 0 27 14t11 30q0 4 -1 6q-1 7 -8.5 12.5t-13.5 5.5zM271 429q0 14 -2 29.5t-4.5 25.5t-4.5 10t-7.5 -11.5t-11 -28t-5.5 -27.5q0 -18 4 -35.5t8 -17.5q5 0 14 21.5t9 33.5zM355 244q-3 0 -12.5 -16.5t-9.5 -23.5
q0 -11 2 -19.5t4 -12t4 -3.5q4 0 12 12.5t8 23.5t-2.5 25t-5.5 14zM485 61q-3 0 -7.5 -14t-4.5 -23q0 -8 3.5 -23t6.5 -15t8.5 11.5t5.5 20.5q0 7 -2.5 17.5t-5.5 18t-4 7.5z" />
    <glyph glyph-name="blackmaniculeright" unicode="&#x261b;" horiz-adv-x="1218" 
d="M96 509q3 19 24 19l188 -8q20 0 108 6q16 2 31 15q75 75 168 75q71 0 137 -58q14 -12 32 -12q142 6 238 6q103 0 172 -5q22 -2 27 -19q8 -32 8 -53q0 -47 -20.5 -82.5t-58.5 -41.5q-57 -9 -156 -11h-48q-9 0 -9 -4t32 -17q18 -7 20 -24q1 -13 1 -41q0 -32 -3 -52
q-5 -30 -23.5 -48t-58.5 -33q-19 -5 -19 -25v-14q0 -46 -9 -65q-14 -28 -62 -43.5t-103 -19.5q-18 0 -30 -16q-27 -41 -89 -41q-59 0 -108 46t-49 100q0 55 34 71q12 5 12 6q0 4 -12 4q-33 0 -48 -35q-7 -13 -17 -13q-3 0 -7 2q-27 15 -43 37q-12 16 -23 16q-14 0 -16 19
q-4 33 -4 104q0 61 2 115q0 8 -1 8q-2 0 -4 -8q-19 -103 -19 -233q0 -7 0.5 -20t0.5 -18q0 -15 -17 -17l-89 -4l-96 4q-19 2 -19 21q4 261 26 407zM733 190q3 -1 12 -1q60 0 105.5 48.5t45.5 99.5q0 52 -46 118q-13 20 -29 35q-5 5 -7 5t4 -8q54 -93 54 -154
q-1 -39 -47 -79.5t-82 -40.5q-44 0 -78.5 63.5t-45.5 140.5q-1 10 -3 10t-2 -5q0 -9 2 -29q18 -183 117 -203zM620 211q-1 7 -4 7q-4 0 -8 -6q-8 -13 -8 -26q0 -15 6 -29.5t21 -31t48 -26.5t80 -10q49 0 78 12q7 3 7 5q0 3 -10 3q-8 -1 -29 -1q-75 0 -123 23t-55 58
q-3 21 -3 22zM825 418q0 6 -6 12t-13 6q-30 0 -62.5 -21.5t-33.5 -60.5q0 -29 22 -58t39 -29l-9 17q-21 34 -21 51q0 45 69 70q15 5 15 13zM568 134q0 7 -7 7t-12 -5q-42 -36 -45 -80q0 -23 12.5 -44.5t29.5 -32.5q25 -18 69 -23q8 -1 18 -1t10 2q0 1 -11 4q-46 11 -72.5 37
t-26.5 59q0 37 23 59q12 10 12 18zM437 308q-3 6 -6 6q-2 0 -2 -2q0 -3 2 -9q28 -81 102 -115q6 -2 9 -2q20 0 20 14q0 8 -12 11q-69 28 -113 97zM147 169q0 -12 8.5 -22t21.5 -10t22.5 9t9.5 21q0 16 -8 24q-13 13 -30 13q-11 0 -17.5 -11t-6.5 -24zM1024 426q0 -12 6 -32
t11 -20q4 0 9.5 22t5.5 39q0 11 -2.5 25.5t-5 24t-4.5 9.5t-7 -12t-9 -28.5t-4 -27.5zM913 244q-3 0 -10 -16.5t-7 -25.5q0 -12 4 -22.5t7 -10.5q2 0 5.5 5t7 15.5t3.5 20.5q0 7 -3.5 20.5t-6.5 13.5zM752 61q-1 0 -5 -7.5t-8 -18t-4 -17.5q0 -32 5 -32q3 0 11 15.5t8 22.5
q0 37 -7 37z" />
    <glyph glyph-name="whitemaniculeleft" unicode="&#x261c;" horiz-adv-x="1238" 
d="M97 516q11 21 29 25q57 19 231 19q42 0 103 -2.5t77 -2.5q15 0 33 10q77 45 149 45q80 0 163 -58q20 -14 59 -16q5 0 37 -2l33 -1l187 7q8 0 13 -5.5t5 -13.5q0 -168 -45 -438q-4 -19 -22 -21q-38 -6 -114 -6q-68 0 -122 3q-18 2 -18 20l1 14q0 11 -9 11q-10 0 -16 -17
q-23 -75 -83 -129.5t-154 -54.5q-69 0 -106 39q-12 15 -29 17q-44 5 -85.5 21t-54.5 38q-14 23 -14 72v3v8q0 11 -16 19q-56 23 -56 106q0 9 2 27t2 20q0 11 -14 13q-63 2 -102.5 12t-57 29.5t-23 38.5t-5.5 49q0 57 22 101zM172 507q-24 -1 -33.5 -30t-9.5 -56
q0 -70 49 -81q50 -12 154 -12h38q9 0 9 -4q0 -7 -22 -13q-21 -6 -24 -23q-9 -42 -9 -68q0 -22 6 -36q11 -26 51 -42q15 -7 15 -24q0 -1 -0.5 -16.5t-0.5 -22.5q0 -33 17 -46q33 -25 125 -33q17 -1 29 -17q27 -33 74 -33q59 0 113.5 38t54.5 94q0 40 -27 51q-9 3 -9 8
q0 3 7 5q9 3 17 3q27 0 40 -25q5 -8 11 -8q5 0 8 5l7 12q10 17 23 17q22 0 28 18q9 30 17.5 70.5t17.5 86.5t13 65q1 7 2 7q1 -2 1 -7q0 -100 -22 -258v-4q0 -16 16 -18q37 -4 71 -4t74 2q17 2 21 22q31 182 39 347q0 18 -17 18l-155 -6l-105 6q-18 0 -32 14q-63 58 -145 58
q-58 0 -129 -50q-15 -11 -34 -11q-9 0 -102.5 3t-104.5 3q-98 0 -167 -5zM519 468q5 3 7 3t2 -2q0 -3 -4 -7q-81 -96 -81 -151q0 -31 36 -60t70 -29q38 0 82 60t66 127q3 10 6 10t3 -13q0 -8 -2 -20q-16 -81 -59 -142.5t-105 -61.5q-59 0 -97 46t-38 89q0 29 47 92
q7 9 27 29q28 22 40 30zM660 219q0 5 6 5t10 -7.5t4 -13.5q0 -9 -2 -14q-31 -84 -145 -84q-42 0 -81 18q-7 3 -7 5t9 2h27q68 0 116 20t60 51q2 4 2.5 10.5t0.5 7.5zM619 5q46 10 72 37t26 62q0 21 -12 30q-12 10 -12 19q0 11 14 11l9 -2q34 -17 34 -55q0 -45 -36 -78
t-84 -33q-13 0 -21 2q-3 1 -3 2q0 3 13 5zM512 382q-13 3 -13 11q0 7 9.5 13t17.5 6h4q19 0 42 -20t23 -50q0 -25 -24.5 -51.5t-42.5 -26.5q-2 0 -2 2q0 1 10 14q25 29 25 49q0 38 -49 53zM835 299q4 5 6 5t2 -2l-2 -6q-12 -32 -38 -61.5t-59 -44.5q-6 -2 -9 -2
q-7 0 -15 6.5t-8 14.5q0 7 10 12q62 17 113 78zM1054 219q-14 0 -26.5 -9.5t-12.5 -23.5q0 -10 7 -18.5t17 -8.5q15 0 24.5 12t9.5 28q0 4 -1 6q-2 4 -8 9t-10 5zM321 410q0 14 -2.5 29.5t-6 25.5t-5.5 10t-7 -11.5t-10 -28t-5 -27.5q0 -49 10 -49q5 0 15.5 21t10.5 30z
M398 241q-3 0 -9 -14.5t-6 -20.5q0 -10 2.5 -18.5t4.5 -11.5t3 -3q4 0 10.5 11.5t6.5 22.5q0 7 -4.5 20.5t-7.5 13.5zM516 82q-3 0 -7.5 -11t-4.5 -20q0 -7 3.5 -17t6.5 -10t10 9t7 16t-3.5 15t-7 13t-4.5 5z" />
    <glyph glyph-name="whitemaniculeright" unicode="&#x261e;" horiz-adv-x="1215" 
d="M92 519q4 19 20 19q25 0 197 -7q74 6 82 7q22 0 35 13q76 59 181 59q74 0 139 -45q16 -10 26 -10q16 0 80 2.5t105 2.5q155 0 231 -20q19 -4 24 -24q7 -31 7 -59q0 -71 -32 -115q-20 -26 -59.5 -39t-121.5 -16q-7 0 -12.5 -6t-5.5 -14q0 -110 -78 -147q-18 -9 -19 -25
q-3 -35 -15 -62q-15 -33 -61.5 -50.5t-97.5 -22.5q-19 -2 -33 -16q-39 -39 -111 -39q-44 0 -80 14t-56.5 32.5t-36.5 46.5t-22.5 45.5t-12.5 41.5q-6 19 -14 19q-12 0 -12 -19v-6q-2 -18 -20 -20h-42q-151 0 -195 6q-7 1 -12.5 7.5t-5.5 14.5v20q0 200 28 412zM160 495
q-20 0 -22 -18q-18 -177 -21 -347q0 -20 18 -22q38 -2 75 -2q32 0 71 4q19 2 21 22q4 161 20 258l3 7q1 -2 1 -7q0 -1 2.5 -90.5t7.5 -129.5q2 -20 22 -20q16 0 23 -18l4 -10q3 -6 7 -6q7 0 12 7q18 26 45 26q9 0 18 -3q5 -2 5 -5q0 -4 -8 -7q-39 -14 -39 -72q0 -46 45 -79
t100 -33q51 0 82 34q15 15 29 15q67 2 111 21q41 18 47 58q2 12 4 38q2 19 19 26q53 20 67 61q8 24 8 66v12q-1 23 -20 30l-15 6q-6 3 -6 6q0 5 10 5h38q101 0 156 12q63 14 63 105q0 24 -4 43t-22 19q-70 5 -168 5q-28 0 -116 -2.5t-93 -2.5q-19 0 -33 11q-60 49 -117 49
q-86 0 -159 -59q-15 -13 -33 -13l-105 -5zM775 460q-3 4 -3 7t3 3q1 0 6 -3q17 -10 34 -28q14 -14 21 -30q2 -5 10 -19.5t12 -23.5t8 -21.5t4 -21.5q0 -46 -48 -94t-107 -48q-43 0 -74.5 34t-44.5 80.5t-13 97.5q0 15 3 24q1 3 2 3q3 0 5 -12q10 -66 44 -126t71 -60t80 32
t43 65q0 58 -56 141zM571 197q0 8 6.5 17.5t14.5 9.5q6 0 6 -8q0 -7 2 -17q7 -31 50 -50t112 -19h25q10 0 10 -2q0 -7 -36 -15t-55 -8q-64 0 -99.5 30t-35.5 62zM738 264q-19 0 -37.5 25.5t-18.5 46.5q0 30 26.5 53t56.5 23q8 0 15 -5t7 -12t-13 -12q-60 -20 -60 -57
q0 -15 10 -32q10 -16 17 -23q2 -2 2 -3q0 -4 -5 -4zM543 142q-23 -28 -23 -58q0 -27 22.5 -49.5t59.5 -29.5q13 -2 13 -5q0 -4 -24 -4q-40 0 -72 24.5t-32 61.5q0 53 47 72q6 2 8 2q5 0 5 -5q0 -4 -4 -9zM429 295q-1 5 -1 6q0 3 2 3t7 -6q42 -60 98 -77q9 -3 9 -11t-8 -14.5
t-17 -6.5q-7 0 -12 3q-62 36 -78 103zM969 402q0 10 9.5 35t15.5 25q10 0 10 -52q0 -9 -7 -29t-12 -20t-10.5 14t-5.5 27zM693 43q0 7 8 19.5t12 12.5q3 0 6 -9.5t3 -17.5t-7 -18.5t-11 -10.5q-3 0 -7 8.5t-4 15.5zM849 207q0 7 6.5 21t10.5 14q3 0 6 -12t3 -18q0 -7 -7 -20
t-12 -13q-7 0 -7 28zM177 179q0 -12 8 -21t20 -9t21 8.5t9 19.5q0 34 -34 34q-10 0 -17 -10t-7 -22z" />
    <glyph glyph-name="f_f" unicode="&#xfb00;" horiz-adv-x="658" 
d="M688 563q-13 5 -29 5q-19 0 -32.5 -13.5t-13.5 -31.5q0 -12 14 -12h35q17 -1 17 -24q-2 -57 -9 -106q-2 -18 -22 -18h-52q-18 0 -21 -15q-34 -187 -56 -329q-4 -18 -22 -18q-15 0 -62 12.5t-62 18.5t-15 27l1 12q13 95 44 274q1 6 1 7q0 11 -12 11h-118q-18 0 -21 -15
q-34 -187 -56 -329q-4 -18 -22 -18q-15 0 -62 12.5t-62 18.5t-15 27l1 12q16 114 44 278q1 6 1 7q0 11 -12 11h-9q-14 0 -16 16v27q0 45 2 75q2 21 24 21q2 0 7.5 0.5t7.5 0.5q19 0 22 17q18 95 61 147.5t131 52.5q54 0 102 -23q12 -7 12 -21q0 -5 -24 -105q-3 -13 -18 -13
l-6 1q-13 5 -29 5q-19 0 -32.5 -13.5t-13.5 -31.5q0 -12 14 -12h105q17 0 20 13q18 95 61 147.5t131 52.5q54 0 102 -23q12 -7 12 -21q0 -5 -24 -105q-3 -13 -18 -13z" />
    <glyph glyph-name="fi" unicode="&#xfb01;" horiz-adv-x="569" 
d="M366 563q-13 5 -29 5q-19 0 -32.5 -13.5t-13.5 -31.5q0 -12 14 -12h45q17 -1 17 -24q-2 -57 -9 -106q-2 -18 -22 -18h-62q-18 0 -21 -15q-34 -187 -56 -329q-4 -18 -22 -18q-15 0 -62 12.5t-62 18.5t-15 27l1 12q16 114 44 278q1 6 1 7q0 11 -12 11h-9q-14 0 -16 16v27
q0 45 2 75q2 21 24 21q2 0 7.5 0.5t7.5 0.5q19 0 22 17q18 95 61 147.5t131 52.5q54 0 102 -23q12 -7 12 -21q0 -5 -24 -105q-3 -13 -18 -13zM512 733q53 0 85 -26t32 -65q0 -43 -31 -71t-82 -28q-43 0 -65.5 26t-22.5 67q0 46 48 86q14 11 36 11zM504 18q-3 -17 -19 -17
q-13 0 -59.5 12.5t-63.5 19.5q-16 7 -16 28q5 83 29 226t44 206q5 17 25 17q12 0 64 -12t64 -18q13 -6 13 -19l-1 -6q-62 -272 -80 -437z" />
    <glyph glyph-name="f_f_i" unicode="&#xfb03;" horiz-adv-x="886" 
d="M688 563q-13 5 -29 5q-19 0 -32.5 -13.5t-13.5 -31.5q0 -12 14 -12h35q17 -1 17 -24q-2 -57 -9 -106q-2 -18 -22 -18h-52q-18 0 -21 -15q-34 -187 -56 -329q-4 -18 -22 -18q-15 0 -62 12.5t-62 18.5t-15 27l1 12q13 95 44 274q1 6 1 7q0 11 -12 11h-118q-18 0 -21 -15
q-34 -187 -56 -329q-4 -18 -22 -18q-15 0 -62 12.5t-62 18.5t-15 27l1 12q16 114 44 278q1 6 1 7q0 11 -12 11h-9q-14 0 -16 16v27q0 45 2 75q2 21 24 21q2 0 7.5 0.5t7.5 0.5q19 0 22 17q18 95 61 147.5t131 52.5q54 0 102 -23q12 -7 12 -21q0 -5 -24 -105q-3 -13 -18 -13
l-6 1q-13 5 -29 5q-19 0 -32.5 -13.5t-13.5 -31.5q0 -12 14 -12h105q17 0 20 13q18 95 61 147.5t131 52.5q54 0 102 -23q12 -7 12 -21q0 -5 -24 -105q-3 -13 -18 -13zM829 733q53 0 85 -26t32 -65q0 -43 -31 -71t-82 -28q-43 0 -65.5 26t-22.5 67q0 46 48 86q14 11 36 11z
M821 18q-3 -17 -19 -17q-13 0 -59.5 12.5t-63.5 19.5q-16 7 -16 28q5 83 29 226t44 206q5 17 25 17q12 0 64 -12t64 -18q13 -6 13 -19l-1 -6q-62 -272 -80 -437z" />
    <glyph glyph-name="t_t" horiz-adv-x="627" 
d="M641 381q-5 -19 -25 -19h-60q-18 0 -23 -18q-22 -103 -22 -133q0 -29 11.5 -46t37.5 -29q10 -6 10 -19l-2 -9q-21 -51 -60 -95q-11 -11 -24 -11l-8 1q-66 19 -102.5 68.5t-36.5 109.5q0 54 23 165q1 5 1 7q0 11 -10 11h-81q-18 0 -23 -18q-22 -103 -22 -135
q0 -29 11.5 -46t37.5 -29q10 -6 10 -19l-2 -9q-21 -51 -60 -95q-11 -11 -24 -11l-8 1q-66 19 -102.5 68.5t-36.5 109.5q0 54 23 165q1 5 1 7q0 11 -10 11h-6q-16 0 -18 20q-1 10 -1 36q0 30 2 64q2 18 24 21q2 0 7.5 0.5t13 1.5t11.5 1q11 1 17 20q25 101 44 141q7 15 22 15
t59.5 -12.5t66.5 -22.5q12 -5 12 -19l-1 -8q-12 -38 -26 -93q-1 -5 -1 -7q0 -11 11 -14h82q11 0 17 20q25 101 44 141q7 15 22 15t59.5 -12.5t66.5 -22.5q12 -5 12 -19l-1 -8q-15 -46 -26 -90q-1 -5 -1 -7q0 -11 11 -14h39q19 -1 21 -24v-10q0 -56 -7 -96z" />
  </font>
</defs>
</svg>
